<mxfile host="app.diagrams.net" modified="2023-10-07T12:18:02.132Z" agent="Mozilla/5.0 (Macintosh; Intel Mac OS X 10_15_7) AppleWebKit/605.1.15 (KHTML, like Gecko) Version/17.0 Safari/605.1.15" etag="kt-8PSdOIQ91fj2Qe-aE" version="22.0.4" type="device">
  <diagram name="Page-1" id="1sVjHziG8B65xXk82SHj">
    <mxGraphModel dx="1846" dy="940" grid="1" gridSize="10" guides="1" tooltips="1" connect="1" arrows="1" fold="1" page="1" pageScale="1" pageWidth="850" pageHeight="1100" math="0" shadow="0">
      <root>
        <mxCell id="0" />
        <mxCell id="1" parent="0" />
        <mxCell id="yEMSVHI_-RF4RxutFohv-50" value="" style="rounded=1;arcSize=10;strokeColor=none;fillColor=#DBDBDB;gradientColor=none;" vertex="1" parent="1">
          <mxGeometry x="210" y="410" width="300" height="120" as="geometry" />
        </mxCell>
        <mxCell id="yEMSVHI_-RF4RxutFohv-26" value="" style="edgeStyle=orthogonalEdgeStyle;rounded=0;orthogonalLoop=1;jettySize=auto;html=1;startArrow=classic;startFill=1;endArrow=classic;endFill=1;" edge="1" parent="1" source="yEMSVHI_-RF4RxutFohv-1" target="yEMSVHI_-RF4RxutFohv-3">
          <mxGeometry relative="1" as="geometry">
            <mxPoint x="360" y="370" as="sourcePoint" />
          </mxGeometry>
        </mxCell>
        <mxCell id="yEMSVHI_-RF4RxutFohv-27" style="edgeStyle=orthogonalEdgeStyle;rounded=0;orthogonalLoop=1;jettySize=auto;html=1;" edge="1" parent="1" source="yEMSVHI_-RF4RxutFohv-1" target="yEMSVHI_-RF4RxutFohv-13">
          <mxGeometry relative="1" as="geometry">
            <Array as="points">
              <mxPoint x="300" y="315" />
              <mxPoint x="300" y="217" />
            </Array>
          </mxGeometry>
        </mxCell>
        <mxCell id="yEMSVHI_-RF4RxutFohv-29" style="edgeStyle=orthogonalEdgeStyle;rounded=0;orthogonalLoop=1;jettySize=auto;html=1;entryX=0;entryY=0.5;entryDx=0;entryDy=0;" edge="1" parent="1" source="yEMSVHI_-RF4RxutFohv-1" target="yEMSVHI_-RF4RxutFohv-10">
          <mxGeometry relative="1" as="geometry" />
        </mxCell>
        <mxCell id="yEMSVHI_-RF4RxutFohv-1" value="Active Directory" style="image;aspect=fixed;perimeter=ellipsePerimeter;html=1;align=center;shadow=0;dashed=0;spacingTop=3;image=img/lib/active_directory/windows_server_2.svg;" vertex="1" parent="1">
          <mxGeometry x="340" y="290" width="40" height="50" as="geometry" />
        </mxCell>
        <mxCell id="yEMSVHI_-RF4RxutFohv-3" value="KeyCloak" style="image;aspect=fixed;perimeter=ellipsePerimeter;html=1;align=center;shadow=0;dashed=0;spacingTop=3;image=img/lib/active_directory/cluster_server.svg;" vertex="1" parent="1">
          <mxGeometry x="335" y="420" width="50" height="50" as="geometry" />
        </mxCell>
        <mxCell id="yEMSVHI_-RF4RxutFohv-39" style="edgeStyle=orthogonalEdgeStyle;rounded=0;orthogonalLoop=1;jettySize=auto;html=1;" edge="1" parent="1" source="yEMSVHI_-RF4RxutFohv-6" target="yEMSVHI_-RF4RxutFohv-38">
          <mxGeometry relative="1" as="geometry">
            <Array as="points">
              <mxPoint x="540" y="470" />
              <mxPoint x="540" y="500" />
            </Array>
          </mxGeometry>
        </mxCell>
        <mxCell id="yEMSVHI_-RF4RxutFohv-45" style="edgeStyle=orthogonalEdgeStyle;rounded=0;orthogonalLoop=1;jettySize=auto;html=1;entryX=0;entryY=0.5;entryDx=0;entryDy=0;" edge="1" parent="1" source="yEMSVHI_-RF4RxutFohv-6" target="yEMSVHI_-RF4RxutFohv-44">
          <mxGeometry relative="1" as="geometry">
            <Array as="points">
              <mxPoint x="540" y="470" />
              <mxPoint x="540" y="595" />
            </Array>
          </mxGeometry>
        </mxCell>
        <mxCell id="yEMSVHI_-RF4RxutFohv-6" value="OpenID Connect" style="rounded=1;whiteSpace=wrap;html=1;fontSize=9;" vertex="1" parent="1">
          <mxGeometry x="412" y="460" width="80" height="20" as="geometry" />
        </mxCell>
        <mxCell id="yEMSVHI_-RF4RxutFohv-7" value="SAML 2.0" style="rounded=1;whiteSpace=wrap;html=1;fontSize=9;" vertex="1" parent="1">
          <mxGeometry x="412" y="485" width="80" height="20" as="geometry" />
        </mxCell>
        <mxCell id="yEMSVHI_-RF4RxutFohv-8" value="Account-Management" style="rounded=1;whiteSpace=wrap;html=1;fontSize=9;" vertex="1" parent="1">
          <mxGeometry x="227.25" y="485" width="80" height="30" as="geometry" />
        </mxCell>
        <mxCell id="yEMSVHI_-RF4RxutFohv-35" style="edgeStyle=orthogonalEdgeStyle;rounded=0;orthogonalLoop=1;jettySize=auto;html=1;" edge="1" parent="1" source="yEMSVHI_-RF4RxutFohv-10" target="yEMSVHI_-RF4RxutFohv-34">
          <mxGeometry relative="1" as="geometry">
            <Array as="points">
              <mxPoint x="506" y="150" />
            </Array>
          </mxGeometry>
        </mxCell>
        <mxCell id="yEMSVHI_-RF4RxutFohv-10" value="LDAP" style="image;aspect=fixed;perimeter=ellipsePerimeter;html=1;align=center;shadow=0;dashed=0;spacingTop=3;image=img/lib/active_directory/generic_server.svg;" vertex="1" parent="1">
          <mxGeometry x="492" y="192.42000000000002" width="28.000000000000004" height="50" as="geometry" />
        </mxCell>
        <mxCell id="yEMSVHI_-RF4RxutFohv-9" value="" style="points=[[0.5,0,0],[0.765,0.48,0],[0.99,0.98,0],[0.5,1,0],[0.01,0.98,0],[0.235,0.48,0]];verticalLabelPosition=bottom;sketch=0;html=1;verticalAlign=top;aspect=fixed;align=center;pointerEvents=1;shape=mxgraph.cisco19.ldap;fillColor=#005073;strokeColor=none;" vertex="1" parent="1">
          <mxGeometry x="516" y="222.42000000000002" width="23.53" height="20" as="geometry" />
        </mxCell>
        <mxCell id="yEMSVHI_-RF4RxutFohv-28" style="edgeStyle=orthogonalEdgeStyle;rounded=0;orthogonalLoop=1;jettySize=auto;html=1;entryX=0.5;entryY=1;entryDx=0;entryDy=0;" edge="1" parent="1" source="yEMSVHI_-RF4RxutFohv-13" target="yEMSVHI_-RF4RxutFohv-16">
          <mxGeometry relative="1" as="geometry" />
        </mxCell>
        <mxCell id="yEMSVHI_-RF4RxutFohv-13" value="RADIUS" style="verticalLabelPosition=bottom;sketch=0;aspect=fixed;html=1;verticalAlign=top;strokeColor=none;align=center;outlineConnect=0;shape=mxgraph.citrix.radius_server;" vertex="1" parent="1">
          <mxGeometry x="227.25" y="190" width="45.5" height="54.84" as="geometry" />
        </mxCell>
        <mxCell id="yEMSVHI_-RF4RxutFohv-16" value="" style="shape=image;verticalLabelPosition=bottom;labelBackgroundColor=default;verticalAlign=top;aspect=fixed;imageAspect=0;image=https://upload.wikimedia.org/wikipedia/en/thumb/f/f2/Eduroam_logo.svg/1200px-Eduroam_logo.svg.png;" vertex="1" parent="1">
          <mxGeometry x="80" y="110" width="90" height="35.03" as="geometry" />
        </mxCell>
        <mxCell id="yEMSVHI_-RF4RxutFohv-37" style="edgeStyle=orthogonalEdgeStyle;rounded=0;orthogonalLoop=1;jettySize=auto;html=1;exitX=1;exitY=0.5;exitDx=0;exitDy=0;" edge="1" parent="1" source="yEMSVHI_-RF4RxutFohv-17" target="yEMSVHI_-RF4RxutFohv-36">
          <mxGeometry relative="1" as="geometry" />
        </mxCell>
        <mxCell id="yEMSVHI_-RF4RxutFohv-17" value="Shibboleth IDP" style="image;aspect=fixed;perimeter=ellipsePerimeter;html=1;align=center;shadow=0;dashed=0;spacingTop=3;image=img/lib/active_directory/generic_server.svg;" vertex="1" parent="1">
          <mxGeometry x="520" y="320" width="28.000000000000004" height="50" as="geometry" />
        </mxCell>
        <mxCell id="yEMSVHI_-RF4RxutFohv-32" style="edgeStyle=orthogonalEdgeStyle;rounded=0;orthogonalLoop=1;jettySize=auto;html=1;" edge="1" parent="1" source="yEMSVHI_-RF4RxutFohv-19" target="yEMSVHI_-RF4RxutFohv-25">
          <mxGeometry relative="1" as="geometry">
            <Array as="points">
              <mxPoint x="125" y="465" />
            </Array>
          </mxGeometry>
        </mxCell>
        <mxCell id="yEMSVHI_-RF4RxutFohv-19" value="Onboarding" style="verticalLabelPosition=bottom;sketch=0;aspect=fixed;html=1;verticalAlign=top;strokeColor=none;align=center;outlineConnect=0;shape=mxgraph.citrix.web_server;" vertex="1" parent="1">
          <mxGeometry x="101.75" y="405.29999999999995" width="46.5" height="54.7" as="geometry" />
        </mxCell>
        <mxCell id="yEMSVHI_-RF4RxutFohv-33" style="edgeStyle=orthogonalEdgeStyle;rounded=0;orthogonalLoop=1;jettySize=auto;html=1;entryX=0;entryY=0.5;entryDx=0;entryDy=0;" edge="1" parent="1" source="yEMSVHI_-RF4RxutFohv-20" target="yEMSVHI_-RF4RxutFohv-25">
          <mxGeometry relative="1" as="geometry">
            <Array as="points">
              <mxPoint x="57" y="465" />
            </Array>
          </mxGeometry>
        </mxCell>
        <mxCell id="yEMSVHI_-RF4RxutFohv-20" value="Helpdesk" style="verticalLabelPosition=bottom;sketch=0;aspect=fixed;html=1;verticalAlign=top;strokeColor=none;align=center;outlineConnect=0;shape=mxgraph.citrix.web_server;" vertex="1" parent="1">
          <mxGeometry x="33.5" y="405.29999999999995" width="46.5" height="54.7" as="geometry" />
        </mxCell>
        <mxCell id="yEMSVHI_-RF4RxutFohv-25" value="KeyCloak API" style="rounded=1;whiteSpace=wrap;html=1;fontSize=9;" vertex="1" parent="1">
          <mxGeometry x="227.25" y="450" width="80" height="30" as="geometry" />
        </mxCell>
        <mxCell id="yEMSVHI_-RF4RxutFohv-30" style="edgeStyle=orthogonalEdgeStyle;rounded=0;orthogonalLoop=1;jettySize=auto;html=1;entryX=0.012;entryY=0.593;entryDx=0;entryDy=0;entryPerimeter=0;" edge="1" parent="1" source="yEMSVHI_-RF4RxutFohv-3" target="yEMSVHI_-RF4RxutFohv-17">
          <mxGeometry relative="1" as="geometry">
            <Array as="points">
              <mxPoint x="453" y="440" />
              <mxPoint x="453" y="350" />
            </Array>
          </mxGeometry>
        </mxCell>
        <mxCell id="yEMSVHI_-RF4RxutFohv-34" value="Legacy Applications" style="verticalLabelPosition=bottom;sketch=0;aspect=fixed;html=1;verticalAlign=top;strokeColor=none;align=center;outlineConnect=0;shape=mxgraph.citrix.web_server;" vertex="1" parent="1">
          <mxGeometry x="630" y="120" width="46.5" height="54.71" as="geometry" />
        </mxCell>
        <mxCell id="yEMSVHI_-RF4RxutFohv-36" value="Federated Services" style="verticalLabelPosition=bottom;sketch=0;aspect=fixed;html=1;verticalAlign=top;strokeColor=none;align=center;outlineConnect=0;shape=mxgraph.citrix.web_server;" vertex="1" parent="1">
          <mxGeometry x="660" y="317.29" width="46.5" height="54.71" as="geometry" />
        </mxCell>
        <mxCell id="yEMSVHI_-RF4RxutFohv-38" value="Web-based Services&lt;br&gt;(ILIAS, HIS, etc.)" style="verticalLabelPosition=bottom;sketch=0;aspect=fixed;html=1;verticalAlign=top;strokeColor=none;align=center;outlineConnect=0;shape=mxgraph.citrix.web_server;" vertex="1" parent="1">
          <mxGeometry x="610" y="472.64000000000004" width="46.5" height="54.71" as="geometry" />
        </mxCell>
        <mxCell id="yEMSVHI_-RF4RxutFohv-44" value="" style="shape=image;verticalLabelPosition=bottom;labelBackgroundColor=default;verticalAlign=top;aspect=fixed;imageAspect=0;image=data:image/png,iVBORw0KGgoAAAANSUhEUgAAArwAAADkCAYAAAB6+PfwAAAKqWlDQ1BJQ0MgUHJvZmlsZQAASImVlwdUU9kWhs+9N73QEiKd0JsgnQBSQg9dOohKSAKEEmMgoNgVcQTHgogIKIqOUhQclSJjRRTboKhgd0AGEeU5WLCh8i7wCDPz1ntvvb3WWftb/91nn7PPuueufQGgKnDF4nRYAYAMUZYkzNeDGRMbx8QPAiJQB/LAGphyeZlidmhoIEBt2v/VPvQAaMLfMZ/I9e/P/6sp8gWZPACgUJQT+Zm8DJRPouMlTyzJAgDZh+p6OVniCW5HmS5BN4jy/QlOnuLhCU6cZAyYjIkI80SZDgCBwuVKkgGgMFGdmc1LRvNQ3FG2FPGFIpTFKLtmZCzmo3wMZWM0BtUoE/lZiX/Kk/yXnImynFxusoynapk0gpcwU5zOXfZ/Hsf/tox06fQahuigpEj8wlCvhJ7Z/bTFATIWJQaHTLOQPxk/ySlSv8hp5mV6xk0zn+sVIJubHhw4zUlCH44sTxYnYpoFmd7h0yxZHCZbK0niyZ5mrmRmXWlapExPEXBk+XNTIqKnOVsYFTzNmWnhATMxnjJdIg2T7V8g8vWYWddHVntG5p/qFXJkc7NSIvxktXNn9i8QsWdyZsbI9sYXeHnPxETK4sVZHrK1xOmhsnhBuq9Mz8wOl83NQl/ImbmhsjNM5fqHTjMIBL6ACfyAFwhDvR1Aq88SLM2aKMRzsXiZRJicksVkozdMwOSIeBazmdaW1jYATNzXqdfhHWPyHkKMazPamjoAnD6g0D6jBRsB0AQDQK6a0YwRAOQJAFy+zJNKsqe0ybuEBST0O0AHqkAL6AFjYI5+E+yBM3AH3sAfhIAIEAsWAh5IARlAAnLACrAW5INCsA3sBGWgEhwA1eAoOA6awWlwAVwG18Et0A0egV4wAF6BEfABjEEQhIeoEA1ShbQhA8gMsoZYkCvkDQVCYVAslAAlQyJICq2A1kOFUBFUBu2HaqCfoVPQBegq1AU9gPqgIegt9AVGYApMhzVhQ3gOzILZcAAcAS+Ak+ElcC6cB2+BS+Eq+AjcBF+Ar8PdcC/8Ch5FAEJGGIgOYo6wEE8kBIlDkhAJsgopQEqQKqQeaUU6kDtILzKMfMbgMDQME2OOccb4YSIxPMwSzCrMZkwZphrThGnH3MH0YUYw37FUrAbWDOuE5WBjsMnYHGw+tgR7CNuIvYTtxg5gP+BwOAbOCOeA88PF4lJxy3GbcXtwDbjzuC5cP24Uj8er4s3wLvgQPBefhc/H78YfwZ/D38YP4D8RyARtgjXBhxBHEBHWEUoItYSzhNuEQcIYUYFoQHQihhD5xGXErcSDxFbiTeIAcYykSDIiuZAiSKmktaRSUj3pEukx6R2ZTNYlO5LnkYXkNeRS8jHyFXIf+TNFiWJK8aTEU6SULZTDlPOUB5R3VCrVkOpOjaNmUbdQa6gXqU+pn+RochZyHDm+3Gq5crkmudtyr+WJ8gbybPmF8rnyJfIn5G/KDysQFQwVPBW4CqsUyhVOKdxTGFWkKVophihmKG5WrFW8qvhCCa9kqOStxFfKUzqgdFGpn4bQ9GieNB5tPe0g7RJtgI6jG9E59FR6If0ovZM+oqykbKscpbxUuVz5jHIvA2EYMjiMdMZWxnFGD+PLLM1Z7FmCWZtm1c+6PeujirqKu4pApUClQaVb5YsqU9VbNU11u2qz6hM1jJqp2jy1HLW9apfUhtXp6s7qPPUC9ePqDzVgDVONMI3lGgc0bmiMampp+mqKNXdrXtQc1mJouWulahVrndUa0qZpu2oLtYu1z2m/ZCoz2cx0ZimznTmio6HjpyPV2a/TqTOma6QbqbtOt0H3iR5Jj6WXpFes16Y3oq+tH6S/Qr9O/6EB0YBlkGKwy6DD4KOhkWG04UbDZsMXRipGHKNcozqjx8ZUYzfjJcZVxndNcCYskzSTPSa3TGFTO9MU03LTm2awmb2Z0GyPWdds7GzH2aLZVbPvmVPM2ebZ5nXmfRYMi0CLdRbNFq/n6M+Jm7N9Tsec75Z2lumWBy0fWSlZ+Vuts2q1emttas2zLre+a0O18bFZbdNi88bWzFZgu9f2vh3NLshuo12b3Td7B3uJfb39kIO+Q4JDhcM9Fp0VytrMuuKIdfRwXO142vGzk71TltNxpz+czZ3TnGudX8w1miuYe3Buv4uuC9dlv0uvK9M1wXWfa6+bjhvXrcrtmbueO9/9kPsg24Sdyj7Cfu1h6SHxaPT46OnkudLzvBfi5etV4NXpreQd6V3m/dRH1yfZp85nxNfOd7nveT+sX4Dfdr97HE0Oj1PDGfF38F/p3x5ACQgPKAt4FmgaKAlsDYKD/IN2BD0ONggWBTeHgBBOyI6QJ6FGoUtCf5mHmxc6r3ze8zCrsBVhHeG08EXhteEfIjwitkY8ijSOlEa2RclHxUfVRH2M9oouiu6NmROzMuZ6rFqsMLYlDh8XFXcobnS+9/yd8wfi7eLz43sWGC1YuuDqQrWF6QvPLJJfxF10IgGbEJ1Qm/CVG8Kt4o4mchIrEkd4nrxdvFd8d34xf0jgIigSDCa5JBUlvUh2Sd6RPJTillKSMiz0FJYJ36T6pVamfkwLSTucNp4end6QQchIyDglUhKlidoXay1eurhLbCbOF/cucVqyc8mIJEByKBPKXJDZkkVHG6MbUmPpBmlftmt2efannKicE0sVl4qW3lhmumzTssFcn9yflmOW85a3rdBZsXZF30r2yv2roFWJq9pW663OWz2wxndN9VrS2rS1v66zXFe07v366PWteZp5a/L6N/huqMuXy5fk39vovLHyB8wPwh86N9ls2r3pewG/4FqhZWFJ4dfNvM3XfrT6sfTH8S1JWzq32m/duw23TbStZ7vb9uoixaLcov4dQTuaipnFBcXvdy7aebXEtqRyF2mXdFdvaWBpy2793dt2fy1LKesu9yhvqNCo2FTxcQ9/z+297nvrKzUrCyu/7BPuu7/fd39TlWFVyQHcgewDzw9GHez4ifVTzSG1Q4WHvh0WHe6tDqtur3GoqanVqN1aB9dJ64aOxB+5ddTraEu9ef3+BkZD4TFwTHrs5c8JP/ccDzjedoJ1ov6kwcmKRlpjQRPUtKxppDmlubcltqXrlP+ptlbn1sZfLH45fFrndPkZ5TNbz5LO5p0dP5d7bvS8+PzwheQL/W2L2h5djLl4t31ee+elgEtXLvtcvtjB7jh3xeXK6atOV09dY11rvm5/vemG3Y3GX+1+bey072y66XCz5ZbjrdauuV1nb7vdvnDH687lu5y717uDu7t6Invu34u/13uff//Fg/QHbx5mPxx7tOYx9nHBE4UnJU81nlb9ZvJbQ69975k+r74bz8KfPern9b/6PfP3rwN5z6nPSwa1B2teWL84PeQzdOvl/JcDr8Svxobz/6H4j4rXxq9P/uH+x42RmJGBN5I34283v1N9d/i97fu20dDRpx8yPox9LPik+qn6M+tzx5foL4NjOV/xX0u/mXxr/R7w/fF4xvi4mCvhTrYCaHcA4KQkAN4eBoAaCwDtFgCk+VP99KRBU/8AkwT+E0/13JNmD0A96ibaH681ADS4o+3seQDk/qVFuAPYxkY2pnvfyT59wvai/wk5OgDZENOzJwT83aZ6+D/t++8eyLL+xf8TzEYB96ZuJP0AAACKZVhJZk1NACoAAAAIAAQBGgAFAAAAAQAAAD4BGwAFAAAAAQAAAEYBKAADAAAAAQACAACHaQAEAAAAAQAAAE4AAAAAAAAAkAAAAAEAAACQAAAAAQADkoYABwAAABIAAAB4oAIABAAAAAEAAAK8oAMABAAAAAEAAADkAAAAAEFTQ0lJAAAAU2NyZWVuc2hvdKCJ52MAAAAJcEhZcwAAFiUAABYlAUlSJPAAAAHWaVRYdFhNTDpjb20uYWRvYmUueG1wAAAAAAA8eDp4bXBtZXRhIHhtbG5zOng9ImFkb2JlOm5zOm1ldGEvIiB4OnhtcHRrPSJYTVAgQ29yZSA2LjAuMCI+CiAgIDxyZGY6UkRGIHhtbG5zOnJkZj0iaHR0cDovL3d3dy53My5vcmcvMTk5OS8wMi8yMi1yZGYtc3ludGF4LW5zIyI+CiAgICAgIDxyZGY6RGVzY3JpcHRpb24gcmRmOmFib3V0PSIiCiAgICAgICAgICAgIHhtbG5zOmV4aWY9Imh0dHA6Ly9ucy5hZG9iZS5jb20vZXhpZi8xLjAvIj4KICAgICAgICAgPGV4aWY6UGl4ZWxZRGltZW5zaW9uPjIyODwvZXhpZjpQaXhlbFlEaW1lbnNpb24+CiAgICAgICAgIDxleGlmOlBpeGVsWERpbWVuc2lvbj43MDA8L2V4aWY6UGl4ZWxYRGltZW5zaW9uPgogICAgICAgICA8ZXhpZjpVc2VyQ29tbWVudD5TY3JlZW5zaG90PC9leGlmOlVzZXJDb21tZW50PgogICAgICA8L3JkZjpEZXNjcmlwdGlvbj4KICAgPC9yZGY6UkRGPgo8L3g6eG1wbWV0YT4K8miNmQAAABxpRE9UAAAAAgAAAAAAAAByAAAAKAAAAHIAAAByAACKwxXDUpYAAEAASURBVHgB7L1XkCTJdabrJbKyMkvr6q7Wo7XsaYyWGEWA12BcLI3kPpB84wPNyAX4TjM+X95LAPtEoy1B8XAXpBlhJDEEsOBigMFIzLSY6WmtZWktMkvd/zsenplVXd1dVVMtptq9OyqUh4f7iczIL078frxs165d8y6maIFogWiBaIFogWiBaIFogWiBdWqBsgi86/TKxmZFC0QLRAtEC0QLRAtEC0QLmAUi8MYPQrRAtEC0QLRAtEC0QLRAtMC6tkAE3nV9eWPjogWiBaIFogWiBaIFogWiBSLwxs9AtEC0QLRAtEC0QLRAtEC0wLq2QATedX15Y+OiBaIFogWiBaIFogWiBaIFIvDGz0C0QLRAtEC0QLRAtEC0QLTAurZABN51fXlj46IFogWiBaIFogWiBaIFogUi8MbPQLRAtEC0QLRAtEC0QLRAtMC6tkAE3nV9eWPjogWiBaIFogWiBaIFogWiBSLwxs9AtEC0QLRAtEC0QLRAtEC0wLq2QATedX15Y+OiBaIFogWiBaIFogWiBaIFIvDGz0C0QLRAtEC0QLRAtEC0QLTAurZABN51fXlj46IFogWiBaIFogWiBaIFogUi8MbPQLRAtEC0QLRAtEC0QLRAtMC6tkAE3nV9eWPjogWiBaIFogWiBaIFogWiBSLwxs9AtEC0QLRAtEC0QLRAtEC0wLq2QATedX15Y+OiBaIFogWiBaIFogWiBaIFIvDGz0C0QLRAtEC0QLRAtEC0QLTAurZABN51fXlj46IFogWiBaIFogWiBaIFogUi8MbPQLRAtEC0QLRAtEC0QLRAtMC6tkAE3nV8edPptKuvr3eNjY2uqanJNTc3u9bWVldXV+cy1Rk3PT3tBgYH3MCAn/r7+x3T+Pi4m5mZcXNzc+vYOrFp0QLRAtEC0QLRAtECt4oFIvCugytdVlbmKioqXCqVclVVVTZVVla6mpoaA11gF+gNE9vTVWmD2pHRETc8POwGBwcL4DsyMuImJyddLpczKAaMmWZnZ938/LxN68BssQnRAtEC0QLRAtEC0QK3iAUi8K6DCw3cVldXmze3RR7cJsEtXlw8uh0dHa6lpcX21dbWukwmY0BcXl5u4Iond2Jiwo0KcgeHhszDGzy+QPCQtjEBweQDeqPndx18aGITogWiBaIFogWiBW4hC0TgvckvNt5b4BTvbfDgMgdyq1Ly5qarJE+oNm9ug0C3tbVNXl0PvHh0kTA0NDS4bDZrx9Dc4KWlXMoBYHNTUyZlAGyHEo8vwBu8v0Dv6Oiom1K+4PnN4/nN5wteYOA5eIFvcrPG6kULRAtEC0QLRAtEC9xCFojAexNfbGCXKWhxAVe8tszr67w2t4V1PLp4bwW1eHpTVYJjgWxKQJyuThsoI3lAlgDQAq2AKeCMvIFj2A8IA7A5TfkEZIFYANe8wAJeABj4Ne+vlocTDzDraH/JyzExRQtEC0QLRAtEC0QLRAvcLBaIwHsDr0Tw3gKbeFpLPbhBi8scKC10PGsCcBcCb119natOC1rlsZ0RyOZyeUGt1+Dihc3nc1rPmYcWuQJgOjs7Y+erU6c2YLmmRO4QPMiAMOcOXmBAGeA1ry+gOzwk4C0CMDA9Pj4m/e+Uywf9r+AXiA4AHSURN/ADF08dLRAtEC0QLRAtcItaIALvDbzwoaMZulqiKeC5XdzBjHX2AZ6mv0XGgKQhFSQNaZM8zM/OmecW6Ozv73MXLlxwvb295ont6+t33T3d1ikNre6kwHVGwFtRXmFSB8pvamk2rS8SCLzIAHZbW5vbvHmzreNlBtAB1/x03ry409OCWQNq7xUGpEcSOQTRHoIMAi9wv0CbfeThmJiiBaIFogWiBaIFogWiBa6XBSLwXkNLA4hLeW+DJxcPKtpaOpiVhg8L0RTCPOhvkRzgOc3Lgwt4Ih/A60pEhamJSUfEBTy4vT297sJFD7xDg4LNvj53sfuiaXOnlBevL8CLhhcdcLbWe5Cbm1tca5sHXkC7va3ddW3q0rzN1Sc64FD3KgEwcgn0wyl5oSsqKt2svLkALR7gPgEvoIvuF/AdAIC1HeBGHmHgnMgmAjQzjzrga/iBjEVHC0QLRAtEC0QL3KIWiMB7DS88UgA8owBtgFe8uCwDlGEiegLwi3yB/EBlAEvmJAAR722f4LVfHtuBgX4D24vy5LIewosBl2NjkhVI0jAtMJ6VF5ZjgWLzzEryMDunSAuCZ7lsDXqpJ+ALuNIJjjqktQzMogtGL4zXt6UVIG4reICB4w2dG1yzokAgiwCCVaTkEuoEB5gbwNKxDVmFrwN1A4jNA5x0iguaYLbTRo6Nnd+u4QczFh0tEC0QLRAtEC1wi1kgAu8XuOAhykGAU4A1aHGBRiQISBFMMpDEwl3Kkwvs4r3FuxmiIAQPKOt4TQFFvLc9PT2uT1KFgX6/fPHCRYPfUe0fZ1JewFbc6cr1t6KMv4rMwD+dQ5i7aGIL7EuusgSEdazW7Z/m1K9Bsgegt7W9XYAryYPAHflD54YNNgfi6wX2BS0w0MwkLzAxf7ERZ0LPS1sAXjq6IXMIwMs8ALsBs/KWen+xCetBB0x7YooWiBaIFogWiBaIFogWuJoFIvBezUKX2Q8gAnEALV5bYt3isQ3eXGDQIFCgiCQhwDBAHKCYbQF28cACgGhvgVrADw3uxYsXzauL5zN4QIMkwCQNdBATCJoUQMCMVEFxxgxyy1X3igRcPeqCtCT/l3HUZoBgrZYLjEl4fg2MtY1c4HJl6aAWAljqzYRHGKjNygYh7m+7gBjtL/GAkUJ0dPo4wA31PjQax+gE5sUFXksnbAAMj45IBqEOcdiANjO3qBDJemg/4BtTtEC0QLRAtEC0QLRAtMDVLBCBdwkLAbNL6W8DtDI30Ev0t4BtANwAvAAwIAwQo+MF7ILeNngvAVWWAT20rsgVzp8/X+hsBvACwHh2AUHykf9KYb+AVA+qwGoAXr8tbA/ACy5OJ8BblgAvsGvQm9ilXAdxXEjmU5V9SCyTF4DPJh3vgF1iASN3AH472ju0LlvIRniF6wHfmqx5fdNBPpF4g6nDjOw0oXYGiUYp8AK9BeiXJ3tKtigF5uAVZ1uURNglin+iBaIFogWiBaIFogVkgQi8S3wMkCoAqUgS0NcCtLzOx4Mb5AmsB6C16Al4POXxLXhvpYklkgLlAGLAGkAbPLalHlxe7wO8yBGAWsC4dCp4cNHfalrwKr+URmmLKBTQDVOF9oflMAdh8e4CvHh4WTbxbQnaarOKMrzVzjBPlkqAF2+tPRwIelOVKXsQwGvNZHIGwSzL2AgvrwGxoJh5m7zAwDCA3N7eJi9xvdmwTJQ9Ky81bQVeaT9z82jLNsD/kOxpU+L5DmCMjfGGY78rPRjQ5JiiBaIFogWiBaIFogVuDQvcksALoBX0txqkwTpsCVarGLBBoIr3tjpT7WprahcALuAbOp0BvMAwkEsKQBa8sEBaTrFvJyY1bK9gdgDgxWOLREHzAMB4cFnmNT1lmJwACBXwLR7CN7BtmNuJtcK6Mai4lOVyzYHbSq1UaSGlnZWCyEqbl1vbOQDgzc9psAmdawbA1LJmMKwhrnl7lQfwLSJvsk/bLakc9lknOM2Fv1YXvLXaZWWVc27BMN5u0wELdAPw4gnHG9whb3CTYgzjIa+prTGZBKCMfe16aJkHCK4dcYaJ9gDYEvkB2DXgVUSKPoVkY7nUI45dgd9wjcI69l3w8OBbFP9GC0QLRAtEC0QLRAusMwvcksCL1xWIAsAaNQwvIMvUxLxkva62zjyTaQ3qUNCtCsCAMNaBL+AJzyweW7yL3d3dNiccWE9vj0kUgN0gZxif0Kt4eXEJLRY8lkQxmDPYBMA0JXgZ4JfPnEGt5oBsWLbtWgme29J5hXKltaGmwrlsZblLa6oWMGbVgYw4vhVanhWpTqr+E+rkNpFTeLO8Os3lBe/aAcSynzHT8ACXQq8BLienJrIB+/EUmx5Yy+zHNr7Tm18mL1pg7B4AtorObFU+kkWQRADEwHBHB1II6aDlVQeIOzs7zcMeQrQB2LMz3gNciAesdvCgwcMDDxk8SIR4wOYV1jUiRvGQBstgnbwRenWxYooWiBaIFogWiBZY5xZYl8AbJAkpQR1gitcWSA2giucQ2K3XCGUNAtymEshFtoDWtKGh0UYvw1PJq/UpASGAWoiBq9HLJsYnzMs4rA5WgwBv70LJQgBePJHhFb1JEsyzqE8WZKgEGBY6jSV46ffor8AuAC5AK341wGWOXCFlU5mr0oa0PKlVAtuqCk2SZWRT5a5eLt7aVIVgt9xlZI+aBHiRXgCqU/J8TqgtowpjNj4leJ9SSLEZeX113ryId0ohxvKaZswTLMiUW5h9yuJmgV1NgLHfpv2qjzVLf4BegJhknlRtK43+AETPCvDJUaE6A72NGkUOry/6Xzq+NTULeDXv6OiUd1jhzxrrzbOelfc9W52xa8QoczyUANJ0iptT2LVxXZvhkWGL/8v18cALAPcJhDUIhjrG8aDCCHReMlEcRCN4gPEKlz50WEPin2iBaIFogWiBaIFogS+dBdYl8AK22awfvQyPIZ5bOkt5L65CagG4glo6T6WqpT1V56lSDy4Sh3Qq7eYFeZOSJACzeG7pRNavcGB4DRlYgfUejWA2IrACmqYUMQHQQsrAei4Z0nd6RlIFleXhCS8unxMwT6irEAkeCQFFdhQ9vD5HArhaAXIrkymlozLahge3VuRbJ7Ctz1S4+mzK1VZLPqCprrrKNWY1NDFeVNFyWlCJp5dQZZZ0PDidF8WOy+M8AfDKyzsxreGJRbFjuRk3NAEMA8Vz2qcpN+cmRLsTouWcCmHMtGlVW8pi8wYbBGsbbQWoaaM1184ksJ/3Ugc4mO0AL0sVJnuo8A8luh5ArMUEVhtSBunSBeua1jbUCoKbBcSd1iGus63TMXVo3QBZDywcNyNIn51V57UZIlggaSAiRE4PLdJI65pynXgQ6euXFlgeXwCYOV7hIJFAngL8LpaW0KqYogWiBaIFogWiBaIFvjwW+FIBr3kMZVskCYXOYfLoAaul6370spLOZqXAK50onafQilbK85mfEwQJhLynz/f6Ny/uZF5xbf2oYQAunc165cElYgLQ2ytPIRKG/r5evUIftytusgS9ZrcoB6I57+AU2Sl5yLUl/WGbvfAXxAK9frtHQ1a8V1dOWpcSCMo5q0mwCrBqqtaU0Tqg26SdDebJda6+OgCvPLnpSgPfWgFjRu2sVJloevEIg7tIJ6gD3nA8tDkNUDEl0J1U/fHqTmnjeH7WDckOowLf8TwAPOdGpmbdqMB3VNA7rnwTM+SVV1hTXp5r7TIARt5AueJ8A1tCn9HicgDfvL4e72eVb14GMFthBkyjhBVYpgMby7MqrEJe6epaxQSWF7ittcN1tHW4zlYPvgBvW6v3ClvnN6BZIdRqsnSaYxlttvTAcoVzLmQkQG+/pCeDQ9IDDxMKzQNvCIc2NuojYyBH4QGG+MYcBwQHL/AlnQipd0zRAtEC0QLRAtEC0QI3lQW+dMAb9Ld0GKMDmek8JT+orWOd8GAt9lq8Tus+/m1x5DIvadC6OlBVllfq1X3ODY0NCl4J/3XeAHZE8MNQvBfOXbDOZUODGg4X8BH0IGlAL2reXK0jc2B5TrFvE04zz6Z5N0VpbCuAHODHlFx+4tsiSQheW9bLtZdjAFImOWYFrmXS3ep1v1ZqBHF12WpXJ3Cr03qjoLZVE8BbXT6nSV5cHWMd1VQwsMxyBeUKRstVAcot0xzI9nXTFp0UOMVLi7d2Rjtm5AXOC05zNqlzm+aT2onXFwAeFQwPyyM8ODnthjWNTHpPMFBMPvFxwfNL5zitWgJ6SayD3ACv+Xi1OeRhHibqqFNbHYFfoDelzoUMZpGuktc3JSkDc4PbWj3ISJLS2GSDY7S24gkmPBqd4ugoJ31wS6M6xWWlJ+YRQO0T5Ofl1c7pOgKxjA7n9dX+gSfEAB6QDALvL9rsAMReEhGjQejqxBQtEC0QLRAtEC1wU1vgpgJePH9F/W1Rcxv0t6GzE/pbPLTobRcCL/rPZtPmAkCUBaDSqx8vnWlwWZfkYHJiyo2OKXrCcL/r7utW57Kzrl8eXICXKArEwx3QkL3jo+N2vHkidSkpk2SvuUVlHhr93HYk2AbcsihGK0CsQaY2s41SqnSwVAjy2AKmySTvLd5cYDWTyBRq0gqRpikr4K0V8OK1rZWnsk6e20ZNWRWWEq6CcOXy3AK45cJIlsuYBLuqsOqTgC710vnhSPtjjZAeV+dEk2u6XNVhrlwlCQxn0TErI97bnDzAeIEnp+fcGB7gCWBXwx6rt9vo5Iwbm5Q8QhknRdDmKVZePL/KrkmyB5uSZdWDTnEetj0AYzZl9RCseQF2qayZ3mptbTFTz2mdg/SnshJPLp+NZChkfRba1eGtrQC90gYLetEJ8zCUzdZIJqFIG9L+2hsCvSkgfBoRJXj8AHx9JAg/8AXAa9AriQuyBwbIGNNnaDIZ/CN4fs0bnAA0HuAoieD6xBQtEC0QLRAtEC1w4yxwUwEv3lvkCcAI8W7x4FonMkkSQjiwEAsX6A3xb9HcErKqspLjKwWlgjbBHZALmPQJXL0kgeFsh10v6wzJK6/d2Didl8bUAW1MIDzlZhMg9qN55dy8aGxOr+tn5pEqALYBuLho+Ag9M/Ja3m9JGJK8yT5VR0AaJkkUWNdUI41Bk8S11rFMcFsnqK1DfysPrvfoSo8rDW614LZSUFwp/S1tTOm4FOtqY4XqWyGoMtilPjqveYoNdlnXBkCXujBP6sUGtgGU82qTnwOasp22M80LdMsEvVB90ROrAwTDZbpWdFzLS9KQ1wIwm5Nnd1IQTLQH5BCjguBBaYBH0AaLeE0KkUMSITmEjpE6woCXctQ9zMOvzotHGFtbPZK6qTa+wtrHIsnaUrKZjn9lFcRC1sOSPkcMbFGdRIWowqZ4x+XdpbMi0Ev8384NGxUFos3V2zqd4zqk+W5SWLqMpDPq2CfbzgjakTIAsshfmE8T2UKSCGQQeH0LIIwOeGjQhn4GlkvDzflax7/RAtEC0QLRAtEC0QLX2wI3HHi7urpMkwvohugJeG8B3KWAl45n5MPTiucM8MibrpI5o5aNW+xbXjebd07euF5JFC5epNNZvzS4hA8DgHsMhvM2clneIjHgBUVaAFHNAYxaooMXc9aRKhSpyzsckST4I4rkxTaxqe+IlXhv8eJmBImZRH/Lep2kCC3SITRItkCnszqBbb2At1a6hIzAPaPOd9VaTum4Mk+yglB/HiCakAmzOXUbE5CZxzYBWupvoEvdAuwm9Sxwo46nNepDlsBtsq6NbOeBwTS3sjMtpO2wPtEUKgTdPiauroG267/BMU5kQprlVZ8pgfCo6jY0kXfDQQIhz++gKHdY8zFVGwgmX04H5kS4RIXIKcICsYG12bzCSCMAX18r/U3qx5zka+eX2UStfX62qcJUWlupf7lsnk46NNYJelskf9mwocvCnvFZo9NbZzIUMl5iZDN4gTP6vFkINYv04SUVvHWYRcOsEGj2OUPuoM9a6PiG1tu8wAqPNqk8vGUwz68+rzyIAct4hGOKFogWiBaIFogWiBa49ha44cD7jW98wwDWoilIooAHF9BAvlAaOSHIGtgGKISe9ENDA/Ky6RWzYKN/oN/1KJpCT0+PxcAlD8PU0iGNCUlDTl7HKcEHAILcgegJgPO8QAua8jpagNcTVYWACYBle2kCozQMgnlu2U8CQlkWx5r+FklCbaZcHtsK89rWyuNYn5EOV22oMUkC3t0ydT6TrEEgaxpcFUJ4MWQNlOWBVedW2XTzmlU+q4lxnPAOPYDaAAcbDWpGTnZb8ofaemGbdpAdNQBwWFAF2AHJTrWf/CYz0ZxwYrTPwoppodTTnZjK4JLteIzn9KAwI6spypnJG8ZVxzG5ckcFw2Oq84S0DGiBhwXEY/IAT4pwx7U+putEpIgp5Z2Qx3hcTAgAA99WZ52MOiOFYD0AL9tYxxzMmTAa20lYzdqiuhMP2HTA+oxlFPmhCkmDvLlEd8gw4Ijpw/1w0Rs2bLC4wOFNQ5gTH5g3EbyV4DPEg5d5gZknOmCiPPD2YHhYunB1dAySCN42nDp1Sp/ZYV+5+DdaIFogWiBaIFogWuCaWuCGA+9f/MVfFIAX7y3eXeA26CGZA6p40kyDq9fJ6CZ7pbcdEODy+nhYE9A7IKgAdgkXRgSFUQ0uQCzV4K00EBKcGA0JytBpGknqr0UtEEyFjmNkAviATkKBIUEgygFHMGIZUAuYZjQxR3JAyK80kQS0k85jWckV6gS82cRjm9Vr9VoBb406XWXR3qpANLxpYVlK52aqCJPOA8DOCRDncZ3q3Aa8/KViSbKwZkXCszxhX5iTveQQ21yQLoiUDQqTDAbO5Ne5WWYzkEvYMG8tj56cUifzf2yuvMqHFxUZBJKHeU2zZRVuWvCbU3lTmiZl/ynlV982hTqTt1eSh3GFPQNwkUIAvGxnHS3wiHWCYxQ4efNFs0goCJk2pXLwAiO1AHKRQdikZdrDRLVoJ/PkMUFLSmqUqmr1NUDXJgsbp1xsT+uBpFafQ+L+MuAFOnFiNQO7yB2AXT6ryCLq5RmuEfjyIMZDGjKb8LBG2Xz+iPYxMID+F+gdcufOnnWHDh1yZ8+eMwgGjGOKFogWiBaIFogWiBa4dha44cD7wx/+sCBpwFuGVAEAAFrxiOGlBWLPnDljsXD9a2O9Oh4elPds3L8mRlMZNJZ4cZMpwK5HH5GMyMfjDwbVuiU/55U3YMR+wM7AVnMgF/1tWnvwwNJBrEZQVyOorREF12qO9tbHwE27BmlE0eCmBL9VOjitiQ5oKAN0mJc5aF3KANPdor2tkFyiXEBXLogjkgI1oh4GnwB6SAUaDRs0D7vD3I7WZt+sYsbC/uQQ7fdgSLv9Tn9ef0iAXfAWCETYUbrf5wpHFquRkKQaoBbYpA5vmgcgxTNLTAs6wYlpTf9LRzag1XdoE8iyrAZMCfbpEIcHmBjBo5pGrJNcEhoND7Ay40XWAHE+woTaEjrCGfTq3B5+i3XVJqsmDZo38TJzbwO2Vehi0YktyGwAWAYvsaGnBbaMVMd6fUO9SSDQALdYbOB2t3HjBhs0A1hGK5zJZPXAoA5wyG70OSUKRL8kNcdPHHf79+93H//6Y+sg6e0Z/0YLRAtEC0QLRAtEC1wLC9xw4P2Xf/kXg1ZGwsKLC+wCtbz2Jf5tKfACvuwbGVVnIGBXr48DpxTAb7GVoDSlAsABO8m6bdeaz+K9e0BppYBUigPz3FYLfoh7m9VUJ+1qA5PpbRnBDOBFf1uWxMAVBNVo9C95cCnDADc5H3hpUG1g7RGMyvsoCprjxbV1akUdPYAVBqbwlfQ86bMs/Jvwmm+dilL+wiblLNgpOSrs9xhYzJmcpsReCehygFLYz7Idm5wnlFCYW8YEepMD1cqkXsyDeCTZCRzboj8GScQ0Gll5fScEi0DvqIVAm1EnOPTBc25IAt8hOscZ9Ap8ld9iAsuW6IHpSJeXXoOYwHj5E6tbI4BezsfzROkzBVVYbmLgEoZBRgu8FPA2a5Q4QqTVSSJRrVHhGKoazzDeat5AfPrpp+4nP/mJO3zosD2kEdEhpmiBaIFogWiBaIFogbW3wA0H3j//8z+3wRyOHj1qnq5Cb3f0twJgvLTWySeRNASpw4xi34bQYFc0i8AG9gJ45VS1ZZtrI3PkCsgW8GAiU9DAa+ospti3cuda6C91HquXx7ZBYc6aMmnXoqkBaYI8t1nlrS6bdekySRKEUzrMQNd0rgIsO4+RZhErg58xzD2JqnLQl/5Q19IUcJxt1g79sbnlL83pl0MJAWhDDqtGWNE84VedkYJKCtNiqIM/30Lg9QcWMxXPk7RIB5WUpsJCaSUnLz1DaeYkq2mArY4efvH4IoEwKYOY0HTBc+VuVJ3eBoBgtL+Kp2vxgaXRHldnuQnps22gjElJJVSADYShMgP0Um/wkrKZl1ZDq8tKdN7D+xskDMxLJQ2ALtDb1q5oEJJG3H77He7hhx/W8gbz+h47dsz9x1tvub379pnXl897TNEC0QLRAtEC0QLRAmtvgRsOvC+99JJ5cgPw4sHF2wvkArvoIEnhlfPi9SuaJAEowLNcRGPyBK3YaGXS0GYkO6iR57Za3lhgVcoEQSydzOS5lbi2Vhtqla9OnZkaFPu23mBXo3dpG0P1VgmTUvMKC6aQZWUCcKI8mN4WlyGEGaakkgGqbK7z+XWBYthBfZM6+0NKcddvUVUtBXWDXyv96z2lAWjDnsI5wgY7PycuoLftWVwu9rZqFQoMdUpqb+VwaLGcQlZtteraHyveGu1XVY6KCFrhZG/iAU5so8aWCyrnpQk2GYTqYlIIvL96nFDIX4U487A7Ifi1Tm/qjDgh4J0UADMq3MCYOslJCzytmhDxIS8vMODMyHCMEkcnOtYv6bgXKnS1eWnbSvPqXABwfYOiQbR4LfD999/vXnjxRffA/Q+4DYJeZDs/+9nP3CeffOJOnDhh4c1Ki4jL0QLRAtEC0QLRAtECa2OBGw68oTOaRVSQhwsPLqC73CFbi7zhl4qw5YGMrQAvnlw0uMgPmjIp11pX7dpr064jK++tALZaXloLHQYIS8+Q1QQYK7sNClGNJlfrdFgzna2ASUFa5R5Ut6gk5q1hGhBn10YLVgXmYVn7/M6Qw8+1zbKyRoZk3bKWHGDrymhzO7JkuWSjL6tQYpLz0hk5woPEpXv9lvCAgbQiJJaKa77uYXc4a5gb1YYDk7kdqwxcFw0Ql2TxwGyyB22nvGJ84ETmoLP6CBAefJE9+Mnrgbkks7oWs3rgwHNLLOBBhXkYEwzndTYiQ+ANHpJXuF9Tz3jOnRvRaHuCZnS/eH/XLKn+6NEZ1Y94wOl0tbvjjtvdCy+96J588kn3yMOP2BuKjz78yO3evdvt27vPNOprdv5YULRAtEC0QLRAtEC0QMECNxx48eiGASLQ7wK8SBUCaC0GsrA9wKQHL/83aEStdeaq1BaBD5IFgDerhUZ5b9trqlxXU9Z1NWbcprq0a5WOoVYZ8O5mNIBFNa+qBbd4fSuEQQCu/IzQoQ1EwEAUDEgwrzkDU7DdaqA/wf8ZaqS9tp/D2WaT38keawZ5bAo7k/1sK7SXzEqXeGD9mS/doRJLTuMPXvTXzqm6M79cKpw/IdrA3+adLTnIykrWrTyd3M8vLd3qpc143Ss0hTaRs3QCQAueV8orPAx48CUaRLnCiZUJLMOkRS1rv/YR45dhjwHeSUkgRuTi7Vent56xvLs4OulOD0+6E4OTrl/6YDq9rTXwYg4+Dyl9pjLS8N55153upVdedk8/9ZR75NFHdcJ592t1WgN49+7Za7p1jokpWiBaIFogWiBaIFpgbS1ww4H3oYceMknD4cOH3YULF9yoAvUToD+AVgBe5mwL2z0ZBagT4AgsDJYC5cljCz4Z8GoH0EsIsEa5bNtqUq6rIeM2NlS7jfUp167RzJo14EO9wodl1eGMMGMVgm6Ns2XQyxC9hAcDcm2oWOpikwrVaTilTXZualFMtqY/hTzaZdmSLOxnstqGTLYtyVXI7BcCHCaHJ0erzEI+v8fqV8y08KTJdjsvf5Quh70Fe/tsqnvxRB56tR7KKC768lhfVOGwineXZQNelqmDoJqiYGs9Stiyv4o+gzG3QS+5/TVnqBARrsBXcYuZ9NBSrkkbJGEoK4zwBuwOSeLQLzdv96g8u8MT7oyA96SmAXl9Vw28SdtVoWLy1bPPKqP+MWpg18Yu98gjj7hXX3/V5l0bN7lBhSr7xS9+YZKGI0eOWFi9YiFxKVogWiBaIFogWiBaYK0scMOB94//+I/th54f/DOKTzqgyAxEYcDrOzWpEakmfeQGlumoVgAwIyNxTQJgpcBbikpAFXDFhKSBzmaN8ui2Cnpb5eltUc+zlkylgBedbqUkD/LGCZiqdKCFIZPEgc5sZfSgF/gGby564KKH0gMw+8XBSvoD9CiZnFfzhIHsmGSXAR15OCR4Mg3q2GhAZ7OkqOQoK98yJH9oeWk+vxngXZDCSUs2koNsi3KW5NBiyXF+sQR5daCtlRRA/f2qroIdYJmKZSar7MJ+TJThy05soX1cQ+0qTJ5rlUtQC93TJZDx5abluUXXa3GFtVuPJhabVxHLbOjiMS0wlPGQhjQeZpQ39X4b0GAXPWNT7qIkDRfH825Eet8gaQifr/CgVah4aQULG30FkS4QUo/BLPDkMpiFDX2tiB1ZxeVFw7t582Z37733uieeeMJt3bpFIc6q3cmTJy1Kw749+8y7i3Y9pmiBaIFogWiBaIFogbW3wA0H3v/1//0v8+iOajAJPF4MAUxIsgvnz1vUhvOa4/k176/ylJIRmESMU+bBIwioLEIlOwTgtU5rApcqxQtDk2uTACqr9VrN66XbbVKg3UYBcKN0vo0aJKK5Jq1Oax6Cq1UAg0soKpmrElBV6lwpeYLLTTyqUdvwANNxTdvx7AFsDIwA9EJ/MBP18OzERttcgDq/xTYnsKhlvNoho9+18G/iMmXmy12020ovbis9B1vDuofTpUooHsvS5c5TmosyfXmlWxcuUw628MBb3Bc8wlaG/tiId3jcZfdynjySAS1mNKDFjHzwuflKga08uZIvjClCw4h04MMTU5Iy5DWssUZyU0iHody8G9H+CQl7CVdG6LJxeeztGG1nJDfOZ7YmlpwSUpVkqxk2eNB1Ob3R7ADLagOlZAS3DEzByGybN21yW7dtdV2ad3S0u9aWVtfYwCiCGrxCURuA4zENRrH/s/3u3/7t39yBzw8UOmn6EuPfaIFogWiBaIFogWiBtbTADQfeH//Hjy3IPz3aCc6Ph5d4uwa65y/Y/Ny5c/L+ntHQwQOK05t4fBkqWFPehgimo9u0dVjywBvgzyOLf/ntt4EzTGIozQXMWkbfm9ZUo4WGanmABbxNkjk0ZRWGTMDbILlDnWCYqA111RomWOCVVQEZwVFWwF0l3K4gSgO6XjqyecI1iAJ4DZI4myApnD+gJmAYGEpVKCS2k9dqycLlCJJCyVUCYLYh+eOxu7jlMtlU/OKcxWN8Pfz65c5TzO2XSqtbOGeyQHlhKldGX77fuQB4tWeOesnOFq1B8xmtI1WYlLN9crZc0Fqp8GROERlm3KBGbRtgVLNxxXLW8vCkgFcZ8fKO6ZoQpQHZhK6QYNkPUEHnNmQTJLy76H9JNvIaFy6pqHb5IYkZgEKf1Wp1QstqUIma2hobHbCxqcExAMVGAe8mgHergLery4C3rq7epSoUuE51mJySZnigz50+fcZ99uln7le/+pU7o+WYogWiBaIFogWiBaIFrp0Fbjjw/vVf/7WGZq1x7W3tNsQw0JvLS84gSQOd2JiPjIxYnNLubg/CweuLJ7hH2xheeHxiXB3eNBCFbAVClQlESQwZDPZ6jLFNheXw+to8jcqTEs0RoiwjTy4d2Go11cgbx2hqSCHqBbtNNRWuUZEd8AA3K0xZc021q9P+tM5TJZRC91sm6J1VhACLEwwpJScHFkvr4WujOoaFJeYGYUtsX+6mxRi70BILS6EepaDK3svVeeGRV16zcmmlNdQDLnZg8v75cLyulE5INiQK88gX1OFrVp0ICUs2Je/5mPS2w+pkNiRZwqDikg1OyIOrWLteriDJgiIu4L3N6eFjyry5CkGWwC6jt9mAFzqBro55jzmXVSupQvhMLJA0qKJ8nLKSKjQ3tRjYblBcXcB2+/bt8uR2aXS1NtfQ0GhxeLMaapgpxOSlzGnVm89xd0+3O3b0qNu9Z487fuy4DUAR4++G6x/n0QLRAtEC0QLRAtfGAjcceP/oj/7I1WoEqg0dnQYMFsJJgzzg8U0zr0qbRGBSr6kZlCLA7gV5fy9cvGDyB0atGhgacKMCiglB8sT4hAatmDQP8MysPL94XZdMkEyyQ948xv6icxtDCVs4Mu0LQwqLdTUQhWQPJnlI5A7yAAO8aILr1Puqvsq5JgXorRa0lUkXauHK8BouPncJYV2yryQv+wKAlWxe0eJKgJeClwLeFZ1wicwGld7NbSfw7fKm52GjaCHl1E6u1rTsltPKpEhzXJvH5IodkQ53UKCLBpf5sCIuDAt6GXmNQSbII/5VzF3fDikdNNyw9+TOqWEG0XaVqSRgrX9WL39B7OHCQolV2ucPYM0k4Fqth5vGxgZ5bDs0ddpAEgDvjh07NJzwRhtpDc8vUUbodJnTm4dcbspGUOPzODoyZgOs8PaCmLsMK8zyArCmWjFFC0QLRAtEC0QLRAusuQVuOPDedttt9nq4oaHBNJAtzfKgtbbakK2tba22XFNTqxHMKkwfOyWI8B3aJs0DDNji4cXbe17Sh9NnzrhTJ0+548ePG1BYqDPJHRYm70Us3QYYGohpI9BrkzYgd0DWyeSHHJb+VytZeR1r5AFm3ijIbcmUuy5FfLitpdpi+9YoPx3fLGZvyYnszMZXyqDk/2rumaskp9/3RYF3QYE3YCVITEpPTZv95CUlYZ08ADeyhSmBbr8eGk4rTu55xdLtGZ9xfdLk9gtuR+Q9R3+b1zQnL67pcgW6aHHpfEYZJk3QHHhGsmCwC/QqD4BdLs890MvDEG8B0O8S5SElyUJdXZ15bDcIZLdskTRBczy4jJjW2tpmURd4IMOLS16kDTyY5QW7A/0DAtt+yRb6bWAJoLa3Vw9k2k4Eklwu58Y1LDbeXj7HMUULRAtEC0QLRAtEC1x7C9xw4KWJlZWKfVtd7eqldWxubnYtrS2uvVWdfRLgbWxscnXyAtfUZF11ptryVglMOK6ceKsCB7y8eHzRQxLx4bPPPrP5qVOn3PDw0CWWNO+egCckIAi4xONICmG9yvDW+i02ZxlUwgtMnF6mOv1pFfBub6pyD3bWuB1NGtRCOmA6wpVbdAdfBmfzqK2DklNTnk3FqmiLT7ZddfoypysDb1HSEFoJrE7Lyzoh4D0t0N1zftQdGZh0F7TcRwc0CXEZQIJHGECW+MiYDi0ucMsyJqPTIDIE1v2kRxodAPBWKHZvdfIWIaWoHLxJAF7R49bq4ao5GRkNDe6WLVvMg9smfS7DBAO4FXzmBK5BP25eXY3uBsQCuPbGAeDt69VgEj0Wdm94aDgCrq5FTNEC0QLRAtEC0QI3wgI3BfACmhbWSaNSVVXRKYiRqRJZg+aAMKGd2tvb7VWywUdTs0kgamvl/ZXOk9HZeIU8PjbhiOhw6NAh9+GHH7qf/vQn7tixY0vaNkCvh10NYiBCKjfAVGQFi7YAUoFLQKl/+e6XAVhFZ8CDqw0ZwVW9NL7b6irdox3V7r62rNveklWoM6HxtOhMZQUPLiX65BEveIDD/rCXOTnWt4dX7ZN5vSWStmolL+AdE1QeHsy5/3N00O3vnXR98uYOi2qnBKzTeGo5yv6rAMkStLkAt1Ye+5h0bbiCwK5XL8wLcKv12VEnMz1YdXZ2GNBu2rLJ4dFFS85nraG+UVKbWtPt8pDF55HPKNeDtwr9esDq6+s3uO1n3i8vrjpVDg0OmQc3n1enSskaeBhD4gAUE8M5pmiBaIFogWiBaIFogetvgZsCeK/UbAADLSUhn5A6dKqzUADeJkFvk7y/DQ31rq4eD3CNAKXGjY2OmaTh7bffdv/4j//g9u3bt+AUAFAhCYrKFeKqUl4/PH8Vgi1CYdEBjri/vtMbbAVGMZEowcOweEqd1aTvVT231la4nR1p8/Le3SlIl5d3TrCjggrAa77ekgp4jNbWkm2cgWRnhNq+xOlKGlVrmdpt7aS9WuB6A7yjAt7P+3PuRwf63b7eCdcv6cKY8tJ5zT80eLss0CgvsiEPQnQ0w5tblUITrsgK8uQCu3yGCBnG5wlPLsDb2blB21vl5a2ztwfzelDJCVyBVqIrII8BdvHW9kmm0Nvba8CLRxfgteGxpdcFbmOKFogWiBaIFogWiBa4eSxw0wMvpsKzhucXLxvSB+ZIGrIC3EbBC9Cybes2t22bpu3bTOZw5sxZ9/bP33b/83/+jQ3dGkwOEwUuAq4MdiWNsDJ1jkp5mfHEobPES+c1nqVHAWi+BGBXbOZDmmkTHt6dGwS8G2rc3Z2N8vDK86zQaXPyPvuR2XSAvJOlcKstVl4oM9STue1THddbMuvpocLPQztlS9osoyJpGC2vdJ8PTLn/ONTv9vZMuG4LLeY9u9762NJbBhOZl97+sg2P75zkB7UWJqxDXlxChlmM3M2b3EYBLstIZfg8+c5pgLH/bAHpwK1FB0nC5PHWoLe3R17cQds+KfAlD5pc30ktV/DiWnQOX7X4N1ogWiBaIFogWiBa4CawwJcCeC9nJyAYry495++47Q53/wP3u507d7pagc7ZM+cMeP/mbwDeT6wI+ChhJFsndBkwTUc5etujGabzER46IkIMS5M5psEugF/i/yKZYB9AYwAr0AJ48fDWqODtCfA+tKHW3dXZYMA7rdfac5I1WH65JssAXlBW+fVXHk1fK5YX1i7s93ts9zr5Yy0uAV6aBbQCvBUJ8I7J2/75QM6Ad0/PuLso7e6owi4QVswShWBBHZjW56BWn4Naabyz1QoHhkdXshg0t5s0whlwi0d3w0aFEtuy2R6QeFtQpWuNBxctLuBqk9bHFct3cHjQBkLpT4D34oWLpslFskAYMRtiWp+DmKIFogWiBaIFogWiBW5+C3ypgZchXem4Vl9fbzrMhx9+2L322msGsKdOnHI/l6Th+9//vtu7d49dCY+WxYtiQ8Lq+Pvvf8D91//6TffQQw+Zt49X2Iz4du7cWYv4cObMaXf27Fl7jc2wxzntL8b3VfxeFVmjaVttpdu1odo9pI5rBrySNMxI0jCPpIHoAKpAAF4/17ZbFXhF/GJek49wRcD6CsEr04w6+41poIbg4d0t4O1eALyCXi6m8a4GCpHcZcf2bW6bOpht6ZIHV4DbQUQFOppJp1urjmaEu8ODm9WIaGmFGDPYFeQGHS6yBDqZIVVAk8sDD0P94r3l88AEHE8rTjSwa53xaEBM0QLRAtEC0QLRAtECN70FvtTAG6xL5yK8vI8+8qj72te/ro5Hbe7EsRMODe/f//3fu7379oasxkkBU8oJQ1WVck899bT7kz/5E/f0M88IihReSh6/XgEQsX7PnD7tTivSw4kTJ91RRX84ePCQvdqenxf0JP8C8G4HeNVp7eEAvFkBL4NhCHjpVWXAK0oz2FUl8FUWgTfUqlBVg0BkF+st0VJsR0czGzpY6wF4K9XeWXndg4f3rUN9Dg8vwDtmHl7iMsjTq2O5djV1NSZj2bnzcXfv3Xe7rQLerg0b7fPQUN/gUgJdvMB45q0jmaCVgU1yAlk0t0RRCFrcALwMcR1CiK0328f2RAtEC0QLRAtEC9yKFlgXwIuHd7NeXQO8r73qPbwE9y8Cb+i0JswyfgS35FFMtLvPCHT/9L//qcD3KXmMKwzC7PX2lF51y7M3NDjseKX94Qcfun/+p392+z//zHt4yyRtEEwBvFkRGMD7ZEfGPdKZSBoMeKUDloYXj2DizDXgBXYNeK0mAB81Wpio6q0AvLQcPbRiIFis41l1WBurqHIH+qfcjw/1GvBeRMML8FogMnUs1FK9hvPdctsW99jOR90br7/m7rvnHleXqXE1ioubSWcNitHZ4qkdHhk2/a1BrTqYIVUw2Yqgl4EhgpyB4aqB4yBdWXhF4lq0QLRAtEC0QLRAtMCX0QLrAngbGxvd1q1bDXhfefmrFsv3ZAK8f4eHd2/w8AK8HiwBX+A2na52zzwr4P3T/+6efOpJgZdeqc9MC5LGBZsaWU2vwwlpNTw44n7xi1+67333u+6DDz8QbpkgF+ehxeI14K2Rt7gAvOq0JuCdnp4qRHswptXpvac3AG9xvfgBwofpE8AblsP+xeth+80yvxTdF9aM/ebh1Zy4uCTsiJwhpWlWHdaQNBxQlAaAd2/PmGl4x+YC8CqPjmnf0O4eeOwB98zzT7uvf+033J233y69tIYV1qh8o8PjFk0BqB0aGjJv7oCW+4isINgFeMPgD4S0iylaIFogWiBaIFogWmD9WmB9Ae+jj7qvBuDVaGt4eL2GdyngZQACH/3h6WckafjTP3VPfuVJQVe5ARIjtQFlO7bvEPQ2SOYw495551fuL/+fv3TvvfeePhGeXMvKvYY3Iw/uDgHvk51ZeXjrpOEV8ErDmzfgVUc3UTOv4S1xqBaYzMtbsu5h1gNvyAMMJpxuC7Y9KetSHPan8CLXsFw6D2co3Va6HCqZbPPZSzP45UK2hRl4kLBdyX7vUS8ezmY/6a/++5HP1Cw1EuBF0jAj4J0AeBWl4ccHFwMvA0ADvPOuS6HEdj27S8D7jHvxpeddl8KKjQ2OurOnz7rP9x+QFOWMOp4NuDF1OvSShryuI5IGzTWxLehxizWMS9EC0QLRAtEC0QLRAuvNAusPeF/Bw9tinc0IS/a3f/e3bu+eALxirERXAHRVaIjgSulAn376aXl4BbxPysMrQjt37rz34gpSH39spzpBddkQtu+++577v/8S4H3XoA0KLZOsgdHWDHhrq9xTG2vdwxvq3Z0dja4pkzLgnZ0FeNGs6qzQa+KzDUtiZg+/RsTgnJ9AOyDQ5A7aR6QHo8QkPx3hwibzBCcFMrNkO8OKB03ORCmkMPdr4W9xK0shjm4o36pPVsvmz+T3+XID8HLqQhYdFJaZ2zJ/cZKrDb7ahIhD2uCBd7xcndaQNBzodnu6xwphyYJ1kDRs2rrZPfX8U+5ZAe/zLzxnnRUvnjnvDu4/6N5/7wMNOHI8anG5VjFFC0QLRAtEC0QL3OIWWH/A+9UEeBWlYSng5XrjuQVWywFe6XifkYf3W9/6lvuKPLzzArDDh4+4//iPt8z7+Oqrr7od23bIEzgn0H3f/dVffce9/8H7vgxTksrDq7IyKvK2BskjtjYIeBvcbW0NrkHAO4MXcW7GYBfQs7BaRo2iOwBPfwBZ81sKsMuYVG655hUqN6U6MhqbdBaqmwiRSeva5eY1GMPMNOuSZygfIb2IY2vF28nIVPyEswgoemhkO6gZMvh5qUcW7+uMzkHi4YAJILWjqJOWiHQRJmK0cTxgP6N6slymjoGQLLkNhjlYifozVaj65UxksDTvchoIZLS8ykZYe2v/Bbfn4qjr1ihr49bUpCzl7dq80e188gn33PPPOq5TY0OjO3LwsPt07z73wQcf2TDTUYubmDXOogWiBaIFogWiBW5hC9ySwMv1xtNbLhCrTFUY8H77W38m4P2Kge3BgwfdD3/4Q7HlnPva175mMX5nFEsX4P3u974nmPIaXtCRf5WaMipzW33afWVzg7tPo6xtba5ztVUV6gylV+eCVe/hFQxKMhG8lOFzBwOyFcilO5ZNWlbVXCZV7qpgRkWF0KogmLyac7CAdE6dueRkFvCyz8MuSFjoJKdsCWNqq8dbZbc6aJakQJuaJ5nZEoB3XuVWaOjkCsErDwn806mVl6GYVRubwPR5N5vALsDL8rxsLOmtndvmSfkGuyLglMqp1JwOa/zjf946raXdgb5J95PPz7t9F0dcj9ppwJuURcU3dm10jz/xmHvuhefdm2+8YcMBf/7Zfrf7k93ug/c/UCi5c2SLKVpgWRbgwS2VStlofHUWyi69rOMWZyKEnY26l8RrDm9JFueL69EC0QLRAtEC188CtyzwYmKAtyIA77f/TJIGD7xHFH7srbfeMmgk6sO2bdss/up77wK86rQG8AJzyT+ANy0Q2ygN7/1tGXdbS9ZtbKhxVdo2MjqhGK4aphhvqUgTh+msAI/jgUYctiRAlqlSJOiX5121tBJ11RWuNl3hsjZpqNzqlKsW3aZU95TosEJlMBksU5hAmULx/gK+eGSVNQFZbdFyqYcX8GQL/0gcQyIfVTNoVRkKn+DKmKR7FvVqP4huCG5e4JweCHIC+7zm04pTO6N65DWfUieyaeqjsgL4Uj7npf5plVOlKaVyKzWVC/DnNIreVCrjjg1Oup8fPOc+7x5xfQpLNkHzoP0kbdwoD++une755wW8r79pI6cdPHjAgPdX0lufPn0mZI3zaIGrWoDRFhl2etOmTe4eRfxgcJLVwGp3d7cNZ07sbqKExE6RVzV9zBAtEC0QLXDNLXCLA69GWrsEeGfd0aNH3U9/+lP7sXvl5VcsAgSxed+Thve735WHlygNAtYAijAYsoYmQenWupTrlJa3OZsWiGp0sDEBrzq8BeCFSYO3lyJClALANEAv0gSW0wJeYLdW0FujYYprBLu1mrLpSpcRfGZV97qUluV5Tev8AHYKL7FOYsMZi6iBXf0vSIcL3mXbrj+qA/ttQSu0Bfj13lh5Z1XArDxfTNOqY0458qLhvNoxrTBh4lk3pZWJqWk3mZ8W4Ap6BbqAsgGvtk1LDhIAGquRDHhVHrBbhWctAV6ux7y8bNOpand+LOf2nulzpwbH3ZA8vFMQOBWkwiqIIYIB3hcA3tfedE0agOLQoUMGvL/85S/dqVOnlTGmaIHlWSCM2ni34jkTopBQh6sB3hMnTrif/exnitl9MGrIl2f6mCtaIFogWuCaW+CWB96g4f22PLxfkYd3bm7WHTl6ZEngpdPa9wS8xOMN3l3gC68oOlyxqQC03NUAo7z+1+XLy+uJDhZWs05rmgN7JOYeNv263+i3mVMVIBT5plQWWt605tUGuuXy/Ja5ZnmUN9RnXVttWhEhUq5RFajX+dOC3jkB+rzOTacw4NAwtvRkKpvOZnTSY7OfAF7v67VhNXQ+g0/B6LjyjUhH25+bcwOTM25wIu9GJqfduEB3YmrWTUzOuknpiacE23mdk7BhQC9ADzT4f0lV7Hw6t+ZEZUDOYNpgbWA+b3CtWLwasKN3IudG8jMGu5RpBzFXCsBrHt7X3jDgPXzocAReb574d4UWIJ433l1GXHzxxRfd9u3bV1iCz85D17/+67+al5eweEgcYooWiBaIFogWuLEWiMBrndaecd/+9re9pOEywJuTLAEPrwHvh0XgFZ95RBTUAb54Zit1TSV5NYjkr3aZvhXu1OYlJ/aFSYuFPHRqAwyZKJuIENUqvEYaiuZsStKJjOusq3btNVWuQwDcni1CLx7mMnlXy3ArUzoVsbOofKsfsBv+Fc+JN5bItHlNOWUclbt3UJKCXrlYL0zMCEKnXf94zg1P5t0Ynt2cYt/m1NlMRKpsblrnAE45WzF5kC6uc97EYauMLPs//jhqPK0przqLs3151JmMllmd1jZ1uccTD+8bAG9jszscPbwyUEyrsQByBhvARuENGaL8tttuW00x7sCBA+6f//mf3SeffGKDmyBriMl/13kTlnx9V2wS7ifcV+Z0g2KZ6WZJtIm3aYwDyb16NYn2eMcI/SGK7fP3/mK5q7XfcusU7BpsbHW5QTZfC7subjftuhk+R7TNt8+LA1d6XQufF5VS8GstbmxcX2CBCLxXA95XJGnYslUjruVcwcNrA09gx8W3Bg9kQBk3P4vAwEda2fBy4uHlCKbw4Q7zUFLYwy097GPOTc9DKuCL19e5GnlgG9QxrllTm2QPG2oq3aZGeX0VLaJDGuL6qkpFQUDiMJtMPgqEB1/ORMk6U6BIzanHnOZ5SQ1G5VntGZt0F8fy7sLYjLswPuu6J+cEv/LoSpA8KZie0jQtD/a8bohok/ni4R1WTAn75wnVTlNoj7XV4FtnZ8U2+Dz6a0lF2ebSHze2WVV9DgPeJ3btMg2vB94mA15AI0oaEkPG2bItgIe3SzKZRwW8b6gT5O0ayGQ16fPPP3f/9E//ZMCKDdMCAABAAElEQVTLoCfRw8tdxkm+NO/qFJIF6C392i/XxtxfpjQhqZrRBIjdDIm2cb+nfVn1IKYfxkoSxzPRvlzSPtoIlJGwV1YTc87j79J+39r+pRb8ViXgrWXsjPNjmvpoWs11o8zVJGrzRex6uXPeLJ8jftP5rPC5qdZEVKaVJOI5cV34rPC5oX9QTFe2wLoD3lcUh7eludmdJCxZYeCJPbKC/zJjDn+7FTiq85WXNHgPr0VpEBweDZIG5XxFwLsF4J0EeN9131OntQ/l4S0th5KZ9JmzGwIrgBkfaCQDlhLgtSd4v6WkRskGmyX5VVJYYnNY5jPNsn1ZNM/oRLWC3yZ5fVszFa6jvtJtbMy4zYoSgdShAYmF9mflHq7ST0T5rG5fglQ6tllJkivMKwzYLJCrwicFsuOSJoxIl9sn2cKFkQl3YXTKdQt4eyVbGFAmLRrQ4oGVtFalCp0TEqV+TDMG91piu/+vrcUUroFl5oCQQkOTdQ/lJXYN+XRgl14/7/rKLml4X3Cvv/a6PLyN0vAeNtDwwHuqkDsuRAtczQJEZigF3jvuuONqhyy5H+D9wQ9+4Hbv3m2D2ETg9feshopZtyU14xoEvYWveWGh9CawpFnth310TgMDzVa4AU2TdDS4CRLAUqM2NSrGYqvamCHO4goSreA+N6729MxUWPsm9LsBzJDqVV6X2W3W3hyWrxCMrJBl/dH5dBm4EvY7pQWJ4uwen1dvYcCK+/2stgFXfp//3bgWQOzfaM67xvJZt1Htr12hXS/XZCB+gs+Rpl7Ze1zzG5H43NAmPjctq/jcYPMx1X1Y34U+TRM3yffhRthyuedcX8D7yKOOTmbNTQLekyfdzwW8f/f337ehhUvBKcBWBZ2lFBHgmaefSeLweg3v0WNH3U9+8hOzoQfeLW7KgPdX7nv/QxreRcBrsoME+LhRcMPw+ligNQFXA8Dik7O/xRUvU3hq51imS1O4uRf3imNNPkGEiIwehcW7iuxQblreTskdNsnTu701K69vVrKHtKvTHaQyJz2hYgMzBC9xcyvSwuCKSjell3HD8txeHJty54cm3al+eXZHc9LszrhhATAe3Qnd5ZgI/Ws3RJ2fp39rr1pKCvUnLkOhpqHqlkN/tB42WZ5wUNh/uXk4KNmP3pKHFDS8BrxNEXgvZ7q4/eoWiMB7dRutNgdf3c2pafdkdsqg16LRhML0w7/oqx32LJjzg96vH/ZT+ZTbn0sbHC7IcINWGgQstG2rpu1V066J4OKrSBenK90nk2l3ajolGVm5ee0oZpNgb1dm0m2tmlHnZDzIqyh8uYfoXhzu2+G2DCDiQcS7DihyHVgGtnj4AByZsx3v6epaf2kF/YPEvNn1scyUQe+luVa+BVDkYQk7fzRZ7c7J7jciAbsbdG353Nypz01LZfDpL682/gGp0tpxIFfl+gTvMV3ZAusGeLdt2+YeAXhfelmdl/DwnjDg/ft/+Du3d9++Qkex4pdZr4cA3spUCfBq4AnFuzXg/amAV5kB6C1btii80JT38P6P77qPPvqw6NEUyALTyAzAOJ5+OQdrPDei6fJgXaE4tpUK7aVJnmU/QARxbDmazl3qaCbv8qzmTKzPEN5LUQ9mtZ0Sre7Bc5qcg/N68C1qvDI6cbPuihvqqtyO1lqD3u3NWdehoY5rdTtKU2dpDwxa5eHlRjWozmjd43l3emTSnVY4sJN9E65H66PKNKUTI1Gwp3othxsa9WGZubWeP0qF7SyElOwrrJbkZZs9kCh/6BVf8Birrrbf7FuyX0dskoZ3l4AXD+9rr7+m6x6B14wV/6zKAhF4V2W2ZR3E132bftRfrJlwd6anXa3ADaBJvtb6NpfeLJYuclKgAlgd0o/7OxMZA9+rH7V0WWu5taNyxj1QnXN3pfNum+BlpcDLPRRQPC6Qf3s8647kq8zbi0eVdJvs9tXacSufV99IG65n4tcHSMzpd2JCnl5gsQi85W5Q14RpxGDYA/GkeYT1+6DjVltbIg/V6+Hhrqq8e6F2wmy7Fu3G1gA89v6lPkdHZW9+A2nj9Uw8KAG7fG4e0uenU5+jlSTsDazzffhY4H5h5saA+0rqfKPzrhPgbXLbt293jwp4X375Jb3abnLHjx+XpOEX7h/+8R+tt7QJkxJr8wUEbIGqinJGWkPSoDi8TxWB18KSCQpffskD75Q6nryrIYXx8P761x8pZqz/cM0gEVCBRBoAcQ14tciaaW3lec1WybtaV+OyNbWuuqbGparTCmVL3NlKV6WwYhSQz+c15RTCbMoPViHQnZiYVBzfEa3nlMfDnumAE+gFliul4+Vc88gUEjikY1tW0FuveL1NCmfWpVBpd7Sk3Y7mjNvSVKvObtUKeVZlo6ENKQrCxeEJd7J3zJ2RZ/e8OqX1KArDwNSMGxXhTql0ky2o7FINslWI8yYLpi2j3aoT23w9C1UK2b1himu25K+Df63EiHakCsksSLO6TqTyZH2OdZ0AQDbgRcOrgSdee12Shgi8Zqv4Z3UWiMC7Orst9yhey++Up44f+A69wsXDVbYCeAvgdVg/8D8dqxGopAwUwz1oufVY63xbBC1PZyetXc32anplNQoeR0D35wJeQKxUo7wjAd47ZTe0vCvVCH/R9tIaJkARp4dJGrROHQ2ENQeCh+YqNEBQhYHXOcHX0Kz3UnPcahLAi+abz8sLelDigWktEm0BxC/KI/rpVNodlt1Py9s7rPpezwTw8tmhfQ8LeHlwWn5SyFPZOwLv8i1GznUCvI1u2zYBrzqbvPLKy665ucWdkob3F78Q8P7DP0rSsEcjqKkrlQGh//L5OAIAWrl7WpKGPxPwEnsTV/AxJA3y8DLM8MvyGG/evMV3WjPg/a40oh+7akEs3uEKgStaYIKQIY+oymZdSgHsU1UaICJN3FzBrrY1qENMjTSC1YJe9uNdRj9cpXzcTqYFuzkmwS0xf/OSHYyNjrv+gb4klmdeADxhyxMT425SoY5oU6XKIc2qrtSXsggtRkzeKq1VCwxbqsvd1oZKt70l43Z0NLrOxjpXV5NVzNw5d7Zv2J3RdKpnVHrdnDS60u/qezcpW+WAXQEsPzQWWgz7hXuXFmm7b2eVy1RnXCaTdtXV1Rq9ThAvQC2XXcw2SR1VjE9WBl5tXQW7Ll7Th2d7WnF78WozTWvK6UFgekbDM0tSgcd7Vst4v7kDo7d84onHDXhfF/A2Eof38KGChvd0jMMbLB7ny7BABN5lGOkLZEHferd+3PmBv0Pwgm6x8OptBeUChP9bwHtIoAJoXW/PXKgqtzGm2+SBfEUeSIAUD+xKgRSZAFpSwOs9eRzPLHrFDvC+jIdX58lqDPbr7eEN7b3cPHiokTigQb4o2D2rNrCM5xd5Bh5hAHkl6VoBb6gDHtKzAt3DuZTbMyUPqersf0FDjms7D8DL5wbgXZmH1wMvdsbD+0n08C7rYq0L4CWcEB3LAN5XX/2qa2/vcBfOXXDvvPOO+/7fft99LEAFJoErGwq3hNp4sf/kk08Z8D799NMGoniHf/LTHxtYvfTiSwa80wKvd9/TwBOSNOxVZ5S6mjrXWNfgmuVNzlZn7bg61aNz0ybX3Nbm6gSVTU31rr21UbBbJxjMuHRaMFgpDBUMwmzIGirlhRVzC1aletVEHb28QZ3HxgW8fb2ur6/PJkZuAsbPnDnjui92u7GxcQM/f9uVZ9W+rdx+GJ5YN0YtAb4ZaXeJz9tam3JdzQphJi8v3tBxyRgOn+515/tH3UhO8XQFwMTQFfMKdnmCF0gnHlt7WFBZ1JWkUL8Gt5TT1triOjs7XUdHh2tT2+vrG1yVoB4Izmbl0dZAEguS3fcUyUFQPyHPeU5e7Wkt5wX7k/Jqj8qrPTAw5IaGR9zIyJhNwyMjbmJ8wh4MZoBe2alzwwb3+OOPSsP7nHvjTeLwStJgwLtbURrecRF4F1g9rlzFAhF4r2KgL7gbb90G6RQB3sczOddVKY+dAHGliR95wBDgvZGdjrgVAp8Ay6sCUiCeDmXJLXLZzaIDHt5qwOVzaZNpU2lCF/yySUHy5hVHCnIzJfvZUYWC1peHEDqCdasdx6erDOCBSYB4JcmAV17QOwX6SGGww1om86wLwo/I7j8fz8izXmUPT/yCXo8UtN98Hx5ZMfA6Nwyw5wW8qvfuCLzLumTrAnhr5DUFth555BH3td/4DdPcDg0Ou08//cy99aN/d59+9qkbHhk2gJySFhepAN5SIAvgxbP7rW/9mXv6KYBX2p7jx9yPf/xj086++MKLVh7exvcA3u99xyQSLQ1NbkvXFnff3fe6TgF2hbyadYoS0Nkl4G1vdXUNAt7metfaUu9qa+X1lScX+YQQV2AqrynvhpTKBaOm59Xy4udfencPDw26wYEBA95z5zzwnjp10p09c8719va70eExASLTuHmHkWowQcJALx0cEE0guahJl7tmhXRoqsu4+oZ6jYw2546fG3QDoxr+VGCLgxiwpcOZvbZiXf/kBje7pPFW19c6RqTKZLImHdmwoTOB3U49aLQb8DYIeIF7IJ+8lwAvZSph/8lJRqLLCWTzBr6sjwpuBwYBXoG4hmYe0Rz4HRxQXfv77CGgXw8BjY0N7jEB73MC3jffRNLgR1r7RA8kEXjNxPHPCiwQgXcFxlpF1uCxo4PO8zWT9ooaQFypyhPP4WcCQwARby9exBuRAM/wyv2LABnaSzx0tAeYx/NYmgC9lwR8gBEykJsNeEvryjJ3d35LuC4n5UFlOqHrxHUDhIM2efFxi9f5vNQmGt4X5UHfrtf/1yIhZ/iVgBdwpFMkwH49UgF4BfSP6AFwZR5eAa8kGGdUdw+8afOsX496f5nPsS6AF6DKSjbw0IMPuW9+85vunnvulQdwTrCo1/Xyhp49q+ncOXfOprPu9Okz7qSiOAwPD+u1vCQNAt1v2cATT5rH4ciRI+5Hb/1Ir89nHR5evMczMwDvu+473/2O++yzz1x7S5t79OFH3f/1G1939953r6vKSBerqSqd8ZIGDf9bpSktyKzU6Gh69NeNHb2t8FOCfm4KfK3Qr9pCsl74MAGe8vhOT+uVPtpexQEGBsfHRy2YfU93rztz6qw7cviYO3zwiDugYUx7e3t1jDzEwlXTuuosnNHOo2VGa8tI4FulIL5VsplUAm5Uo6XlgG+8zjr5nDTJc3Lf8jNEAoCBcoC9ra3V3X7H7W779u0abnmL27J5qwXqb2pqUTvT5tVF6kHZFZJrIHlAtuG96rR4YaJ9voOe6iuP7cyshiFWe7H1jCo3rSmvaBLIO/KKFnHh4kX3+f7P3L49e9zH0lFza33s8cfk4X3W4qYWNLy7icMbPbwLrR3XrmaBCLxXs9AX2w/G4RG9XQD3igDuDgEc6yuNP4o2lB72AOJeaTC7b1BnHeCzMyWPtYDlCUVRQKO8mnRSMEhnNcAFiKFDVWn6sgEvdeduD9gi1wB0Ad4TumYreUC5XsCLh/2Y6sfniegfiz3spddiLZcj8K6lNZdX1roAXuv0JLi64/Y7bISkBx940LW0tBoE89XDA3rhwgV37ryg98xZd+rUKXf8xAk3JC8i3tUHH3jA/c7v/K67+967BZaTgscD7q233jILvvnGmwK8Hfa6nTi8AO++vXst9NkD9z3g3pB29OFHHnYdGze4ppZmV5utFxwiW9DhuiGWlekmqJs6CYgsm8cbwa3fgyj5Ft7eyKlk+gTtY6cOn0dDoEQnDwbBGJbHE9nG0SPH3YHPD7p98mafUJv6+nrkzR5y44JjtK/+LJzf94jG41soU3sZZALYLZP3GbidFXQa5Ep/i76YB4kGeYPb29vclq2b3d13320jUAG8xMHt7NjgarKK/ZDUl7pakXYSLRdaRyOsCcU/1vCkgdpJG2fnsJcsVJ5SOeUqVx0irL2jio98TMM6f6DpffeRJvI/vlMa3gC8zYmH9xM8vL+MkoaipePSMiwQgXcZRlqDLEQyeEEeXjyW9dLxAjYrSfSoxxMHoLxrmtfUJbeWlZS32rx0UAPa7xLA35POubYVhpXijo4MADkDmmRerQOJvJ8rTV9G4C2tP1IGJA1A5acCyvNaJuLG1TS91wt4qQveaOz/vj5Pp1Q/6uZ/cUtbsrbLawa8qvduPfihnY7pyhZYF8BLE4HeZg04cfttt7t75eF9WPKGrVu3KjpCnXlxGd6TaWJcGtERvSLXCEgTgkI0s8TtvfPOO121PLQ9vd2Cx32OKA10wPrt3/5td9cdd5kcAk3wd77zHYvSANTiUezq2iiP8j3uCYXHelAe5jtvv0sDX7SaLECxv6QlmMG5K4bD1wroetgtvSzGfaUbLlkGBtnofxjwXqN/JVSadWzrG5AH+7wj4P177/1KQ5t+Lm/oBTc6NpbgJscDvPLWJiDqAZWKqT6a8MIiX5iVhxdbVqpDXrMAEhsCuY8I6u+Qd7ezo9OkA1l1egOGkS2Ql/JLk3muSzcs3F26J1kmAzVIIvhaPb2tenr63Wf7D6gz2m73wfvvC/D3y1t/xtXr2u7aBfA+Lw9v0mmtZOCJqOFdwsxx02UtEIH3sqZZ0x0b1Bv90SRaA17Reg0sUHwwvvqpgBE6QQG8/3ssK5Cq0n0j3B2vfvxa5ShtB7FyGSBiJQm4pUMXUSfe1iv1E2oHJSy+VX7ZgTdcLyIKfCYwA3yRcdD2K6XrBby84MzrE3hS9n9H14EHEOq2XOnFldpwpX0ReK9knWuzb90AL+apEoTyo8VQwA899LDbsWOHa1WHKoYMRX+attftaYscAKDxSp2wYgAnr94HBgfcwcPylipu769//WvTo/7+7/++u+fue6QjHbGoDwDvB/IyclCZXvVXSK7AAAiPP77TPf7YToVGe9zt2L7DoDBToxgJlepApu81URw0zIPOxNmKqjXWlpMuAcrCXVExBRXVYVSdu44eO+bel+xiz57d7uChQ5JynDXZBl5r7yH2Xl7Oh+fUksDSfmwSEIasa2trpMvd4LZv3+7uufde98AD98ueD0rCsEX7as3O/mC1BKlGODZsXGpeqO9SO9lGBk2Cch5C6GQ4pk5qAwPD0lSfdL/+eLcNIPL5/v3ugjz1yDs65HXetWundVojSoPX8DLSmvfw4smPKVpguRaIwLtcS32xfHhGbzfPaN7dq3mrANjuQcssljsFGlFAl/BkhwUoyACu5jFcZvFXzebv4E4DQUy7ZxSOjE5rTYL2akVQWEnC84lX7pCiBHw4mbnsAAhfduANNhmUXANpA9EoPhf49sirSsiyy1ntegFvqB/Xgs5fPEgRKYNOYdcyReC9ltZduux1Bbwh1FeNIgM0qAMZQwy3CYra29qtQxXzVkURaGxodLXqTAUgA2zEwMXre1hDCv/ynV/IQ3rA9LB4ff/wD//QPLjD6gT39s/fdn/13b8qAq++D0AvXs6mhma3fdsOeZYfE/w+7nY98YTbvKVLndkEu8rjtbT8DdC79AUpbF3qLrDUNh2Ax5dOdWPy6A4M9LsjascHH3zoPv74Y3Xc+9RdlLeX+LZAr2dT/bxYqDAiO+D99X4FJASVkoZsE+g+9+xzasdjpofevGWT7NlgHt2iJtfXdFmwW2hUslDaDuNu74EGeKnfpAB9YLBfAH9Cg3zs1gPIfg0ZfMidlwZ7ZHjQYhUD5hslI9lpkobnJGUJwEtYsgi8i00e169ugQi8V7fRWuRgGN6OJFoDI4jhHV1p4hYSOhsBUNezsxEYhO7YtMiKzkAnPDqSrVSLTJ3x7gJYBzUxPOxSab0ALx5TRgfjQeVXkg4Av1cKV3a9gbf4AFKlB5BrPwJbBN6lPu3Xdtu6At7FpkKSwCAULS0tHniJItDa5pqltW0Q9GYFqnSsIhpCn3r/Hz1y1H3w0QfWuQ3v78PyEv/+H/y+u/uuu92QwmT9/O2fC3i9h9fAEVgLT/ViRjpv3S75A9KGJ5/cJSnAna69s1XbG6RzzaozV7oIvAn0XRYYS6GQhi1eX9RY8Z8l6tXd3W3eUMDvo48+UruOGMAziAVwT9sAXqpPLNxKdWIzaCfKhDy79917n0U+eOihh0zSQNg3xAYcsBJPzKIq+tXQDuZUgInSVSfCk6E/pnPa8RPHTMYA8B46dFTQftHClWmEDZOIAOZdm7oMyp977ln3+utvWBzewwLjIvCepvCYogWWZYEIvMsy0xfOBBzW6r6JZ/R5wk1J0wss2q1gBaXjkaPTGsBIJ7brNXAAHe1qVH80yERP2KFOayutO83kFf+v8SgKANG4Xu4V/1oALy4NvOJEPA+34FJTl96Ow23ZR9BIbtGlmb/gMpEo0MrS7hC5Yakirzfw8oYAPe8xfZ7eVv2QXvDmYLUDZyzVptJtEXhLrXF9ltc18NrACIoYgJTBJA2KJEA0gaxCavFqnm0MjAAEErFhUCHABhQCjHWOoTPaf/u9/ybt6p0WEuttAS+d1j74UJIGUnKXC/BbpWNqa+sVjqzFdXS2S0t8t0Zxe1Kd4u5Xh68t5lkmQJjTlyjcdQDeJaGXO9CCO5NWFqwn57eTa5m7GUnrjNZGe86fP++OHj5inezek/b1yOHDrl+yDbTMhXOKlOsFtFu2bFY9H3TPPvOsu+/++90GaZPRRGMrvLreC6ziFdWieKw/5SX1SjYvf0bd5113zwWTkzCwx/sffOSOSKIxKM/6qEKTEaWC+LtOndrQIjOK3UbV8fGdjxmcv/EGcXibBcdB0hCjNCzf/jEnFojAe30+B3hIGZyBIXMBRjp+rWbABl6REzsVcPpsCni6Pp121spDjWb3PxWdgYEP8C5eTjP6RYEX2AXa8rrN5hQh6BJ/urbzuEEvDvqbcG2wJGDPMtdrLZOXNvjrxkhnQO9S6XoDL79C2Ak5wweSmBzRdemV151IE9ciReC9Fla9cpnrGngv13QADvAlnBnASxgsOrARF5ZkYc4Eegxk8Tu/8zvudkV/GBoclIf3bffdUuAlM65V3SSQLQCbxNjFe0oZ27Zt0ShuT7rHVc59Cl22WdpiPM6ZTI2AjcgIHh4LAEl5IfHtYwopuHDDOnOdknNaRgNeXwe/3amD3rjrVfiyPQrj9aN//3f3kUJ5nZSudXh4yA7mSBKe0q88sUtw/qx76eWXrL0pjRLHSGnUwWQP8sCirw119ufVwYvraSUu7w8d5BhZbmx01EaUO3rsiGmnkWJ8snuvPL3d/nx2y/XtnFfYNU7Kjbmra4N7LJE0EE3DNLyC+k8+2RPDki3vEsRcJRYoBd4333xT34PbS/Yuf5HOoz/4wQ/cbsWDpnMsb5BiutQCDKv6bDIkb5N0vZnwtuzSrEtuIaYrQIIs4L2Jahs1q/SWueRBa7DRNMiCdTy8964iOgNQhefwiDyIRGcIQyQDpkulLwq8YYAFPOA8FEzo3JckGY6fEtATbzvdAKvEeWl1vOZhJK1rA4BmNK10JLnF50LGQFQEQP9XE1mLikCfksXX7noDb6gn0pIgNeFhqu8yQB7yr3YegXe1llv9cbck8AKYeH8tPqy+5ABdGOEMUwKrvOIHeH9X4cruuEPAO6ROawLe73zn/zUPr0GqvqHErLUbhTyfLMyYVlaLIjIGXWhrbVbnue3uEckDHn74YUU7eEyd3DYrAoQ8pxqsYknYpRJ8+0vvAEsBL/m4d2lf6NQGkBoNajMgn1Mkh4OfH1Bc4bds5DkiUHT3dHOkDtVTvY5HwvBfvvlf3HPPPe/uknwD3bN5crXfD1dsmfVHFUrqRPus4RS0uK5sW0ZiiOR+xQ4+rNHR3nv/XUXH+NTCxZ2/cFGe3SGDYYNu2dWab+30Q0RjcyJk7NTQwi8w0poBrzy8Brxx4IllmD9mWWQBOrcyXDXfe94YROBdZKA1Xu1QZ7WHNMIU4LhV8NuoQQZWkgLIASc/k6cUby/P/cktaiVFrSgvAwQwUADxdzer3oDLSlIAPqQY7+jV+WmB75VuoV8UeBlIAb0wsg+iJPCQsDhxfn5KmMKARQAn3myuS7s011wvIlMw2MYXSbgsuHZH1X483AD/UtKBGwW8XJ9h2Yjr8wtdn1PJ9fkibV7q2Ai8S1nl2m67JYH3aiZdCniHBbxvlwCvhfESgBnwqkCiNZDoHGYhv5K7LmDWokgRdwmaiXbw2KOPmwe1TXriJkkGkBOgNabDnYdfHWjHcutJkq0nBYZtpfMEeL3OlhHTNGwvXmt5eIk1fFCd8P7zP//T9LwHDh00vXIoHei968673Ne/9jX3FYVWu01eLYbsZSQ2hgcOvx60gxQAeAHw2g7b7f/o/JcmaaHknUUuMql6jaiTYHf3RXf65AkN5PGpe/f999xhaY37+gdNcmHH66RmF8BbRZqnmbBlSfkA7xMKS/bCC4QlSzy8h44UNLy3WlgyPj9M2IyJh7owFT9f/sqg47YoJfqchIe9sC3Y99JreHNsKW0n7eONDRPLJOpPW2gX3wPmoY1XakH08F7JOmu/r1FeXWAOcHxQ4AtUrSRxl8FbGuLY0nnNg9NKSllZXm6DwPnTxBFWvVfjmab3v42QJQ8nUQGuFj/1iwIvcgkG58Bb+YE84WiHr5RoI9BbJa9uVtAL8BJjGNjFK891atC1w/P7RRIjsP1cYeWo18gSA27cKOANnysGymDIYR6oVjJC3HJtEoF3uZZau3wReJew5WLgvd0kDUMeeInSIA0voEjycEB0AWBDT8gJjCUz2458oq6uXlEjmjQEcrvbtt2H+7pXntV7Ffars7NTo7NV+R/scCDl2yn0x+4ri28utpMaWD2Y0wGNkdYYmGJMI7Kd0Yhye/bsdXv0avVj6WJPanQ567imMGYGxzqUoxkKeOuWLTZiHNElHpInmtjCQLlc1YVqWO5wulC35OwLZrTB8gXPs2wjAJvUq93B/n7V65RiBh+weLq8/j19+rRAt191GzMgBk4KCbtaDfwrL6s3tdc5ujZt9GHJXpCH93WAt1TDe+sNPBEgl+gjfOZ4kAqxklkPQAgMIt9BTjKuhw803SzzMML2BfYvXIibZ4F2BlkSb2J4kwKs0ka+h7TPHqzULiKX0EZkBbTtSjBPGRs3bjQPL5IG3uysJkVJw/KshoShReCEh/dpSRuAqZUmbjNhpDKAd6mRylZa5uXyc8srjc5wh4AXKGMwn5UkRvJiRC8iMzDyGCN9XSldb+ClLjSJTmvUDC0vcFufeHrpZHi/HlDw+K6w6RRdSID3RyWd9gDz0nSjgJc68LniIQFtOEBORImhq1yn0rovZzkC73KstLZ5IvAuYc8C8D4iScPv/q692uQVO2HJvvM9H5bMQxhfDCM7K4Wvq73p1zxwq4EwGlT9EFdUVqgzXMq1d3S4u+6+SzFu73H333e/26wObU2KkAAUe0CpFqxoQAdJK4Jnjk5j4UzcZAghRmL7NNIF/aDzwz4szWC/4JFIDcfU6WuvRoUjpNdJwe6QOuVZvVQQ9TYu1XK55BgMB4zHFNkFMXcf0OhzmxV3t06veengB1RUq5MfoEGd/C3Rl0E9aGdI1AloyguskS1MTEy6cU2ETCO02PFjx22QjMPqYHb8+DFtp17eksVSQmnMtVXl+/b7fPylvru+slOSBnl4DXgZaS10WvulRtQ7XVrIulnG1lyD8DkFbEsnIDBMywVeoBconJigg+CUATBztgOPeEoByRuR+MzRvtI20S4+k2FaDLzALW0BeAP0sk57mPiuAPml7eJzzsMnkoav6Y0HYQlXk5YLvLSpUd972sXDCNf1SkAe6hK+a9Q9XCPaQ5vXIlE+E/WiftQzbFtO/agD+fncUK9J2d1sXfogqzxoQdGEEq3BRzvw0Rr8nW35LQGcCCPFK2i8pYvBafklXTkn4Bfq+4rCke2Qd9ruxVc+bMFe7mFEKaBTFPW9UpSCcOAXBV68kxcF2d7De/l4v+F8l5sDoHWCXoB3Z3bKMWIewysTdWM1ibYD/tiBiAjoekvTaoGX2pT04V7xNQp1IGoGo8LxILV7Mu3OzaSs3NW1NpRanEfgLdriei1F4F3C0gEkHr0C8BqE2bH+4x9ufAEFi+Dm98zrB0C/AqbtJToEo4Q1KlwZIdKIJ7t9+w63bds2m9ARMpRvvTyvqVSV4MbLAcKPDT8mdLYjAZajCjfW3dMjz+lpxeA9qmgMR6SLPWJDKQ8PDesHf1Q/8hP6AZpWzF5kGMlXVjOWKI9z8APH6HFoeLtUJ0ZZu11erttuu02DaWw3UK8TFBCNgmOoD5IOUnlZ0CP7wTz4gRtUxIszZ84IPE/ZsMcnTpzU/JTB+MjIiBsXjAAh/DDinYbAg93Cjx71Y8LeenupWQBe5zbJTh54X3Cvv0aUhgC8n9jQwusVeIEjvLjACJ+VDZKgtCm+NOH3sIFFIJG3kzzkZQoPTmZK/QFemYAmQIlrwLXgugyqg2aPPk88NBHpgwcooJE8NyIFEMX7unnzZoPS1tbWgleXdpZKGqhjaBvt47MIeNEuwtvxmeQBsFf6cbaHdgHP7XqrAfD+5m/+pvTsd62qucsFXuCaB0wGrsE7TRuW81DBd4+J60V7GGCGYcXpILcWic8KdcHej2jESj5fywVyu5+oErzRoaPvcT10Uz+ztepbmvg64zEtjdYAUAKWK0lXA6eVlHWlvFnBXZs80gD6U/JIEz843K+udFzYF+5leHX/c1wDZgj0iEuLnvVKaS2At7sEeAHu1STuyVwbJA33yAZ4uLcJ+pF1rCYBuMclG8AOS0VrWC3wMnIaNsXe9CXnlzKEWFtJPQthynS93pbWmPjBaymZicC7kquxNnkj8C5hx+UDr75NugHYV0vfLm4I3ErsC6Y5e4h7CBIyeKahod3M/a2vQp7VVLrSwn9tEVwyQty2rdssakJnZ4c0vk0WFoxhjD2wqCAleNV+0DXYhIUg0w/dBXX0QhqAV5fp+PET1vFLp9WX3f9AcuzsjICRAsI9lqqERHM0pSWv8KOtdbo7JOcw4L1tu2l7G6U5xruGjSr0o0gbvLe5XDA9K3iSRlceNCQVvb197uzpswa8x08eV/3OyMN7wfS7nFK1MtC201MnTVTLpqRezApT2Jlss+gSX3lCI60lwKsIGN7DG4D3lBW9Xv4ARXgyiYsM7HboTQGwVAq87CtcH4HuchKfJR6c8BaOKmIG4FQKvEAV6wAjQAxAckx4AFvOOVaSxz+AlScPYMiAOuzhC9gNwEvIPAAVMOO7caUUoJd2lQLvOb1tYJ1QhLQbqOOBAeD9rd/6LZP1XKncy+1bLvDSKY7OcciHVgO8hB7kYZKBcogIceHChctVaUXbsQMPEQA/IxhSz8sBr/+aJl/W5Cx8r7mGaPT37N7jDh486E7YG6algZyOX0gakDa0Cp5WGq1hSPpPOmThKSQuL6+ir0VCy4p3k3o+kLzSX8l5AKjS6Ax4NdEge5fB5UtaC+DloQAPL/FvVwu8oYZ0Wtso2EfD/JiGiGaZW/NKEx5UvPNct4/loT+/6LqtFniB3Qk9SBicqmZAOnWmvNUk7PVe4pFHjoLHfC1SBN61sOLKyojAu4S9lg28BpLJl0iwVqnFrLZVqUy+Ejz35vSF48WXOFMeSgAPD6X3sqJKqEyVG2BmBJEZhULLpP2r2rqGWnl466xTW72kDrV1xSF98UiNSe+KHhcAYZS40WG9uh0d969wx6VbHJPndEYB0ZPvZpluAjhjA+yqKpbgTCNK1rSN/ObhqdBr5HS1eQs5d12DdJLURxIHoKuuts7qxDLQwUhveJz4EUY6gUyBjn4TqgfbxyfkzeV1skZRm1Fecwzr3P7HESj3E/ck/0wAmAvsk+pRTZKa4ZPmXZvx8O4yScNrr8rDu46BF4DAqwmEoC1l2GxAEO8ngAswASn2ILKERzex2pIzPhNM9hAljyifL6A2vC7HO4cH8Yg6FQIveH7xCl8rrS9wRXuAeTyMSAvwZOPB5i0Er9iDVxe7MF0p0TbqSp1pE59HJrzXwCKSn8OK7sF3ifIB3t/7vd8zWc+Vyr3cvuUCL7IhzsMAL5cDyqXOEdoLwJ8USCJb+uUvkfCcWir7irfxfcbGDz74oPvmN79p/QyCne3+UVKi/17yN3xD7Tai9TKzL0O07927z+zc19dXcmRxkVHXAEgACrhjmF5LuqxWaunlLZ6mUABRCNDBAnTvqJMRI7Bdi7S4nnS6W0kK0RJ4Rc5IY2cEvAstt3RpNxvwlko7SqUopZdp6ZYs3Ao4mudZwIvEYzGIrxZ4Q5QF4v0SnYJyeIuwWk80D1Qnpv2IeHiiqfNapAi8a2HFlZURgXcJe60WeGv1Q92ekRdOPxiV+hHOzcy6wSnB6bT0rDoP8AZQArzTQIa+iJX0eNB/3ujLaaaBxBRjVh6rqmqFRssCnIJLAFMTEEACRvBI+WlEGjl1yMlLY5mERPO/EiqWosN3k3uzzgH/Gh8kdydVw8CScqkHGewmbHBsW63ODKFcpdi8DESBZ80gOKmXB17/Snx4eMQNCXrREk9O5qw9FEg9aLudlhNgDE3Uh6lCxCuJs3oG64lc9ktVVsn7oVjC0gHnZL8ZvJDYTHmtEBW0ScD7xC4Br6I0rEfgtQcP2QJ749Hcoo6F9913nwHgtm3bbFsAJcxyrRIPMcgAjkouA8wBWXh8g7d3rcCX9tIevNS8Tgd0GaabNwzALmC/lgmpBhBPm4BG2oh0g4cKQBS5QXiAWMl5lwu8wPwf/MEfGGCv5jricT9+/LiiknxiUVh4KFmLFIA3gD/gGyC7tPzk26jvJN9KTfpv3+8k09mz59z7GvDmk092u/3799tnpvT4sIznlMgHeE4fUlxbwn6FZA+4pYVyqkUpvHrm1ThhroLndImsi45c/ipVQMLwJJ5ogTlRC5A4rCQFTzT1xBN9tegMoeybDXipF/a4XXZ4tXbCJB5A5Urj8zKgAzFv8fC+ywPAIqnFaoEXzy5RH/AY0zGQn9iHq70nmvjCyBxWkgJAEw2EehKmDC/yyh53Lj1jBN5LbXKtt0TgXcLCywZevvb6oiNpkOPWtddm3b0dLW5DnTp46cd7dHzSnbjY63rk5ZzUfrqU8OPAPCd4k2NCcKsVzcWqBp4AKD8u5fqW8iNYKU9rZWVKP7zFV7d44vCozshjxetawn0ZqAKESBaS+zBgy5db/+3HiDry5Q+QqdXAnTZnncwcDmwC4ZYoQwcFIPF18qGgrGOdToSWl3rgRZue0ZT3HkCNBJyAN95tL/eQyewE/F7gi6GOxIJIp8pcQ0bAI/s1CvCmZaCzveqENyKPXE5RBeSlw34cTtuQNDyBpOGF9SlpwIuJB3fbtm0GfgAgus/wOp/9S4GIXbM1/MM1xSMK4AKJSGbw3AHArLNvLRLfO+AewH3mmWfMs4gXm7cKPOzxfVjLhCebh0Y8vXiugbJ9+/aZfb/xjW+Ydxlb4+1cSVou8AKSgDVg+f+zd6ZPchRnHk5Nz/TcMzrQxeURtlkwG7C2kTDLGvBCGBP2B3+ACP9ba/4MAiLsDSKMhGM5hNfABpcJbtZcRuhA0tz3zD7PW52t1tCjmeoesaOYTqmmq6ursrKyurKf+tUv31RZFjTLJOtedVrg3WqF1/oWyO20qwLttd/4Xbuk9Ho1Ftfk5XfOKW4gXj75FwaReT3qdz2FVwuD6psg6UAUwm9Oa4H30n6LNXxCVDQnDAkLiBiP9yMgxyFiBeGtSObiZCc1O6vdSjktcyte47/VOmnZ639tJ631yrodgdey2mntQUbK80bFCA4Capmk7eCb5cLSEIr3FgGvv12OWqfn9nm+D36b7iZu8vc5bxFGrmQ5BVsBV9AVeD8mX6OBCMLtpA7wtlN7rW3bAd4m9VYKeGluBUgfTt3IY/+7bzqQvr+P4YVRemcZ9OHvp86mr8fxRaLATjFNL6ykGeh22ouS7bxmMmAKu5FYJtDZysayvLz2cV4nWnpXc31g0STwZnq1XAKuHwmW/fhth3vxRvZUUFArKMqraYYyzaKgzrLdAu+9uNVXzMZ5dx1TkX3NbuDPDCn+1H7snG+cahsK35avAtUKtiKL4F2hVerlgyEW9FPIXso20t+drhup4qMcSbuv258m5lfTO5/SyegsqvEs3mAUc2NVmLV51oH3gcZOawKAA09s3SNedvedpqzsCltjY2MBfkePHo15gVDQ/f9I2RZgJyQh65133gmFVLXXpw7efLWSBCkn/bNjHK+Add9996UjR45cFdBdW0ZBXj+vx3Py5Mn4WOD+Z4bY1kohcJdJmwVe8//d734XwOuNTdnzKkBqyfBcvPzyy+HhL1PO9dYVvAVeFW6BVzD3ZsPvZU4FeNYucq/I4j8fc2FG2hXlOfnSyQBewVxAb5ZUBg17ZSeohwEoHz/bmc29BVPkLH1fbySLnGotUbzRyqClQWuDFgctBFuRbLeEOUFX4P1BrXxlcw8vKMBk+cp4Qbcr8BpGLnuvDS9X1nudLR7Wx8tNrCitKrz5W6ly/J+TQ3FjcQdPDgRzv1uOlNdK0huupcF8jdGrYt9O6gBvO7XX2rYd4G1Sb+WAt+ioZoN983A1Hbt+BJV3JN28bzRVgcoLU9Pp3CS9qS9OpVMXZ9NXFxfS2dmlNAEICr1z/FJ4B6qa6oVa/72ozcMBkUK1dQXfM8XAD8w6EEQskmydMSMhk0lPcZVlA0wjtNr7B7spV1/aP9qXhrFLLCytpNPnGQDi4hwq9HIan1/hrrUAcSP1Wi6bhgy+zAKr/sTU/pHvqjsirXD8xY+Thaj9MJGXCq/NQk8NeLsoXw/LCXSURinzgf6utH+gkvZRtv0jfenAnsIr3D00kr4cn08n3/8ifXAKlXd2OU1TXvfG5nXgvQdLgwrvI4/8KoCpULyubeAVfLSwqOg+QMg1YzXr3xWKhJFG8KAqvrMkbPh0wU6JPk7X9yogqo4KvUY8aCV5PAKV3uRf/vKXAbwq2YKmnzUqi63kv9E2Ktgekx7YV199NZRsLRXCt2XyxqNM2gnAW1yFXuD5inSJDYJXe9EG2In2pZMvpTe4AfW6PPdNcw+vawu4twBQDwG8t/YuEv5rJRTUDLxe80Wq3WDzJvZS+8AWSYvAmzUgEX5V4bYiGTlCZdDoDP+mAg00FUdYLndV3T/XBlooM5DBdgXeusWDejF6haOylUlXC3gtg1+LDLwO8tEY79lOkq0kLRiOUme+/93EglE2zw7wlq2x9tfvAG+TOiwHvHhOubwGaRTHhrrTscP96c5DI+nWw3vT6EBvmuPHdGJmPp2dnAV459IX5xfSV1OL6ezcYrqALWF8EYBA8V3kCs1gealxp3C02b73dyXEDVtaJsOImerAy3vh2BFywrrARqHo0iluT7U7HezvSdejnn5vXzUdGMVn3F8D3guC+Fz6anwpnZuhPCi+Eyi+U5YLOLVpULfzMZE7Nu/A3RqJC7zxkyfwskaEX3NVC+u6fBgKCeVDXA6P7gALRrBq7EfRvXG4BwsI84OVdN1QNe0boQMWj3cXuvvSR9/MpOfe/TL97dR4OjOLKo7sHPsyf45V9c1OaxGlgd7kRViyxke8n7vmNZMEOwFPwPKxvgqbSuPY2FgA4dUGv7IVpSr62muvMbjJm2EHMOKBKrBQXCapWhsOzOM1KoAeWq/BrbYwbFQmFUgh3s5g7l/f8JEjRyIixkbbNn6+c4CX8xyNkle+CXvBqs9wirbpcwaYeYkbojewNATwrtNpLTblz014ZP+1fzbdBkAZrUGPbCPwFnvJ+yq2otmJZJukqqutQSB5F+uAkQm2Io1QDsumQvhjohI44liZ5NXgI3GtFs8BvB+haPp+s1fJdgben9U8zYYq207A6/mxnp+ZHIwhjP251NLgDdUPOY/aUcreDhlRQ3+wYeVemGFIZEbKa8c60wHeMlfR1qzbAd4m9bgZ4LWBjQaeV43ww1xARwC3ew72pbsOD6V/OjSa9gxU6fFOjNMARzy9i3iWsDueQrn87PxE+gpv6pnp+XRxDlsBbShP8Au1l5yzjmF7bsMYntpYXvyceAHHz0qtwfe9YNnDUsGyj7Z+D0B5aKQ33bB7MH1v73A6hAK9t3c1weWhuOobnoa0VXaF3TNTc9gvAOBxXieWKNdKUSb2IYxbjtin5WCZ7+14F6/OM+XkejYoenNDZebNMPA9ity8t78K4PYBugPp5j396QDq7hAesEEk6QGGaF7pqqQpzA/vnZtJx98/k94+PZXOUDlTjcBL3mFpuOdYiqGFf5WHFr52gVfA87unspuVTj2sqr3bDXY9z6qihvTSCvCnP/0pHq+r8qqYlkmGGrv33nvDMxoj/BFT+LtQdteWMXt6c9g1lXY70OXOomvXX+/9zgLefPV7xTPVgNe2oABeFN468Da3NOR6FJruAEb08gonPnqGL4psay1ibmNcbGoEXlXTCL8FWP61Sa//Yovyf+2gdnu1eCT+Q9Tnso/EoxMVZbOzmvFcHRnO48jHslGJtjPwNnbiaxl4qRc9vGuja7Rqacj1KZh6g2FUjDnq3/Bp9w8UneyEzbKeY8/XCl9IO8O9zpMEz6cDUxherZXUAd5Waq29bTrA26T+NgbeV2nai39eBDoqR2h5bxmupGMHe9NdhwbTbYcZVAJVdQngDVAEZJbA0RlUh/PA5Vcoq18DvGen59L52cU0ucAje1TVOShUQHZwiCVBGdJc5LXRU2uRhVvYkInoBkxYYAFd/LnMDFb16lbS3gGU3eHedGi0P12/Zzjt7etO/ZSie5W4ieTvI8glwifYIE9D1BeJqnAa4P0a4D11cSldwEYwi43AaZ7PF5iWnCiP3ceYZb4GwpRH6FZ5tmyWp4fy9FJIIXaYabQP9RK43TcIeGOpuA7oPTDcl0YMzba6SO0sU7ZC7R7Hf/fuN3PpxEffpLfOTKfTAO8kdZF/JHxV4T12DyOtPfhgxDO9pPAWlobPr7GR1rQsGFM3K52C71rvpOd+s0kLgoqrk/5alVeXCc9aI5zayT+Xw05sJ06cCC+ptgCjOmwmZa+okOtQvnpFc+ixzWx/tdaxnrIfuRULyc4D3nwmuOhrlgavz7LAO9qopNKrXiW1DPDaUclR1gSR5/GE/h3QyTieS9jK6w2A0jGUXRVeI0g4uliZlEfs0qv6P8abXdM5a6O8tivw6uH9+WARtSI6g/n4r0QqOq1VIpJCEaXh8nBy7QLvp1gZXtDTzfdhHPXfMHJ3Gv6O82iHO6ODtJIcYlgPr/k69LDe3nJHXuy1A7yt1H5723SAt0n9bQ541S4hO5LBwoZ4dp+B985DQ3XgXaYnuAMyhL8tYnMBvvwozAFv08DtJGrYOKG3LhBabIKOWVPA7wzwOy9o0sFtSl8tIMwsgFmoqfBKhPEyqsEQEDkA4PYBlENYF0ZRT0dRlvcAlcPVCgCstWEXii/B5ClnBVNtV/bdkdEK4RdWAVMk37BVzGJpmGb/k6i7kyjP44RVm6BMEzNAOQA8ScFnUYWXKIsAPF9TXQ0rVrXzGWWKiX0Osv9RyjEK+I8QZm3UaZCe+JTTKBZ2pqvQUlQADMtVvAIblHMKlff9C/PpxMfn01tn8UCr8DYAL6vUgfcBwpI9+mih8H4YvdavTeA17JgWBnvH+1hf365w2qq6K7TluLMqr1m5FOK0EeTJ73s7SZXX8F52nnrhhRfSp4Qt20xy/yrYdlJ75JFH4phVVb9rK8PasnpT4GRqpf53FvBaT0yZTOO5ThE5oaylwX4QQogK7wM8ejZaQ862tpdiX54YFhStr2+KFDfwbGD4qOemBsNCIATTbLSc3IfA+QvKIyi1MpSuobcMjyUgCePGhi2Ttivw5qgVnq8BYLds1AoV+UZP7FbF4c11G50Y7SRInWt30e6nWm95Vab1ILeS/E5Z9g+xNDyPtUFvtnYHv6NlUgd4y9TW1qzbAd4m9VgGeG0QL1kaKukoCu+dWBpuO7w7FNVleq+v2nsdVVRA7q7oTcRTwOsyMDMH6M0QxmuK9aYIvTUDZBbAawQFVE2Ad1bgVVnlivKeNBQ6IRbQHQF4B/EM9AO8oewClcO1qQ8I7dJPCVivAt1IfLVHgMWl6V8hWjm2p9pDKDSbBEOMqdwKs/hmUagDfKcBc3wXgvAMwKsKPU+WBfDiY6Y8vQBvH2otfEvUBWBc4EVltjyDKM4DgO4Ay7qB7F1sH8ojcG384F1AeIWyVCiB9TINlL1/sQa8ZwBe62LNL1dWeO3YdQl4PwzwMkrDtaLwCqCGvrJz2q9//esY8KCVcFgqk9apVgMjD6i0OjnfDHi1SjhiWx5MJA9gYXnKJKHa/RjL9o9//GPEtRWuLcuVkr5dB18wLJedDx1oYiuS+9We4KS9InuKtUl4bF7fGaxbAdqNyrhzgJeGIm6eqRF+8AsELV5tW+qd1uqWhuad1nJ9ioGqenYO02v5A14jWgNZml+RanOXFuQP4tU2VsuA1gEVVTuu+QSrlUQTFhAX0SOIN2vc2Va8n44m9irKruBlxzpV6DJpuwGv9eJ5sj4eImqFkQ+qvC93VIga1MMpnnhaL69hQbGeGlO7Cq9xfVWOzf8c4c/8HpindhlvqIy24U1W2fjBltGvn98zw55pmTDub9nvWQd4G8/2dzPfAd4m9bw54C30XZtSlVM9vGN4eO8+BPDWFN59gN7KPHEY6JzWBcwZ4aAL2HOoX5sH4ZUHzQAeyi0ZOTkEsfEj7cS2sIxJHmZQ3a0Dr7DI9t1AapWWB5tu+HWrKMw2Ot28Co7F/sBXtrVjW0wsZ/PYnt2EPcGQZHwMCAAD5BkDQAjKTLt4r/rr/mcB01kVXQoJgxcWB+Y5Mo6C7ci4h23gWqwVxQ9Flbt+Gxh/JCyXOK3517I4xPEyr2QVyVwMNAEv4+HtAnh7QuF99uNz6U0sDQG83DfY0JiogkLhPVYMLfzorxhpjbBWRZSGIi7ptQK82cqg0ql3VyuD38GySqdwJ9gaV1boclACO5IJvBn8Gi0NKqyCtaDpPr/H8NZCqMvLJIFSuDRawzPPPBOd2DYTnzcPrSvwthL+a70yCvzu30gSHrvwbRJyrWt9uX5XPM6tsHSsLcfOAF6PWiW8uIK5xElclPUppc8+L6I0GIfX6/KbDTqtubXtgMqh8V3tXKS333atnhpm68vWzOixdKhaQUeIatVjadtlfFkVwfspzxjlyke4ZpdXfBvRGQRwylMmOkPOdLsBr2ruvsoSNyaLoZRqbWilXsYBXiMoWC9vzH57II6tAF6jKZi/SvIs++MnKt3QvciQyPMRZu4wKm9Zi0o+L/rFW4mrnLfvAG+uie/utQO8Tep6Y+B9hQu8AF43L4A3XQa8t+Ph3YdnVoWXkRhqAGqDzhVHo227HY9OmTPEWBek10UYs11YD1agOcE3JuwPKrtOemZXg1hrYEpWQqUOom7QscsYYMuOuAbEErPWUdtiX7wItfwPIaaCfaHKsMHaGYzDu+i6of4WtoIAT1Vf1uthdDUpeZHP7Vm8BIwK44K4YC6c4trluABmyuPDcctimSr8GHatqG6bPwNkUK4lVONlyqVHOagV60KobGwXygHAvMyyaVTw9y7MpQy8p1B4p2rA63FcAl6HFsbD+8ijafee3enDDy4pvFs11Cq7u6rJEFzCruDnyGLCX5nk98i61VqgnUB7gYMoOJ/DheVH9I352hmrcVQzodcwXJZHtdfroEyyvl988cVQ2I12sF7cVSFT+FTdfeyxx+LYW9lfLltWdB0AQ6XZ/Tr8sa/rAa92EaE3q9uq3ZZpK9LOAl6vxgJzo4GxfYupPPBGRvzxUfPPiNagheBAT0Pv/2JXebV1X7UMCDkxob6dazFawzBeXYFI4D2Kh9dOT2USTWS0mUZnOKHFi3Zw7AAACndJREFUovboO9/kbzav7QK8nlkVd0N8eVNiXOLb+4qIGps9lsb1PE/aTzxP7xFVw9jEjald4F0v7rF+Y8vvef0R5T+AL9sbrbIpe7NVeAV2b7TKWBs6wFu2xttfvwO8Tepwc8BbNOu2wf5MDkFgKrzHQuEdTLdjaVgLvDYYsZUbCXyRilehN2Lrko+hvcJawA/HpVeBtfjMPLxAu2h81InDiEB+BroJsGFeFbVAXPMoYFn+1cLQO9Cfdu/fl6qG/6JVnsNDPAsszE/PpMWZWUiW7nUU1jjCfdgQHDTCxlvoLsKU8Z55jAgUJUpCGSgTy4TcCvtWYdam4CRMLzMtAb52eoOTUzcwXSF/R5EzrWJr8FhUeJfJc3JXAbzHPzmHh3c6CbyTAi/7iEQeEaXh6LUPvIKmVgaB105rqpBlUvbqCpnPPfdcwK6htRwmV3Uzd8Bam6eP+PN3XeAbGxtLDnBhJzL9xMJwmbRZL6+jigmbds777W9/G/trR2nN0SIEbiNGCPrCrseflW2PI1saBH3rWDX7lltuiRBwgr4d5rYi7RzgtbbyBZlnuTBrKRRerEWbVXjzdkW0htpAAaiIAkpd5G3YXV7fV9uUnASRU8CHIPVaC53Ecj45dqvg7WSotDIpD0lrOV5CaXSkLou/ziGsm/V2Ad48QMjNgP/dA3P1SBrGKW4l2dnLuMn6mj9D6V07kMNWAO8rKrwA6WlgWnXd5BMDVV2B/X463Vm/YZ0peRB5SGtD4WmhMSqEtobNjvDXAd6SFb4Fq3eAt0klZgj4yY9/EiMN+ej1wvmL0SHn90/8R3rlVRXeInmpY6FNgyw5YpQGgPcuLA2XK7w22AKpqbal5Mb/Akfjg1AtY0leJdb1DVNA8KXti6XmIXZaCif/5td4G9uFYsximDKU2n7g5uCNh9MA0LFc7U3z2Bpmxidimrs4npYYIU5lVmuENgXB2lzteifwFrDLDGXqCoUW3CVvfbm7VIrzK+uHDk5h3X6VvFZZv4JfuEqM4oBe1lhBAZ9jGOZVvMzYkokcQW/rrgJ4T3xClIZzWBqM0lAD3jhC8gwPb7Y0oPAKUUWntTzU6ufsdfsmIU/4Ut19/PHH49X3ZT20qpiOfvbGG29EtASH/FX1bKbqXqk27EDm6F92mstKcxkQzeBpOf7whz9EmLJm5dA3PDY2FoD/8MMPB3ReqVzrfZY9y6rYPjIXNAXeL774IoYM1mbRLHlMXuM5zq4dBFWbtXT4HSo7lPDafews4F1z9HFxFstaBV47rtlhTci8i0fPB1Hg6kxF/rZ9poZdXQa8QscEcCNIvQiI2Fvf+//G9YscrvxXRfduozMARs6r+JZJlqHxkb0Q3kpqF3j1ygp8gvcrTbyyG5VJ0A17B8e/l05fRzg3npfrOS+teJrz/vTYNloOHNihMbULvFfyTvsd8jv2c6wqtwK83lT1qdi0kFSSrVfrtxGsN8qqA7wb1dDWf94B3iZ1uh7wPv/C8+mJJ34fwFvfjCtHjVLXo3F4Bd5/odPa7cThvaTwfht4hREvOkHYlB/rO1+/7GozhXmiEY1zo08e0foXKxZYmvG3UFJVizPwhkKLSCHwHrrphjTMo+td+/ZjS+hOizwKngd2Zy5eSPOTE2kJxXcJ/3FEmdDygPqqDUGF2HcWe1dNIdSXHBQsUQO8qrVhkWDf3ai4WigqdBaqMthF/zBD4w4PpZ6R4VDc6GGV5i5OpAtnzqYFFGaBV5vETE+16LSGwvs2Cm8G3vzD5WFfb1iyAF46rdXi8F5LwOtj/P3EnBUwf/Ob36TbbrstPKV+F8qkbCUQNLOVoCzsuj9BT1VX6FVxvuOOO0pZG7K14O23305PPvlkdGITgtcqzI5i9tOf/jSA12PXQtFKUr3VxuDwus8++2wAr5YGl7nP3Fltbd7Wr2qvFgZ9vO5f6PV4LY8qeztpJwFvbqvq39i8gApsFXgdojarq/ehwIVHtJav4Jv35aKG3cUpU+kVS7VffYyy1zjQgzfqm03uQ89ujs4g7F7mJd5ERno83+FRvSCk+neBR/itpHaBt13F2/i6BwFdRyj7IXVimDYB0YFBrKd8Psocm6fifzk/eeQ5Q5R5zhpTu8Br+DfDwKnwNouX63fMDpLe0MRgJxxjK2kjL/J6eXaAd72auXrLO8DbpG6bA++F9Dwhl64EvGFpOAzwqvACvNfVPbyGAisAN5oHrvZoe2NZ0Qp/C3Ia1q+rG5c1LXm74gCE3VjCj7mvxXsVVY0Odi5DOeWXgIAPNeC9MY0AjJVD1yNR4+cFNpd8BA7sLkxPpQWgwUmbwxJKmQC7oiWBaZlJmLDMAq3+3fiVsczkL2w5deEDrqJY9vRV47VvcCD1jw6n3pGhVLFjlPnw6H0S2D375T/Y91R0eFsFjueAkQ+I0nD847PpbaM0MObxJMReB17aRoH36DUMvHYY81G6VgYjTYyNjRUnc5N/PQeCnX5dFVVHPNPKYNSEdlK7FgsB9Kmnngovrx3HhN7GpI3goYceiuM+cqT8SGY5L+HWSACGQzt+/HgyHnArSTuHEK7SruLsORGGVYJbSTsNeG1vRJXAlaJZimprFXhVDX1Mbqe1fyc6gn5LzQDqf82At2GXlym99qL/LzuLATyTJXrRux/L4P4fZv9GaWhFyVTd/ctMAVz6iNcqmFFJm/jTLvBmhdcbgDebdA7LRYhzyB8j5WhpU9m13gUzvcyONncLdbEX0PWpX5zvvHGJVx/5a/fQ2/xnzo+WAL2v3qg0pnaBV0X99VrnRVVYFffGlDvfCfH3EKbM4/OYL1+rcYvm84Yp86ZCP/JJ4v5+Sj1vJhxeB3ib1+fVXNoB3ia1e2XgfeJyhdfGgTwGufoz8Gpp+BGd1gTelTk7rdWAlwsj1Fpa6KKRLrDU0cqi8cgtSK0F921en1WaJBYKuKyYFT0h1FUDOpn380LhBXppUYy40D8ykg7edCMK7+FUuW4/0l4/ndwAWpRcnoXzijrGtAQ4zdPrf4lj8P3y0kJaWtQTulgoaD42B7ospYpZF3GGfd2F4qv62w009OHX7LUDFK/dKLw9+Ie78AUbCm11jlG5zp5Ok1+fSme++EdaBLgHUIN39XSnWRTeD+i0dvyjs+mt0yi8AG+MtJbrgUPLwHv/A3RaI0rD7mvM0pAtGQKvgy5oKSiTfGQ/OTkZoPv0008H+Kp6qrS2k4Q/vbyWSwgsq8AKniqugqj2AsG0Malk6901fzuPqXS3klS2jfvrfuyot14nuY3y1kKir1jvskMbtzsAxk4EXus42qtofIo3rQKvwKGnUtD9BcDpI+dB7qQN/xj7cGfsx10Z2SZ26QdrkqqeHl6B9xTzQslmkkquiq6WCsNXCZz1/W4mA9axTJ+w3xOO9AXYtTMEbbvA675Vl41L+y4DJTTrxOdPhX1BBF1vNjz+ERRQh1U2UoVw5jLVXuunSXVvsmaIP8958NG/9ZItFnEO1+TQLvAaAu4tAN/zr0fYEHWNKYdXOwLE/xzgNVzZIE8Xyir5/gIK8Z/xHfsrnmFB3vq23q+UOsB7pdq5Op/9HwAAAP//FsD5bgAAQABJREFU7b3nlxznde67J2dgkAd5EEmAGSQAUiQCgxgly5IpWaLkL+f43LXO/eK1/J/YR9LyOsf3+josW8EyTVkSRTGJEQQTSOSc00TMYHK+z+/tfoEG2DPT3dMzmCH3SxY6VVe99VRN9a92Pe/eBVu3bh0xbzcoUFJSYhUVFbbpvk32wgsv2Nq1a6215Yq99dZb9r9+/L9s94e7U+YfsRK9qiowq68pts2Ly+zeumrbuHi2zS8vtuHePrOBISscGdFUYAWazApsRK9HCjTxnx711g2Nt2j6hr7Ds5HkY5yR7yXm4JHlhVcFic/Daz0fYdIyhjQNDDONWHnNbFu0fLnV1NVZ0dz5NqJtHdJChrWAxPrCAm14cNCG+/pteGAgPB8a7LehAU08Dg7Z0NBgmFhXYWGxFRUVhccCPRYUFVpxSamVlZdbSVm5FZaWWoF0tZJifcY2Ddlw11Xrb7xoHZcuWNP5CzbY1WnVpfpc8/UUldjhK732ytFG+7yhyxp6R6xzUNuszQxbqi4uWbrUHtiyxXbs2GFPP/2MzZkzx44cPWKffrrH3nnnHTt75mzQZLr+s2bNGvv6179umzZtspUrV9rs2bOz6mpHR4dduHBB2/upvfzyy3bs2LGsvj/azOhI3+jXo48+aqtWrRpt1rTvnz171t59993Qr8OHD1tzc3OYr0DHYmFhod111132/e9/3+677z6rrKw0/t6yacPDwzagY/LgwYP20ksv2WeffWZtbW3W29ubzWK+MG99fb3t3LkzbDd/83Pnzv3CPJm8Qb9++ctf2p49e8bs15133hl0QOfq6mor1d9INg1dDx06FHR+7733DN3z0YqLi62sTOexe+8N57+77747+bdd+IXF87eYOPMkTmHhXMUb+vs8o/7wd/jpnk/tyJEj1pI8Dr6wkFHeWF4yaF+r6rHbS/ttQdGQVRcMs9hE0zpYjU5p4TFxLowfJh6bh4rsUF+pHdF0TFOLXmfSqgqHbWHxkN2m9T5Y2WPL1I9sGufSPk1H+0vt1c5KO65HnXav6ZTNsph3VemAPVbVbbeV9Vu1+lYafxwyXFC/+tIloVqGiu3cQLFdHfriftSfphWqh/wlVhSOWI3WM0uaz9IjepRpnTpt56U1DxbZYfaLdDk6xn5hndVFw2E/PFrdbatKBrJaf8Ngse3rLQv7/9RAibWl2W4WuLh40O6v6A36LtW+ZptzaU3argN9ifWd6C+x1nGOt9natuXaJo6z+yr6rE79yKa1a3vOabs4vvdoOy9re72NrUCBA+8XBfoC8K4R8LaOBrxiOC2iSn+cNwBvXRJ4+xLAWwQU6sSTCrzD+k74j8fkyST1nKK3Q+MREKUVJME2zs8sydnC59f/0fx8RWcyfiYA3kH9HfdrqhDwLgR4Fy+2ovkLbbi80vqHhmxwaMSGw5mZtRVYkeCkpFAQy9lQkDEyomlYoCpYHdF8I+FRC1SfCgoKE5PmF9VYQXICgunfgL4/pPmGtaxCbVCJTqrWfdX6Gi9Zx+UL1nrxog11dQl4Bcv6we0GeFt77fdHmhLA2yfgpX9xY9WlJUuW2AObH7DtAt5nnk0C75GjATTefSd/AHBd0/w+27Bhg33nO98JgAVccZGVTWtsbLR9+/YF4Nm9e7edP38+m6+POi8QumDBgtCvb33rW3b77bePOm+6Dy5qXwLhTEDfpUuXwmwcC/xtAVI/+tGP7J577hkVpNItN77Xp78pYB/QffHFF+3AgQMBgId0DE+ksc3sEwD04YcftuX6G8mlfeWBNynaRIEX6LyzvC8A7xqBwTwBWDwncv7jVHBt4lx3U7s6XGjnBXgAwac95XYpQyCoFYisBEQEmPdo/YuyBJGeAJdFAebe666ws4KSeNq6qYsZvZwo8IJvgxIM8O1W33j+haa3eJeJM3aJnhRzntZUrNeFyc+/8L0c3kCPd7oqAvBeERSiV7o2UeBt1P7eD/AKrE8KQK+MArzA/RKBLuD5QGWvLclyf8e+x/3O+t7T9rGdYzXAOgCvjjOAF/DOpjnwZqNWYl4H3jSaXQNe/fC98ANFeAPwttofkxHeDz/88IZvpQLvlmSEd4OAdwER3iTwpkZ4EyfpCLuctPVO+r/5ayf4BIJqtUngpQPxJBofb+gUC2SZAkwivPwpcaIbEDQS4V24YrlV1y2xogWLbETA26so9KCAYUif80VhqRULUEoVpeXxhrWFPmi+8MjplBZWpgdFD3R2BIBpLG0oROQGw/KH9R2At0wXowU9HdarCG/n5YtJ4CXCmwK8LT0BeD8jwhuAN7G8uL1Lll4H3mdnEPAS6QT+iHT+4Ac/CAAIZBJZy6adO3fOdu3aFcAS6Gtqasrm66POS6SRiCPgRySWSGQ2jX4AfQDv+++/b/STxt8V28lyuXPC9ufSJiuyzTYv1kUg/Xvuueds3bp1Oo5H+cMco+NfNeBNlSICKe8F4H1XEV4dB7lEeImABfAkAibwBAji8mE2zgPxXJCO4XoFUleGE+D5rsDzjKAn9Tup/U59vkCgfUdZXwDeNYquzhVoZ9OIJJ5JRt4+F3ARaZxImyjwTmTd+fxuItJcqIg3wFtpJ6XRgHZc+MlJs6KJAm+mEVegvlLwuVb7epsi+qt1vJXp+CqKB1uavqV7i19CtuekgPePAt5jegSCeS9dc+BNp8rkvufAm0bfm4F3DZaG1hZ7649YGn5sH95gaYgRXgsRXoD3PlkaNsjSEIC3p89GdPsf4E38/STtDHG9/C2k/3uIc4Sz+nizxJnjD0B4Hb4E8Ap2tRI5ApKWhlm2QNGr6sVLrHhe3TXgBXYT30/gdbgFHSK3WkCA22RX2ZbUn47kehLrTIJuAG2+llymFsyyA/BqlvJifamn0/qbEpaGZkUnsTRUFSs6LNtDb7Q0KMIL8F4GeEXtnFQSfUxYGjZv3Ww7ifA+Ey0NR8MP7DvvvDttLQ2pt4wB3lwjnadOnbI333wzbO+JEyfsypUrYRdM9J/U4/+HP/xh1mBKP+gboPP666+H5/SpXPaW2traAJTPP/+8bdy4MaeuEtnev39/WP4HH3yQt8g2t/FrampC/7773e/aHXfcEYA3W+j9KgHvWDvwjCxF70wAeMt1wpwj2LxdEbDtAhHgN54HOQeE84DeiOeDm/uCtQDIOirAeq2zKoBWtG7dPG/qaywMWBmI+BFl5pZ+Ng3A3Zu8lX5aUDfarfRMl/llAV6iudzqx8ZwUFOTLBbcsRtt/+UDeA8lLQbHtN7RLAb8YgG3WGi2VPTYeh1v83XcVXIXMovG3EzcSfispyxYWrAcpLOQsFiAl2ONOwmbZKnwCC+qTG5z4E2jb+oPPpEo/IytrYrw/vGP9uMAvOkivBaAd2uI8FYlPbwlNizgxcMbrQisLvxhAJA6WWf6Y5rpxeYXLyYTaBosDVpnv84wZbMSwFujCG8A3rKqEOEd0mfX+5P4aaGb9Di80ovEuynv8TT5ZuLT1DmwILCd2Bh0WklCsOy9ivAKbJPAe1Ue3mZFAQc6O6yqJBHh7S2WNwkPbwrwdiSBN/78LF221LYIeHfs2HkNeI/K0gBo4R3kB3c6NsBqlvYBkcRUsMq2r1gYsDLgk718+bJ1dnam7L9sl5aYnwsUos/08bbbbrNnn302eNizWdrVq1cDhLIffv/739vx48fD1ydqlYh9IGJM5JjlA5f5imyz3US3uQCJFyKcC3g/m+bAm1DrmqVB+ymXCC+31IGe9Yq8PV7VFSJwvAeghNMSj9dPN2l3EfMRcXtdEUWsDdzSHy3ixqK4+7RaYL2zWuAj4AV2s/HMsj4gh1vaeHjxDbPOibSZDrzcWcTTfEH2EiLeJ6TLZfldO2U5GatNFHgz9QrHPsxP+rYBUCYsNLm0dm0XdgbAnu29rO3muIjHbFwmwItnmHXhIXbgjcpM3qMDbxpt0wFvS4sivLI0ZAK899VVhQhvGLTW038D8IYTtI78a7HUHG6ZXuuylkMs9tpfEk91wqbFPy4+53nidgse3gi8yzRoDeBdbCNpgTcs5sZ/4kLDuynwmzyfp7yTmEPwFAfPAbxsKvxbJMsDwGu91yO8TSnAW6hb+6kR3s8bu+ySIrwAL6egALxa1lINWgN4d+4U8CYHrc0E4OXW+aJFiwLwfuMb3whgeaPQmb2Kt/Y5NoFdBnJdv2DJbBk3z5UYgFgYIG/evHnhYo9BbNk0+oVvFyD97W9/e20wHdHTmy0D2Sw3znvy5El79dVXw/LPnDkTBobFzybyiHYMqiOyy4UIg+roM/CfTXPgTagF8L7LoLUk8MbBi5lqyWmFyBuDlR7VoC0AtFpRN25BxzYe8DIfAPpBd3nwcnKbu2sU0GJdQNY6AfYT1V2GnSECdlzfWI/hPKt/ADoGqwG8gF5az+xYC7rps5kOvOjdRHRXAMjgKnzVvRnoMmHg1TqBTi50mBjEOFbjjkKtIBcA3a7BktxRyKVxQdWtiYGSf8S6oegyx0AM1MRl4h1OBd5svcPu4Y1KZv7owJtGq9GAlwjvT37yE1kaxo7wjgu8WmcAQT1OCFB0ck0Mgru+ETHjQ/xJSAVeLA19AXhrgqUha+C9vpqMnrGN14FXPSHCSwQxAK9OPorwDmBp0KC1xiTwVscIb9LS8IdkhDcAr2hXzJuA+RkMvGRjWLFiRQDeJ598MkBlRoLeNBOA29PTYwziGiSjhrzSANtEGvuH/cQUvbzZZg8Avok4Azq/+c1v7OjRo6FLRLUZCEZk++mnn855u1key2X5MbI9kW2++bsM0vv2t78d+gn0E5nOpjnwJtQia0TI0pAj8EbNue37kG41AyLBYqBsDbGJI8ZtjYLc/clb24nBS+nBB8CanQSeHQKe+iyBB6jp0QRcvSbgBXzjeXjcTo4xw0wFXsAPPYi0Yu1Aj2N9o1sLbpZgosBLdD3CbibAy5mTix4udB5TVoh1usCq0GsuenJp4w3OuzZYTsf1A4rwOvDmonJ233HgTaOXA28aUXJ4y4E3vWhETFevXh2A6rHHHrNVq1aln3GcdwFcMhPwGLWe0AXUTesDnvEbZwvRAG9DQ4N98sknNwAv/l3SrwG8pGNDg1waFg7SkQG82Bm6u7tzWcyo31m/fr0ReaefdUrdR0Q+m+bAm1ArX8AL5KYOIsPXm03LdBBZ4hZzIjvD/TmMmu9ORjKBq12KKBNZzkebqcBLlgxsDKfw7Qp2L+o5NgZ81Zm0iQIvEd1U4B0vLR29YiJjAwCKlxebAWCaS8MzTEo6+hA8ywL/1EaKOZbPhdxmrY9obzbNI7zZqJWY14E3jWbpgJfbcVgaPMKbRrBR3ooQpnChvHEe4Y0yETUkAwBARQ5hIPDL1EYD3gj6999/f075faNGAOWvfvWrALwMkJto/t243PhIDl4i0PQT2wyR6WyaA29CrXwB70TzlQKiiWhfib2vbA2AaLqYHQOVGCAHgAA72Xo4GZRFBJm0VKTDIrKcjzZTgBcsjH5dNGf7gV0yVjBlO3hvqoE37isuqND8trKBcKFFWrrMED0uIfFIhgagl2wNH4T0dMU3WBsAXnLvcqxtdeC9UbxJeuXAm0ZYB940ouTwlgNvetHmz58ffLsA77Zt24K9If2cM/Pd0SwNqaC/fft2q6+vz3oDOaZIwfbzn/88AC9+4f5++eTz2Bik+tRTT4ULEiwY2RYEceBN7Ix8AS/eylSrQbbeymg1wM9JtgYyBQC8N0MvkT0ibQBvLpE9Ev/jUSWiB1QTgctHmynAS+SWCC4+aQAXry4ZC7gQoPDFaIMFR9PoVgEvgxSB0XUC3p3yjuMhx+qQLfSSbg1NTg2UhrzDpGPDzxwj3AyIXMRAuQC82Rc48QjvaEfO6O878KbRZjTgxcP705/+dFQP7ypVWotZGkhLNuqgNa2TH27ahG5BaxHu4Z15g9YA3tQCB/h5v0xtLOAl80ME/Wwj2/zNYN+g2MbPfvazUNQCOwNe5ny21Ap47BusGNm0LwvwMmiPLDWx0lq256p8AW8cTEaeVAaT8UhWQyqDZdKYa1jgAXAAvKQp6xspVLTt+reBmXotdwcVzeTdnKUcwABXpo05gbx3k9kZxiqokOky43zTEXjZ3pj2jYF5TMBu62BhqPiFFmRiaBfsMkAtl3argJe+0uOVHA+kpxOQUnWOC69c2kVB/ycqfMKFEBaPDulEA3ix67D8B+VRz7ainwNv9nvDgTeNZtkCLwVBKS0M8CYKT4yTpUHzO/B+dQetfVWBd6KRbWCXwXl79+61f/u3fwuV1uKAvTR/xjm/hbf4iSeeCGBOFPqrCLxU/QN4Sc8G8OLjvlXAC3yQLoxIG4PJuAVMtgYicYkcNOPvalCFQUSkCwM8uNXMgCoa/wLVZGd4UkC9TssnBpxpKd0IfwD1q0mg7hdQj1ZQIaw0i3+mG/CyvVxAkIkAsGdQGlHdRj1vEtxhXejW9lP4g6hudo7r68LcSuClFxQgCRYXXQBxTGRrcYlbkqj4lygB/Kny88aKfwAv6+AC6yGBtQNvVGzyHh1402jrwJtGlBzeAuoD2Mu/6x7e6wJSwpZMAEQ6KWH7ZYvwdqlENIPJGFTG4DJysNIA3rjdjzzySNbbHYH3888/vwF4J1pS+PqeSTz7qgMv5z8yU0TgpSIesHurgDfuHwb1bElaDrgVzG3nTIGXZQAanyTTkxFpA0RopDljND4g/XUB72qBbwKFw8fj/hPSUGlZeHdfV3YGfLy5xQLTr2qiwEtfIpQT1Ua10Vrsd/yOkvqE+Xm8VrxIEItCRHRbBLoMDgN4Ad8Q2dbn+Wi3GnhjBJZsDVhdAFIujLI1qkSrBwPYKKl8ShdeHDNlyjaCb5wI79cEvBS+yKZ5hDcbtRLzOvCm0cyBN40oObzlwJteNIA31dKAT/TL1BhE1t7eHoD3l7/8ZSgOwfblA3iB2wi8e/bsCSnZHHg/tffee8+wEOSjcf6rqqoKF2REeCktnS3s0o98WRriNqUOKiMaGyJuSbbKBHyBsgPJ9GT4eGPlLcrKXgePXoFHdhYZfJlUVzuiZe7W4CS8q/lsEwVeBpMBWD2KunYNJarPxf5FNI2AS8yc+ROAmxiEBrD1ahu79Ajksr0U02BgGo8sF0tDv54zb64R3din+HirgZd0ZPSBCyAq/a0RmHJhlJoHOvZ1rMc4mA+bB9k7GMTGhQHaU7aaCO8junOxIsvjzoF3LNXTf+bAm0aXfAMvpYWptKa/lWuVgdzSkAdLQ6i0tiVRWvjpZ40sAEcVTSSyOJ0rreUrwgvocUufx2sXF2mO56l6K0IRfaLaGtYDIrykEaMxaC0fHt5oaQB4yUOMzSGfjQgvadOIwOMz/qpZGmL+Zbb/+9//fgDeXPTNN/DGRP0UoNiktGHkLVXgObRMgBfICFkUZGkgL2/MokAWCGAD8LhXy2XkfDZtvPRT2Swr3bwTBV5gF0htldUAPynQGhu/STTNEqLAI3oSgFfvEQ1mwF8AXmBZQBuBlwwEsagG809Gu9XAG7eJOwthMKOOj8V6zp2FXBrHW+oFFxcMeMU57nYq72+2eZ8deLPfCw68aTTLJ/AO9fbbiEoLFyYHqcXVOfDmB3i3bt1iO3aq0tpTz8wY4J1opDMeQwzYosoaFgJu9zPdyhZvexPhJV0YoPv222+rxPOZ0K25c+fekI4Nf2y2jb+b/fv3Xxu0xgC5ycjSkAq8X7UsDamlr7/3ve+FynPZ7ifmzzfwAkBAL9aDUBgiaT2AeTMBXgYLkQsWD+/HGkQE/NFidJdby0zZejWxSuxhUJIid+ewSuQpO0PonP6ZKPACVtgOTvcXJ0F/9Ah0kn+T8Iud4YuWBiCYKC4+XuaP39HTvLbpArzkZ8ZuwLGxSdaGbC+IoihcJLQMJ3ID4yXn+CNizHKx0lDwIpvmwJuNWol5HXjTaDZR4L1HpYU3KkvDvPJiA3hNwBsivCnrcuC9EXhTSwsXpJQWHrPSmiK8W7dutZ1J4K2dU6sI79GUCG8CtFJknxZPiXRS3IAIGum5ss1WEDcCnywZAag2RpQz37f243oyfYzAC4AS4T1//nyA3lhSNubhZbsnUnAjZkEgko91YjLy8KamJZuueXjZ/1xUoEM+LQ3l5eXh4pH99Gd/9me2cePGTA+BG+bLN/ASl+R28lqli3q8Stka9MjANZ1JMgJeBlFdEXCQnuxtAQe3mGmkICNiDHgsU6QXwMm0AXss5x2VkAWkGbCVa1aC0dY5UeAlKkvGBPr3YU9FyBQw2rqm0/vTBXg5xrjQIjvIw7IerCrpTxx3XGll0TiqiLZTce6NpNebewmA7rM1GiypSG82zYE3G7US8zrwptFsIsC7eXGZ3Svg3VAH8JbYsG7vOvCOP2jtqwS8RDpJfQVQPProo5ZLpJPD9tixY6GS2aFDh66VF05zOE/ZW9HSQKQ5lj0mTy4WBxqRUuCe7SaCiga5NCDvP//zPwPoAdP5rrRGUZBnn3029HPJkiVWU1OTVTcjkGO5aGtrGxXI8cZiGUAPqrllW8IZ4GXfR+A9p/Lc+WgMWMN2Q7++9a1vhYGGuSw338CbiORaSB+2jWwNAgTy8wJGmbBHTKOF1/aVjqpQBQtgxc6wXcsDeGu1PKJumTTmIsp5TMv7A9kZBJQM5spXdobYh4kCb8JjnADe3QLefHuMYz/z/ThdgJcLLfy8KxTl3SovL2DKXYAKZQrJpjE303ldIH0kLy/p8chqgWXiuZrOcPxlchzHdTrwRiUyf3TgTaNVrsBbn0xLdk9ddQDe+deAV14zPLwp6/IIr+IyvZ020HTROi5dsGb9WA90dlhlscz8JcXWW6Q0Lld67ZUjTfZZQ5dd7hvRrULlfpSGCtSEXEJLkxHeHTuipWFmRHgBPwaqARREEnMFPwow/OIXvwjAQ0Q1gmXKYTatnhIppXIZ2/3MM88YFc1yaYD+b3/727Ddly5dMqA6n41MEoAe/QT8AMBs2lQC72REeAF8QJ/tB/y5AMil5Rt4Yx+IyN6fzNYALBB9Sz23xvnSPQIcxwSmv0sCKrfnAUpuKQO8wC5wk0mLBS2InJKOjIFwk9EcePvtUXlcSUuXTcu2tPB4y56vzCAbdIzguZ1ImjI83xwrXCAd1oSH/KmYDk/HHncsMmkOvJmodOM8Drw36hFeZQe8BcrZSB7eEQvAW1duAO/GxbWh8MRQr6JbgwPBw5t6UnbgFdjeBLz9aYA31dKQCrwFEhPg3YylYYYBLyPgUyNoDOTKpR09ejREeInwYWvAzzqdG1HMurq6AFLf+MY3gq0jl/6ePHnSXn311QC8+IOJouarEaW+44477M///M9DWi7gD09rNm2qgJfodgTed999N29ZGhiklxqJZxBfLm2ygJeR7VTBAjw2lPWFXKbZ9A/YoAAFoEouXoDyOd1SZnnZVNSK3liWkyhZPLo3Npv+3TxvPoCXAVN4jClx6xHemxXO7DWFJ7gDwIXRNkV6KUyR+pue2VIS1dewmXAcctxweUUeXqwN2GmwUGTSHHgzUenGeRx4b9QjvMoZeKuLbfPiClkaUoG3Nwm8KT4zHc83AG8ufzX0VMuZyZXWIvB2KsIbLQ0VN0V4xwTe5TcBr36oZ4KHl1vXgBQRtO9+97vX0j5FS0CaQzLtW6dPnzaq/wG8x48ft9bW1rTzTZc3iZTiX2a7v/3tb+d8q5xb9++//37YbuCSW/v5aBRX4G//nnvuCVYDHvGzFhVlGnNJ9GKqgJf9TbSb/f/WW28Zx0M+Ghdj+UibN1nAO9GSrHhu8fASYWMgG6WKn5vVFSwS2ehH1odTghZAcp9KCsesD9ksI5N5HXinR4SXn2kuiFbreKHkMBddHIuZAurN+5oLDywmDGZL+McHbY6AOtOKbg68Nys6/msH3jQaZQ68/AmkRHjTAm+PA6+iZukKTwC8g0lLw83A21OsH5LWXns1aWm4FC0Nkhzzf4GMVV+I8M4Q4AWsijUw795777Uf/vCH4ZFjjvezadzOxycK8HzyySfG6+nc8jX6v7Gx0bBzsN27du0Kg+Pysd30jwsRCi48//zz4UIklwpjUwW8RLaBXHR47bXXjMh3PtqyZcvCYFAuTCg6sXDhwpwWO1nAy8A17qgBCY/pVvdqRWaziRlE0CDCRkYFCgrkMkr+svyXn6tyFsALRAMgk9EceKcH8LJvOc4WyVJzV7kGOeq4oxx1rSwJuTQGOHLcMMiRyC7LceDNRcnMv+PAm0ariQNvTcjSMD9kaYjAm+Lh9QivlRHJ7UkAb4zwYmmoKEl4eCPwEuH9XB7eCLyDOuPo/BDybwK8W2RpiB7euQLeIzMgS0M85CY6aInUXxF4Xn/99bwBT+xfvh+B/Fiy9oUXXggwlQtQxgwQgN4rr7wSotvxjslE+gzsLl68OESgn3vuuZy9q9kAL9YJwJJ1ZztoDQsLVhZ0+M1vfmNYXPLR8JSnZqnINi1b7MNkAS9YSaSNUfNPyPu4Xo8hW4Pey6QBqp8pInsG4FWElzRTDFoj0ptpY018/z3dkiZSnFqqONNlZDqfA+/0AV722Y35oHttiS6YAGGmbBp5jLngIs8xFj0G6bHsTCPGHuHNRu3EvA68aTTLK/D2CXgH5PUJg9aAXh3ZDrxWptvERHiHrkV4z1sCePVzpkFr6YC3QyPW0gHvNQ/vDANeUpN985vfDMCzaNGiMFI/zeE46luxwAPAw+A1op7TuQG32AOwCvzoRz+6FtnO1jJA2jNyDxPd/tnPfhby8gK8E4VebuWTggsA/drXvhYGFuaiZ6bAy7qwtLA+oBL7RDYNHRiwx/7/+c9/Hvb/RDVg/VyITQTE4zZMFvBGuCC7AhWqyNZAZCzTUfMMZjokSCUnLxkMGIz0gAbBUcgikwbskvHhuID3NaWXOqoIL/DCe5PRHHinF/AyqJHBjQxc26njb42OP+46ZBvfj2nKqGoHFmCcYtmZLseBN/u/NgfeNJo58KYRJYe3rkFIOksDwKsIL8CbiPCet74uIrwpwKssDdHDG7I06PdIlTGDyZ8r4qXLufWqwhNx0NoMA14GBpGHF+ABfvG3ZtNI/0XuXQDrxRdftM8++2zMNFjZLDuXefEgRx/ytX1/04L4fKKDwlg22x63G/Al2p1rPt7YZ/bHtm3bct4fcVMzBV6yQeBlZv+z77PNBsG+J/0blee44GH/o0GuleewdADeWDq+853vhP3ExUjUJ25fpo+TBbxx/URm7+PWssCDcsCMds+kAQrcSgZ8yc3LrWSWkWnBCXKpMmCN9Gavh3yqpeGclMm6c5nHgXd6AW/ch1xwkR6PYydccAlWp7I58GavtgNvGs0ceNOIksNb16AnR+A9nATeaGnoAHjVDwIpXwbgxRtJNA3gefDBBw3vZDYt6nvx4kX7+OOPQ8Tz888/D7e5s1lOvuaNEVyWB4yNVvkNuI95brEQcDs/28a2X7hwwT766KNr293Q0JDtYsL8AB1gB4gDenirc4m4xpVnCrwTzfcbwR8rA2naAH80yDVbB8cjnl2Al4IuHI+5wi5aTDbwAhmMbAc47lC2hoWK1GbSGCTEgDNGyhPTJVrHdxmAlElL5LVVxTYB7+4pyHrgwDs9gZcKfVT94/hj4vVUNgfe7NV24E2jWSrw/uAHPwh5Uinhykjon/zkJ/bhhx8mv0VESyO79apSQ6nqrw1aS/HwuqUh0Ok1r6ZApUiAUVqkgWzdyQjv5YvWpKpcRHjLkxHebuXhPXylz149mvTw9o5Yh4q7fxF48fDusKefetrm1M6Rj/GIbvHusXfefudaSds0u3havBXz0gIYTz/9dPCM5gIYeFqBv3379tk777wTPK3c8s93yd0oWgRbIoJ4cpm4HU9kkb7EdY9W+W3FihX2yCOPBNAnykmp5Vwa6yJjA9tNWi4yVbBuop6ZNLRmW0iXhp0BqwUgTpq4iUQ2MwVe0n098cQTQYf6+nojHVgujX2/e/fuALzYWhjUh/YAcSYN7zAa0B+sHFyEEe3O1bsb1znZwAugLhCoYml4sLI3RHl1LTxui/lzidRyO5nbyFUqIsBt6Uwafl3sDKQjO9hXpuIB2WXxyGQdqfM48E5P4I3HH4UotsgSw+BHvOWZWhJS93Euzx14s1fNgTeNZhF4ARGAlwT5pAACeH/84x8ngTdx+7awoDgAb/nIoK2sLrItIS3Z+MB77R4YZ+hMztJp+skypntasmH96MYIWqEuDvgR1r8y5psV9nTI0nDJOgW8LRcvCHg7A/AOy8PbFYC31147lgK8AwJebXOI8OqsEkeTA7xPPvmUyqHW2rGjx2yPgPftGQC8HGfk5OU4wzNJdO3ahUG6/T3Ke7Gq2alTp+yDDz4It7gZsc9t/slosd/chqeABkUKyK9LmV8uBsmN29PTMyp4Ekkkmkpk+6GHHso6sh23KW4320qaMsAXDTLNywvUAu0AOBHNu+++O1hLAPBcLjxivzIF3olaWuL68PGSoYPoPoMXSVWGvztTa0Os/Mfxt2XLFlu1alWwV7CfJ9ImG3gB1OilfFzZGtboFnOh3hvvdArW4rclnstzACUbULmkQW+fkp1BwEvVLAa+TWZz4J2ewMuFEgPNVusuw3by6CrKy/GY6YXTRI8ZB97sFXTgTaNZBF5+kFMjvOQ8/elPf5oCvIU6wRYJeEesfGTIVtYU2dbFlcrDW6NKa7NUWrjIhnt7bESRr0LAT/MJkxNnWc60NM7O452hw4xp/tEypjXwqssAbgRetv0a8BYqupb08HYJeJsvaNCagLe0tNCGNZq/s6hYEV4B79Fm29uoSmuK8F4V8MYfqZiWbOuWRISXUeVz5syZUcAbI4wMXuJWOuBLlC/bwUvxyKAQAaVm40Tkj4gnvk6ivQBQJlG/uL8AQib+HogCxoloIJAEuKYC73lF6X/961+HQWRjAW9qZDtWXJsIYJKHl8gm233kyJEAf2xzhL5orYh6sz2ALtuB3mQlAHh5JKrJZxNpmQIvVecATM4zwDYDF3Np7Fe298SJEyHCTzEK7khhbWC/p9pL4r5lX7KdHGvYSoi0xynXiPvNfZ9s4OW0ycXzWuVDfULAS6QXAAFEJqOxVCayM7yTzM7Qhg+YK/BJbA680xN44y6n2t9mKv/p+Fus59UZWmPi93N9dODNXjkH3jSa8YPIAJIIvNzqwxsH8P7d3/2d/JKfJCNAiRMdwEu9lFWzSuyhpVWh8MT6BTU2t0zwph8ikUY4MYc4QDxrxvWyiFzPl1rWdAbesIm6bRz+0yMN+CgS7JaVFgt4u2y44YIGrZ23ZiwNnVcFV4U2pNRkMcL76hEBb0O3NfSPWKcsDRF40Wzp0iW2efPmRKU1laoFwvAzzpQIL3oAIEAjt5IBXuCX2+u5NACPaB+pqk4rPyvRTiY8vtyh6O7uzuhWN+nDACGsCvwd4LElmou+wBD9A864wEi1NACc//qv/xoGT0XQSrcd/H3FyPb3v//9nPPdxmXHbBX8jbLdgBawnwp9zAu8A3oAN7AOcBLdJULNNvE+fSPKPpGWKfCmRrrxcHMc5NK4iAFqsXiw74mwY+9AA/Y7Fz0x2osG7DNAn21m29GBiX3Lvp4o8MdtmGzgZT2cVUgntl2FAPBRMnAt08T9sZ+ZPnLuITJ8TMBLpbZjys5ASinuOk1mc+Cd3sBLDt1lOgY5/jZV9Bmlr6eiOfBmr7IDbxrN+NHjRwHgJV8owEv0LALvRx99HEBFvzOKmA1bsZ4kSguX2INLqkJp4dsWChLKimyoLwG8xQLiEHi4+eTIGTvBgml6Ms5b0xx4gTk8zrEloovy8Ap4S8nDK89u/6Vz1nXxvLXqluyAIr4livAO6bOOwmI71NJrrxxutn2N3dak6G6XfnGifDwuW7bUtj6YKC2Mh7dWlgYifKRpeucdlVo9czauelo/Ao4cYwyWwp6xatWqAGe5gheAQ9QT4AF4eeT4BYZvjnoiTGI/JfysrDNGP4HSm4EX8AWMmGJWAfYrE1kC/umf/inoD2DFyOrN4rM+1oOtgbRcgH4+QCtuN9A3HvAC7EQ2scUAf4BgrnrfvH2ZAi/RZCCX8wx3KIgwT6ShNzYPQB+bR7zQGQ94Ad+JDNIbrc9TAbysm3RipBUDOMiJSi7TyWjALQPWKDTxhrIzUGUtno8mY31xmQ680xt4yZuLn5e80I/owotKbIm80HEPTs6jA2/2ujrwptEsRrj4IQZ4GcQCLDAg6G//9m/DAJERnfxGhhVZ0Y9MiaAX4MXDe//C8gC8dyyutfkVxV954E1ABFaG5I+QYKdIPxNoNtTeap1nTllnwyXrvtJqwwN9iiwW2WBxoV3RSOr9TT32yqHW8NiiMIoyGodrA35kmJYrOrdt+yMhwvv4Y49bdU21HVKKLoD3vfd2hQFNaXbvtHuLqCNwiYfyT/7kT0LEk9dceOXSiPZxixtbAbDDxO1tjmGmaDcAkCJ8csxHywLrJtrJRV86SwNAzMRntAhaAC8RXrykgBf9GK2x3vr6etu5c2cAXnzyRJAn0uJ2x22PNo4I3nFb0ZX+E8UG2nnNZ0z5aJkCL30A9AFePNxcAEykxQsPLmrY5+znGGlP1YB9naoB/WDf5wv44zZMFfAyOv52wS7Ay6j5TNOLxX5m+khWB4pW4N39sKfcLiiP71Q0B97pDbyEdLDRkKZsqwZPYq2Zq2My07zQuR5DDrzZK+fAm0az+CNPxA3g5YeIH1MGxvzN3/xNeOzvG7CBEMWSZywJvEsrCu3O2hK7e1G13bNyrtVVl5r191qB5iPCq4HA10OUcb1fyghvIu5BdLdAkTwawAtQoG3BkG759HRbX3OjtZ85ad2KRg7K3qDYrpVXqNSiNLncO2j7Gnrs9WNtdrC5z9oUQezT+woOB9jVtYYioRrl/vXHAzQ9/PDDVipw+UywBfB+/NEnIcIVZZ4Jj0R5H3/88QBAwCCR33w0jl3ABwACfMcDXkAXfysQlEmLywd0/+3f/i0j4GW5RInxjQJ8WDqwF+QTPDPp+2TMkynwApjAJxc63/ve90KEPwL4ZPRrqpc5VcAbK1/hobyfAhKK8k5Ga5Ff95hglwgvhSuaJzk7Q9wGB97pDbxxP5ExZKPS43Ec4isHeiezOfBmr64DbxrN+NHlx4iBJAAv6Yr48f/kk09CWrK33347jIDv6ekVyBUEmMU3tkAX/KsriuxOAe/WdfNt+ZwyK1bUsliAVyJgCwPXNP8NjZc3vXXD52O9EPTdag+vNvvGFt7QLe6wTfonaWlgwF6RNC1RBoZh2Tx6m5tCdob2c2etv71NFw1D+vEvsJLyUmsfHLKTV7ps7+Uue/9ctx1vG7Cr0m9AiwN4afjmQqWyP/mm7di5I0QJuY3+wa4PBLx77OCBg+G2fmLumfEvt5WBPgDw61//erjFnY+oI5E/InyAKRrxGCN+KBMhk2OeiYsSQIznmTSWR0SXCG82wEuElW3mwpICDFxYsu5M15tJ327FPJkCb9QdKwP7m/2OxQFNvgxtqoA3lmQlwvuobinX69byZLSLiu5+osguEV6iux2TnJ0hboMD78wAXjI0ALkch1QAJOI7ma1dF2DnlCWE43GPSmVfnqILsMncpsletgPvGAozgOj5558PP0T8COEP/cd//Ef7owavndbgmLa2dn2bW/QWPDuzxQeLlV/29gWVtmX9PFs7X4NDNIiiQjBXIogrFHQkSVDfSpDbCICYhLgxupL+o1sMvF+AXWKvKcCrVxpkxq1iRbKKBLuiVbkVbECDa9rOn7WrSkXWpZyhw73dKjWseUp1C7+8zBq6+m3v+Vbbd7nT9rb02/muIetKAq/kVUvkz+SC5Ed/8SP5XrfbKkVHW5WG6/XXXg/5SM+cPpNxeqr04k79u0Am0VWinng6ifxFr2w+wHeytigCLxHeTC0N9IVtAm6xDH3jG98IFy0M5MJScSsaVghSmgHvXOCmWh6y6U+mwBuXSUo3jmWAl0GYDCS71fubi6SoB/3k/IceEdJj38d6nCrg5bKMVFDkQyVbAyVfucWcr+y4nMeYTsuz+3a3SgkLMIiuUU54KloEXuwaRLPxh2bT8B03CoaITH8wBYUysunbWPNyIVNNFTzt10e1X1dlCZBU0gMG40SEfjJbPA5Xq7+UHOY4nMw0ZQF4dUyyXx14M9uzDrxj6ISvkIIAm+7bZEuUEaDhcoP97uXfhXy8DFxjUAiNAx1faqXOf7WCulWK7G5aOds21lXa6jnl8pRpnt4+K+jXLY5w9rzuFwzAqzdzOndqWbcqwhvPudfXHzqjDinhvTBXFtwAuwBvkVKMlZeVhvRtBX3d1tXUYI0aRd6hwUVD3bIy6EKgTJ9baZn1l5bb6dZee/fwRdt/WYUFeoatZXDYerR4bhBRtCJeLDz4tYfsr//6r227BnpxK/jkqZP20ku/DsDLIC2yEsykBkwQ4WQQEVW4iHzOhFv9uQIv+4ZtBnK5uAT4JpKXd6L7msFuQDv5hLGTMLAtlwIM2QIvxy6DARkz8Kd/+qfhgicbsJzodt/8/egFRg+i9twN4OKLQX7ZRP6nCnjBTiYiuzsU4Y1gCDDlozH6gGIVZGV4TYPVsDWEohX5WHgGywB4iVwTOSTlVS7AS3GMmQ689VkCL4AbYZfHyQbeeBySmuzecnl5ZWsgewNZHPLd+N1t14XMOQferKR14B1DLkZwky4I4OUHeVDWBPyhFKD4jUp5Hj16TABLbt3ErfYyPQF66yqLbf2CCrtzcbU9sHy2La3ULeLuXivsl7csVE5I/NCHVXNS1ndmIvCGrl/rONuhP2yAV48BeAUzI8pTXAzwyl9bKD9z/5Umu3rpgjWdOm09GqhWpB/TYkFeSUWZvLuqbz+gUdDKu/v+kQY72txpLTLrdmjRykomgEbnAsGzboXPmi3Q3W5/9Vd/ZZuVy3RQt9X37d9n//7Lf5eP97MwaIdI3UxsRNLIHEDkk6wNRHwBIiKfwQMtDaZTA4iwSsQIL5AUB0tl0s8IfFgaHnvssbC9RBQZTDUVjb7jayaVF3dvuFgCwrngBcIBvWxatsBLlBuQZD8T6eZCJ0b2s1lvvuZFCzI9UMCCCm707dFHHw0XYdyByHQw5VQBb9xuvLshW4MibEBHvrI1kJ0B+wKR3Te7EtkZ4jqn4jEfwEuE9+gMj/DmAryHtc/Yb1MBvPFYIDUedgYGr92tNGV1yiLCGTufZ+1rwOuWhih7Ro8OvGPIxKhxfvSIvAAeQAdRD4D3f//939unn3wq3k0AL6m2ZEENic9Vf8LmK5fsHfLyPr5hvq1TxLdcg4ZKBgBeYZsgriD5vQLdo4dfrnHjGP35wkcw5k1fjBYJfRQa0VCeA4tKY2t9WnfZrBpbIK9gTd0SK5632EbKqqx3YEhdU78yhKkE7ApAWT8rCG8MazsSwEs/GLBWWFyiqKx+0LW9/W1XrO3MSQHvRetqUVYGeXlL5XEo1u3jAv2QNvUO20FFdQ9c7rBDyr17vqM/eHeJ7jIMhW3gpLFwgSp1bbwj7JM/k+Vk3bq11q0faUD3F7/4Rai4dbNPVV+bMQ2oBSo43latWhW8rdzqJtoIcAAg06nFiCDA+8///M8hwp4N8LK9wC0XmAAmnnngF+icikbmCu7WUKntzTffDN5v1o3NgNK/DCbMpmULvDGayzo3bNgQzjdEunPNy5tNX9PNixYfffRR0AMbF9FuSi4T5eWcyDGYSZtq4CU7A7eRiYSStYHsDflowC7V1YCmj+XhvThF2Rli3x14E5aGmQK82GsqNUIdi81O0pQpQp9NJb+438d7vHrNw1uStDRMr9+F8fp/Kz534B1D9Rh5IuJC5IXBJUQNP9SPwf/+P/9Hqa/et3Z5/kgDxPge/KUc7GWCu0rR2W3zKuyx2+bZHQt1y1I0XEFqrv4BBUHl59V6GYBVqH9mOvDCugAvkAvwJiK92rbgy5VVQRG0Qfl2uxovW+vpU9atAWuDRLxFyuUV+lx2hr6iUjvd3me7TjQKejvtfOegtSis2wMoa/HALkIBB+vWrrdnVWhi+/Yd8jzebzUC+Av6kd6zZ4+9/PLLITLF7DO9xbRVABfAyyA9oIjoJ8cmPtMIS7dqW4Fd/ibwewK88YKD97joyKYR1a6vrw93Ux544IEAmqne0WyWlcm89JH0XQAe1cn2798fjiF8vEAe8E0FPCA00wtB1gvw/vu//3u4G8Sy0CaTBkgClKyPC2wi/PSD9yczsh8HNBLZxc5BpPvdd98Nleso5kGEG085egDhpKzLpAG8LIe7YuhL5HwyG7f7iaZhadiibA1UwMpH41Y4kUKAl2jhZN8av7nPAO/jVV0B5KsEUvzGZNO6BexNydv7u2aYh7cm6eHdKQ9vLsAbo7vYOaYqq0bcN0R5t8nLywXYHF185bsgCiWtKW3NcblHpa65KPM2tgIOvGPoEyNPd955Z/jhI8LB7eYTJ+UV/fVL9vY77+o2+n5r1I+CkvIKYJWiTCTLjdhK/davUFqy+5dWKtJbowFsNTZHH+JZLRrSoBjRcTHES0s+JF5k8a/Oe7c+wnu9+yHYKw0KNLFpRQLeIlVU6+tot7azp61Tg9R69KM30NklgiUrQ5GV11RavywPzX3Ddqip29461mxHmrrsisLRXbJ/YEoAmzjFc+u3qKjEtqgM7P/9P/+ngHdbAIIrqib10ccfBVgBuviR/jI0tpdILynCuMVNhBdrDRdegAcwxOfMdysasAssUeHrkgqHoP0f/vCHcMEB7PJ5No1twbbBoC22k787JgZ1TQbwAaMU5qBC3McffxyeX9HARywOXGzEPNxEnNE4U+gFeH/1q18F0GN5mQIv28hFDBc1eLiJctMH9jX9mazIPuCP351iHUA/elCxkLtZXMwDvEScAV76hMc8k3bu3LmQwhHgRROKoUxmiwUAAN7HFVkDFPPRyMjwYU9FAIsGWQPIxzuVbY224+vVCeAFmrItndwjf1n0s74n4GVk/0xoeLBnCXjZn0RKswXeVkH+rUgjF7UlY8M6+XixNpCubL7SluWvyeqn4/DCYAJ4yR5yaYrvPORvW6ZuSQ68GWgNYDz55JPhhE/aqC5BK6mv3lYhit/9/vf6cThiQ4MDYt6hUEWsRL/z5QpJLlRp4bW1pbZhYbXdu3y+LREAl/R3W+nwgJXpSh0LRJZMcGNvpwR4I42nwEvyqc5HitIq6ko/kj0LVga9CCdlZacY1rZ2tTZZy4nj1t3YYMMMJJO1g8h2kVKQFVdXacSz2XH5dfde6rRdZ9vtdFufMdwM75xMEte2ubq6xhYtXqLo1077H//XXwoG7g264zV8VaCFdxTwItfsl6kBWsAQ0EvUj+OR4xAwonAB0V4uxIAigAkwymfkN4ItIAgAYVfgEZAjQkr5WmCJyCDQCyjxnWyBN+4zIoiUuiWiDWyyrUR6gWGinWxjNgDKcukL/afPRDI5RjhWOHaIPh44cOAakKEdywe6ifByh4c+oW8mDWB88cUXwwVYNsAblx0jvUT2gUwesbfEfR3hN9cLHS5G4j4EdLlgIfp6WplnAF4egVP2LQ3ARQvgmzENWE8yaedVLnzXrl1BBzSZbOAFQ7l1TMWrxwSIPIaKV3Q2nqAy6Tjz6LTDmQdEITvDO/LuUlIY2OW8NJWNW+JPaHsAp3J+N1h5pl3QRvSovy1JDy8R3nMzBIxCujmAV9vNYMSVpVlE7LXdrcqkcVyRXaK8ROjJ2jCVjcITQO9a9X+z7jgs1x0HovPhcinT/Ze2w4mDMwG8xcGbvceBN61SN7/pwHuzImlep57wGTUPeJAC6z0Vovj7//f/sd0f7rZeQfCgIiWcJYs06Ua9Bk0U2AKVyl03v8o218vLO7/SFpaP6H0VohAgF4YoWOLHWNiYZs3jvKX1TG6EN2EhSPTiOsAEkNFJlP8C8GqGCL04hsHUIk2DKhUM7HY0XbZ2QdBgx1XBfuKioEDR3RGlIBuqrLJz8uruPtpgey+227Gr/cHL268lBKt/uCLQhmqp9fX1tkODZ7bpdu+2bY9Y3eI665L/cv++vfbrX/9a0LI/AA1g82VrQBigA/TEieMSMCQCR0YBXnNLnIgw0JsrEN2sHYAE4AKJDGYCjpgalVIOaOQ9oInb4UxAZa6wy7qJ9AJ9WByAeiKcQD4RbraX99GCi4BMGn0hEk3/if4TeQTOueWOnYFtof9sY2zozXopaAJ0s360pY23bfheX3rppQD/UY+43EweY6SX/cg62ea4/cAm+5ljAPDPpQH8XKSw/4DSM2fOBMjlQoX+AsFoEf+O6AdRd3QgXzAAPlZDO1oEXi6CiBhznExmY61MjIzfoopXgMZcAVOFBtGOJPuU6foZYyHzmfUqOnpC0PSOQBHwJVtDsFdluqA8zLdS2wPwUcyAEralOsdmuj1sR/dIYbidT5aJjwRGU1UhbqKbzsUKAw+Jkj5S2W0rsgBetpuoNsB7vK9EFytTb0XB4sg2LNf+A3i5cJlVmLA2ZLr/0muo31j9JAZLg2wMxwXze5WHt8EtDenlSnnXgTdFjNGeEkHjR4ZBLKQpI8pWqh/cfQKsf/6Xfw6D2M7o1mibIFh/Z+Fg5CqceFCVTrTLZpXZXUtm2x111bZRft66igIrHVSaMgHysPLzUqIYUA4/E/onwG94MVqPku+Hdd04Yz4HrfHDlfjxEsZqw6iWFn7s6W6IcmjdeizUoLQSTXhyCxTVHRns14C0Lutta7G2y8q129Jk/Z0d2t5+DepT9FewW6Dobo/sCc0CWywMZGU41NBpjfLtdugXRVgc0JmtKy5kEFep3X3vPfb9F35gDz/ysK1YuSLodvr0KUWQPrU333g93JIeR7EvxceALFBE1BMQ4ZZ/BF4uxmI0EiACHiP88r0IIzcLkdi/CTCMnk5AN0Z1gaQYCUwFXgASSMpmkNrN6x7tNf0GbPnbi8AH/BHtBMKIarN9aBG3je1jW9gGJvofo5lYGAB0QBfg5Tl9TwXd1L5gGWG9TAxeBT7D8Z86U5rnLP99XQyfOHEiRElZfy6NbWG76Ed9fX2IdAO8XATwXvRxo1OqBqnrijrEfUlfAH+irQAuUMoFABNapGscRwA2oMsFPxcC4zX6zjqIGKMDdwA4fqaixajaMkXUeH69xCtnk0yaTnBqwC3R0fOKiO67hUCxSLfC7yrvs6XFA2Ew1HVLw3jbk9gO8gW3Cf7YjqnMVpCJ0mPNQzSUPLZ4sdl+dMisJba7QxFetvm8bvtPZaGQm/uIlYFcwmxHrY7H6+nyxtt/Ny8pvk5sX7cuxhqHirVtJXZKF2NXtL3exlbAgXdsfcKn/Jjww0vaoGc0WArwBSyuKOvAhx9/ZG/98Y/28u+Sg6USx2KAV5xSAN5sZWxYoJK5d9TV2OO3LQiD2apHBhTl7bcB5ecdVoaECJJ4X8NANj3Rb4beH6OD+mwyI7z8aF0vDSzgFUAkwCgBvMM6kQ4N4UVWwQSBR4n+3gqG+wW3ihI1XgyR3TbZGAa7O8KVbokiLUXaoEIBr1VVWuPAsO3DyiDQ3Xu+08616cdY8J9IQcb2K4OD0ppVllcGuCPv7n/7y/9mm7duCT/2Fy6ctzfeeMP2yCNIDl5uH38VWtgv2jfAHtAXJ6KiQBC3/pmAwmgFiPAbwSiCG8viOUDEhJ8TKCLKx8Rt7TjxmugtgBgnXvMdwCouM1/7gL7Fv724PTwC9MAnkV6eR/BjXr5DX+gTfaPvgBywyyPQRVYGoA+Ij31P12c0Y33AHjpyDshkG1kn0VPWAXDTn1wb20M/2MY4sV/ZbvqEBryOVo+4f1kf640XLOw7+pOqA695Hx14RIt0DRGL1v0AACX2SURBVOgGqtGBiw80Ga/Rb/TnbxK9o9bjfS8fnxNVYwAbI+XLdc7BOpZLIw5BlBewIMl/r853t6Lh22XQE9uTy2h/MmFiwyDSe3UKC2ZMVCvwje1luwFF4DebNqDZGbDXpf3Xo20nd/KtaNGaUaljkedEfvPRyLrUq+1iGzu1jVNttcnHNkz1Mhx4s1CcyEYcvIGnraJCRvHLl0I051/+5V9C6eGuLv1wKBMDxMsfbIj06nmF3lg/r9IeX7/A7lGkd7Fy81Yro8GQyhMP64dmROnK+Dso0l9DzNxA16Yr8AK7I/pjGx5Rnl0Bb6V+lItH9OPec9V6Whus7dxpAW+D9WjAmgnsKwT9JcltGyoqtB6lKzvZ0afSwW22r6FLvt0Ba+kVcOmPOJmqOBE51rLrFtaFwTLbNEjtT7/zp7ZmHWnIuoPv8r/+679C+iR+VEeL1KHjV6FFMAHMAKDRgBcYieAWnwNHowFvhKIIh/G7U60pfQXoAHxAD+DLBHiBXEAPEOUYYTuzaXG96JvJtjMP68hk3mz6EeflQgf4BUBzAd4I+8BwNi3qwON4jXlSdZgsLcbqB70Md53G727axXDu5aysh1va6H6Y9E+uvcFoxvawLbd6e7IVk20nEJTLtidunubyzWx7Of78YTu4b8mTPLXwO6xlzbR9mqfNz3oxDrxZSMYPDLdUGbzxzDNPWX19vX5A++3zvZ/Zz3/+M3v3vffs9ClK2rYrMpo4SWH4ItJbrmlJZYndNa/c7lKk9+5ltba4SrebB3qDtUGhmADIJQJDgHdYZyd+JBLTKJ3UUT7pEd7w18nJ8rqlIZw4BbwFBdxKFejKmlCiCJDJs9vfeF4V1M5Z64Wz1nu1Tduu7BWa9G2lKaPARKmuuEdULrjPDjZ1C3g77agGqZGVoVukO6SJkxSNIhPFWsfdd99lL3z/B7Zt+3ZbvXa1IsS6TaXoLt7A119/PdwyjTCW+OZX818ggwkwAwyJyuXD0gC8MQHFtwJcUvcm28e2sV1xYjvjtvMY/27oM1DHscEUo63ZbgPLpMXH1P6kex7Xn+6zfLyXun+J/mZraUCHXIE86pzpdky2FuP1Y6JsMV1AYqLbEXWaLtsT+5Pp40S2fzpt80S2YzStptP2jdbH6fK+A28We4IfFqJLd9yx0b75zW/YXQKx2bNr5YW7JB/vH+3tt9+2d5S54fTpM4K25O1/AW8cxDZH99aWKXPD7Quq7P76ebZWeXrnKqVDBb5X3UYuFOmVyBfAj0oAXr0OPxij9VFH+mQCL6tN/ZGPoADwcklZpOhriYCXgWsjgEV7i3WfP2VdDReso6XRhnp7rKK0KGSuIKY2VFIcBqo19AzagUtXbO/lLvu8sVfwO2S9ukDghuqIbs2E5et5pSLo8+RVfFi+wb/87/895KItk/4NTY32sYp+kJUB6P2ypCHTJntzBVwBV8AVcAVcgUlQwIE3C1GBP6JLWBsefHBLSFe0YeMGq5QftVkDNN579137h3/4B+X0/Mh65M0d1IA0GtajYk2UHZ6j2/orZpXKz1sVKrGRsmy+IHikuycUaAj3JjRfMqg0du+0zMkG3gi5YTtipEsvgr9K/6LHCL5OlQnuVjaGjovnrK+tVVFrFZYg166i1Xh2C8pLrFcXDG0qH3yspcfeO9pkBxs67JKqq7UNynOpZQ4RFtcANW1VAOrFdQuVluke277t4VBoYp0GDnEhcOgwo+D/S8D7ebhVjVfQmyvgCrgCroAr4Aq4AqMp4MA7mjJjvM8I6VWrVtk9995tjyg91qpV9VaqLAIH9u+zf/qn/0+D2N6yU6fPBmsD7Kb/BX+JVGV4eReUF1r9bA1iU+nhLSvnBgAuk8+1UFFSsjYQ4oQtE5NuU4/RlwDI0YzPjEljv1g4NL7Nc4bN4I/tV9S4PFlauDqltHCfBs4N6rOwtuQKgd1hvQd9Yi8A+HnET6VxBKoYp/72awDTVQ1Sa7isCmqN1tvaLADutnKBfTHfEcOOCHSHlZWhRQPcTnYM2X55dj862WInr/RYh9bRq2VxaTCsmQtkjyiWvxc9b799nT337NftkUceCmVNqzVYpqGhUTmQP7Pf/OZ3SnV0LETA9VVvroAr4Aq4Aq6AK+AKjKqAA++o0oz+QRy9TXT3qaefDNWg5sypNSp+fUrWhrfest/+5mU7eux4ImALIGpxRHnx81YJBufJurBuboU9VF9rt5Gft1IDvwSrQ/IEq5pCwFTAEshM8mfoUOpz3hAvXm/XPoxvAqngqhYpKGZUZwTehYpSVy9aYkXzFttIWZUBvEPAbcr6iKYOywdJA3SL8IbyqGXiyx3o7rROZWHoFOh2yGYwpIFjJQJ3RkmXKapL+jEZfFVJTaNI9Y2TysLwwek2OyDgPasBay19gxo9qz5p+QD5SDA+a0BOlaLeSj21desD9qMffU9Whk2yjtSENEfvv/eBgPdzO3zosF5PbqlSttubK+AKuAKugCvgCsx8BRx4J7APqQBFTthNm+5Tbt71IWsDZYY/3P2h/eIXv5S14RNraaW0aE8AXqCXiXTx1cLYZTUaxCZrA7aGNfMFeRXFoQpbsUoPF8gOwAhj5k9wbPwXfE1ALCTLcDBmiFiciOeGWcI/ADPfAHaZBkKEd5YtXL7MahYttaI5dTYM8MpWMCTAxY+bXGGIng5poBJB4yJZDQBdsuOa+jfU12M9V1qs/dJ56yTPropKFCjaW671lQlwS0qF9orsDmBj0GDwi139dqixy3afumInWnusTf3ooj8sLm6P1lEoT/CSJUvtXg0MxMrw3HNPWn39MqVUuqqSp4dVUe0NRdIPhnRHPcpw4c0VcAVcAVfAFXAFXIHxFHDgHU+hMT4n7RNVrkLWhmefsdWrVimHaa8dV2T3jTfeDFkbPvroIyVdvxgYEmRlIsqLn3e2orwLy4tt9bwqu2vZXD1W2iJ9UK1qLIUq0lCYjPQCnAAt3yWkG/7TezwmIqP6XB/yOcDKY5iX+dU0q6qWAbyqHiS6xNIQgHdhAniHAvAm7Ati1QDZie9p8JyekA+3pEiVuzQQTznXbEB5djvl1+1sbrCriu4O9XSpVLLyXWr5BQJn5i8S8PbJntCurSWau/9Cqx1t6rRTivI29g4G2CXf7jXY1QYUaR2lZRW26f777S/+4i+ClWHJ4kUaYd8XCgXs3btXpUp32xkNCuxX6jdGmntzBVwBV8AVcAVcAVdgPAUceMdTaIzPY3okClI8++yzofTm/PlzFY3sUjTyUMjP+/LLLytf7MGQA5SE/oBoIjdvgaKhiWpsdTXltrFO1oaFVbZ2fpmgt9AqhYIlw8JUoFdR1gCyAXy1AKBXEzCqpAayAoC0AlU9LyRdmJ4zhcbnekL0NlgalParXEnrE8ArS4MivEOl1dan9zWLoriJqHLiW/qyBqWFAhBa4ohymPYrr2435YKpoHal2fq6rsqfPGDVpcVyL8joQFoxpRIbVrqkK4OFdrpj0I5QXOJ8q51p67YrCul2quN9WhcQnug5UF1gtfJGr169xrZv3yErww9DNoxBAfbZs2ds9+7dSv+2144eOTbpJUoTwvm/roAr4Aq4Aq6AK/BlUcCBdwJ7Mgzikq+VUp8Uorj33nuVveHBUI2IZPdEJF966SVFJXfZyZPXK4Hhgy3RBPhS87umuFDlhkttjTy99yyrsbULKm3JrHJFeuXpVYEFoqpYCYSe1yK4dDuArP7lv4iOX4jwJoEXP24AXiwNyiccI7yFwdJQI+DVEjQPwEtcl6pq5AMu1OAxbBUmb3GfKstdvXRR0d0G61ImhuHeLm0HmRhGNKm0cPDslthQcanSjJXbmfY+232iUYPUrtoZRXmb5dntI0is7pKVAWBPbWj4/PPP244dO0OhiVmKRLdpnQcOHLBXXnnFDh48FKo25VqqNXVd/twVcAVcAVfAFXAFvjoKOPDmYV9T9WieBlndeeed9vjjj4cSxNgdqFVPXt73VJAC6D19+nQosTmsqG0CXln5SPD0UqxzSXWpbVhUZbfVzbJ1i2Yp0quSxoO9ViLPLPYG8vQmgDaRLQFzbcjXG5YCqCazLOj1tQhv+Iy1ALwq2xuANxHhrZaHt3DuEnl4I/Di1U0uR7mBGZhG1HhYkd0BFdPoam6y9osXrVsQOqRMDIWqrFYhW0ax8guPCHiHZEkYVGS3Y7jYGpVl7Whjp314okFpyDqtWeHcLhGuVh9AN2FlANTlZ5ZWdXV14WLhhRdekCd6U3iPilDHjh2zPXv2BB3Pnj0b5vd/XAFXwBVwBVwBV8AVyEYBB95s1BplXqwNlHNlENvWrVtVGexuW7NmTSjvSi15gO3FF1/UILaP7dKlS9apbAYF8sOScbZIRBkeRYLVGhU2v6LE6udW2h2qxLZO2RtWVBfabPljC/p6bUTVooYUpsW0UKpoKjAa8uSKG6OtAbSNLUCvIsk05gvAq8fymlm2YPlSq65bZoXzl9tQ2SwNWktYGoBXfLwh0qtcuiNd7dbb0hxAt7O5xXo7OlUko8/EufL1alInCvSFQQ1O61EhirbCEkV2+23f2TY7pjy75672WrM8u9gYQi1z+XuJ7A5RmCP0dcTWKr/uU089JSvDdrtf/l3gl6peJ06csNdeey1EytGN8sHeXAFXwBVwBVwBV8AVyFYBB95sFRtj/rlz59q6detCpBdwq6+vtyrljj137lwANyK9wO95ve7t6bERRW1DYQaWKeAtEoyWCWYXKdK7XhHeDQsrbeOCMpUkLrQK+XmLlLlhGODVfIBmwtfLa31f/5CON4G7iX8BY3iXV/pK8PH2BeCtuQ6885bbcMUs61eOXOYhwqtYrWbutyHB7oAGpvU0Xrarl/XYftWGBxIlkMtUQa1E0F0sO8aQsiv0aGoeLLDTCuMeae6yvWda7Gxrt7XL09udhF1ixviBaeBuZVVFsH+g1Xe+8+1QSS3C7vnz50MltTfeeCMMWKM0rA9SC9L5P66AK+AKuAKugCuQpQIOvFkKNtbs5Ofl9jzQ+8gjjwQfKgBXqNv9zc3N9sknn9h//Md/hEhvo/LX9nR1KZIKuKqJNgFXnlcrdLqA7A21pXbXojJbO7fcls2usNllSg2m+QqVnWBE6RYYzFYkyuU718AW8GV5asR2Y1oyYDZhaRhOFp5YFvLwFsxZYgWVs21Y0VnmCaArb25fR5v1qDxw56UL1q8o9bAA3QS7oZ9acAGRaWViKFFBiX4iuxSVuNJnH51psyNNXXa5u89a5dkFdvvVR/VW/aJHQG/CklG/aqVt37HDHn74a7Zly2ZbuXJFiIoDu4AuFwenTp0KKciI+IZotpbgzRVwBVwBV8AVcAVcgWwUcODNRq0M5wVySVV21113hcFspC6rqKgIHl6yNryrEsSff/65XZIfdlCZG4YU6Q20GUhVA9q0HtKW1Smyu35uqawN5RrIphRoGshWKxCuEOEWKOJZIOgtVAQVUCZHLjwZPb2xq8Al7wObAG/f0LCVadDaohUqPKFKa4Vz61T2t1ozCEo1OK6/q9N6r7ZZtzIw9CgbQ498u8MaOEfRDNbB4iifRhngIVk5BkpKlGe3wC50DMiz22Wfyspwtq0npB2jqESv1pkooxG+qO8Xhqj3wgUL7d577rFnn3vGHtj8gGB3uXHB0KriHfv377dXX33VDh8+7IPU4o70R1fAFXAFXAFXwBXIWQEH3pylG/2L5eUC01qlGbvttuBL3bBhgy2Yv0AwOmyXL102cvP+x4v/ESKYbYqednd3B+hVEFMt4ektFaLWKI3DwrJCW1otX+88ZXFYUGVrFgpWq0qtSpRbpFLEA92qU6bctyXy0RbqvSHSi7GgwJdYGvREEWZIlewIPSpdjIe3rn6FzVqCh3eRjLhl8up2WW97u11VxbSu1hbrVrngoW5FoAf75DEeslItn0WOAMayLwwqx26HcqI1KL3DKUV2D1zosNMt3Yrs9tvVgeEAueTZ7Q/Aqyf6dojsKhq8csVK2/bwI/bgQw/ZZkV2V61eqch4lTU2NtoHH3wQrAzALq8HKbecEAZxvLkCroAr4Aq4Aq6AK5C1Ag68WUuW+ReWLl2qW/VbwiC29evWh/RlDG4jRdnvfvc7e3/X+3ZQ+XqJ9HZ1davAgpJ1KQIKWjJoDOit0DSntMCW1BSpMEWF3a4MDgxqW1RVZFWMWpNtoFBRWxkSgsVhWECbsB0k/LuA7kgSegFeIrzls2Zb3cqVqrS2yApm14bMCX1XWq27pVWFJBTVFfgOKKo7MjiQGJgmn26JbBYFAucBQW6PVtGpx8t6ckKFJI42d9uhix12uaPfNMwtGdFNDE4bkFuXqDOtSiWDFy2qkx732FNPPhUGqNWvrg8V6kg/BuRSlpkcxi0tgm5dCHhzBVwBV8AVcAVcAVdgogo48E5UwTG+j42BgWxEerdt2xbSlc2fNz9ELMk68LE8vb/+r1/bp59+ag1KYdYp6OWWP1OR4JLSwgVKSVYu+K0t0WC2iiJbUVNqq+dX2G1Lqm1JbYXNUp7cMnhSqcNGZEkoEPAWCjBL5D8gokrBCQV9hZ3KrstrPVbOqrX5y5dbVe3s4FPo7Vap36Zm69agtEF5dYcpkKG0ZAoVqwfqgwanlZSX2LAsDL3y6rb2DNi5K92hRPDh5v6QlaGxZ9A6ZLHQt8K6CgrIPaFF6J3gKlYfVqystx0qKvHQ1x4Okd36+pUauFYlf3NT8Ddj8zh48KA1qDxzn7bHB6kFCf0fV8AVcAVcAVfAFZigAg68ExQwk6/HSC+e3rVr1oZIb0VFuTy9Z+z3f3gl5Og9qGpslCDuUlRzgEwI5AYDVgW8RbqlT1W2WaQtU7R3eW2ZrVtcbSvnV8nXW2m1yphQpgwOpfICMwlNVRAi0bNBZX8AevHwhkivQLRMkdbZsliUqQ8jWn6v1tl+pU2PPQJscimokITWT27dQUHygCwMQ4LeLtEssHuxvcdOqXraydYeDVQbUM7dYevWOigmkViHoJ3BdPoum4FdYYE8u2z/15OR3VWrV1lZeVmI5B49ejRUpSOyC+x2yV7hzRVwBVwBV8AVcAVcgXwp4MCbLyXHWE6M9JJv9sGtD4ZI7+LFyt6gSG6DfKp79++z15VvliwOx4+fsCu6vY99gPjoiCwIpCFTelwT62rAWoHNKi0M+XoXzyoV9FbYClVoWyrwXSDwrVExiHKlMKNQBV7eIQEvAWCyKuCjZXBaofy3JWXlIXsEUVQKYQzJK0uaNNYlTlXVNJkkNCCtv7jMOkcKrUVe3Qvt3Xa8sV3pxrrsYueANcnScEWl07oVQqZMMBFkkXJiPXqvWKBcVlYa8uw+unNnsHfcoeIcXACQrg24/WD3rpBnl5y7eHaJ7OLb9eYKuAKugCvgCrgCrkC+FHDgzZeSGSwnZG+4976Qp3fD7bfZ4iVLrCpZkY3MDQzY+kT2hlOnTlpbuyKuPXLEAqAi1gChWgcYXKqpQm/MUSW2pUpdBvCunlNjy2V3WFJWYLVKqVCmLxXJksBAOSLFwDP/F8h7S/RV2BuWHT5nuQJiJmwQIwLxYF9QNLh9qMiaBLXnrvbZ6StdKibRZhdUTKK1b8Q6BbUaMqeMDWHRyU6qIIZAt1hV1+bUzgkD1Dap5PITTzwRIryUYQa+W+XRPXz4kL2tSnRHjhwO2Rl6SH3mzRVwBVwBV8AVcAVcgTwr4MCbZ0HHWlzM3kAVti2bN9uGjRsDEJYoktokH+sR3drfpYFsHyqLwx6BLz7f2IBemtgypAcj4luuf6o1oGxeWbHVlZUob2+ZbayrtPo55TavqsQq8TUo2ksEd5i8vSpaEfL2EuUNSxKossBA04Jd+Q8Ki0tkY1AhCYFxU/eAnVJZ4FNXeuy0Bqdd7Oy35r4Ba+sfUplgwS4MLZsFy4g+XV6UllVYtQbD3XHHnfasLAybH3jAVsuvO0d+5iKB8EUN0vvwww+UfmxfqKZGjuL+kJ4NB7A3V8AVcAVcAVfAFXAF8quAA29+9cxoaYuUHeFO3doPk6Aw3OKXzxUrw759+0LaMiK+ZC0gWwGe1mFZG2LhBfiUCfMA+XGr9LxWUdNlivDeXlcVBrUtrS23uVXFVikfBFaIIlkXikhfJlAtYhSb/g9Vz2RBwHdLrtwBPfZrqZ0C45buITuvfLrHm64qstsT8uy29ie8ur1aLxkfiOwWCHgT7KyBcsWlVllZJY9yna1W8Y3ND2y2J5940m5fv97KVaCir7fXLjc0hu3a9f57sm8cs7Y2RbL1vjdXwBVwBVwBV8AVcAUmSwEH3slSdozlEumdPXu2ii2stE33bQrFKdasXRN8re1KCXb6zBn77PPPAvi+//77dvrUaUVAb8xaIMxMRHsFngBtGNSmaO/cihKrqy62ZbOKbbnSmK1YUGMLVbBilj6rZDCbIqmFGhQ3pIivzLxWpIFjg4q6ArltAtpmRXUvtvXaKRWRON/eaw0apNbSTwaGEUV9E1HdRCaGlOgwnZFtolYWhvpVq23Tpvvt8ccft7s1SK1OcM/29vX22Zkzp2Xb2K1UbAfsgqqpXVEOYi8ZPMaB4h+5Aq6AK+AKuAKuQF4UcODNi4y5LWTevHkhZdlGWRvIYAAAU7CCiOeZs2dUjW2vvf3227ZPt/4jIIZb/0o9hi0XzsTTq+Cu8vCqfoQm/L2zRcALqwptmawN9Qtn2/I5lQGC5+n9aqUbKyXdmKK9w/LqArtdsi+0aABaQ9eABqb12VksDCoP3NilIhKyAHfLpqC6biHBGInKYl5drUqdKAhAS7/r61fZvZvuCwPzdmzfZsuWLguD0K6oetq58xeUX/eg7d69W9kpToUcuyHvcFiI/+MKuAKugCvgCrgCrsDkKeDAO3najrtkSunWqMwvlobbb79dntc77B6V2yV3L0UX8LaeUbR3z5499vrrr4ccta0qENGj9GHDirZGW0KAXr0g/64MCqbibPLvKo2ZikXMlZVgcY38vfNLbPlsPa8qs9nKqVumLAz9sja0dvVZQ0efXWjTdFU+3a5BeXeHrE1eXaK+vcrQoJiwUpSxZP2nLBAjAHMYCJfYxDqVTr5Pg/E2q8jG1772UID4BQsWhP41KfPC0aPHbLc8uzySc7ezszPk2PUKauMeIj6DK+AKuAKugCvgCuRBAQfePIg40UXMmjXLli1bFqD3/vvvNwa1ETFlMBvR3mPHjtmbb74ZwJf0XQxmayNvbp9QVAPMiPRSJCKRUmw4RH3B05jNYV5Foa2oLbGlAG9Nhc0R9FZpkFuforwNyql7+WqPXVJkt1ER3qbeYdkX5NHV91V+Ql7dQnl1RdAqCRwIVsBLbl36Vq0ME0Sp18uju1Xp1ug7wD5nzhxBbUdIO3by5Ck7eOBAKLJx8eKFALqpsDxR7fz7roAr4Aq4Aq6AK+AKjKeAA+94Ck3B58AjuXrnz59vK1asCOB733332XJVQ6MUMdDb1NSUGOy1a5d9qny9+/ft13vNIesBwEs+XZkNwmA2uhxy9+qdMvkdKjWwrFIZHWpKCjUVWbXy9VYpDExRilZZGdp7h6xTnt4uAXCPor4DsjFQmQ2vbsivC0IDvaENW4V8v3PnzrF1Gpj20EMPhVLB69attSVLllqtsjMwyO6YBqSRdoxBeESp8euSdsxhNymjP7gCroAr4Aq4Aq7AlCngwDtlUo+/IuCWwWz19fUa+LUpRE4Xyy6AxaGysjJA78cffxwKVAC9p06cFEi2KZraZX0a1Dao9GOEe4P1QDBLxbRSAW8oBaHXxfqwrECT3lCAN3hxVT9C5YIB22TxiOCUSObjVZep0ib+1TcLk17d2VZXtyj08a6775KF4WvBwkAfC1Uso+1Ku/zHZ0PKMSqnHTt2NGSaGH/rfQ5XwBVwBVwBV8AVcAUmRwEH3snRNaelAozRKoAtYNWqVcEigGWAAW14fvH1XlQJ4pOyNuzdu9fef+89O6HqbB2C3l4yOcjakCg2QcEJBrVRVFhNz4sEuyXy4jLIjRguXlwFdfUdXoVZmC1UgCuSVYI2oEFuzCcEFugutntlWbjvvnttk+wLVI5bsGhhsDYUFRUFC8Nnn30eBqfRp8sNl62joyPk2A0L839cAVfAFXAFXAFXwBW4BQo48N4C0cdbJdXOmKhKxkA2sjgwqI3BbfhmsS+0NreoQtkRI1/vwQMH7YJ8vZQpbm5tDgPeAFeR6vVJL8m7WxysCbIrBJAFhjWPAJj1Jb7Ce4oKFxTLLlFoRVggaqptoQahrVu7zh5Qbt17Zbcgq8Q8WTAGBvoF252hUhr+4k9VMAPPMWWDsTZ4cwVcAVfAFXAFXAFX4FYr4MB7q/fAKOsHQLE4MKAtZnHYsGFDgF8Gig0NKjeuQLO5sdlOnjpln+/dZ59+9ql9/PFHdkGVzCjfC8uOCI4D+EK1oKyAF6AlassMAK8Cy1bCSDS1QRW4wMbAvJXyFc+dN8cog7xj+47g1V2uSDOFJbBeDA4OKIrbYCdPngzRZh4BXXIJ9/XJYqE+enMFXAFXwBVwBVwBV+BWK+DAe6v3QAbrBy4ZwMYgsbvvvjuRr1eWB6K95WXliq5eUTGHg/ap0pft+mCXHT9x3No7rlrH1avWeVWWAhV9AH5DKDc4enmegN0CmRlg3VJZEgr1hKpr5QLd2SoisUh2hRUrlmudd9n2bdtsnawV1dWzwzevXm23y5cb7JRg+6hKIjM4jewRgC4RaG+ugCvgCrgCroAr4ApMFwUceKfLnhijH/h6GbRGqjLy265atco2qiTx6tWrbfHiOistKbWrgtvLjQJQFaw4cuyI7RWAHjl0WNHXE3alpTUUmhDNinlJL0b0F18uKcw06WWx/ikrK7UKlThevnKF3acCEneo/PFt628TbC9TBol5yiRRpchwQcgOcejgIYHuEcH1yQC6rJ8sDOTW9UwMY+xM/8gVcAVcAVfAFXAFplwBB94plzz3FRarWAQ2h8WLlwh4Nyriu17wW69I7KJQwIJQbVdPt52/cF4Wg8/tgPLfHhb0Xjh33tpblc2ho1tQ2q9BZLIaCHiJ7JaVFlt1ZbnVqgDGPEHtoiV1tmb9WgHvJrtdFor6+nrBdoX8uJ2yKlxVxoU2O3vmbFg2A+cuaADdVQ1M8+YKuAKugCvgCrgCrsB0VcCBd7rumTT9wtdLNoTy8vLg7V0o0AVIVytbwrrbbgvgW1FRHry1be1XrEGWg3PKgXv86HE7sP+gnTh20s6dvWhtbVdtWLaDclVhmzcHuwSV3tbbhg23220aILdMNobaObVWM6vGygXDDD47c/q0vn9cGRiO2DkBNOWCycBAVHfAvbpp9pa/5Qq4Aq6AK+AKuALTRQEH3umyJ3LoR5U8vER3Vwh6Ad56DShbXFenSme1VllVEaC2TQUfzp05p0wOhwS+J+3s6QuC1TZB6kAoILFg/lxbsXK53X7belsv6F27fp3Nqp0d8vp2dXfJC9weLAsnlHmB0sBHjhy1psam4NP10sA57DT/iivgCrgCroAr4ApMuQIOvFMuef5WGCwOivbi762RJWHxkiWhWMXatWtkdVgZSvwWKitDf99A8Ph2tHdaR1uXdXf2hsFlxcVFGpxWY7Nma1LqsWpFdGv0fGBowBqV4uzsubNhQNppRXcvKvNDi3IAd3R0hu/i03Wvbv72pS/JFXAFXAFXwBVwBSZPAQfeydN2ypccilWsWaPBbKtsjaalS5fYvLnzAwyXKZtDcSHl1ZSDd1Dlg/sHlKJM2RnKS8KgNSK+vX291tPXo1y+LXb+/PmQgeGYMjAAu21tbaHE8ZRvlK/QFXAFXAFXwBVwBVyBCSrgwDtBAafT16nEVlVVFby3tbNrNbhtsa1Zs9qWLVuuwhELlTu3VjaGCispLgmFJrAkkEu3WwPdyLJAVPfMuTN2TrAbI7qdyvUbfLoDA55ubDrtbO+LK+AKuAKugCvgCmSsgANvxlLNnBkZ2Ab8ArxUaaMEMHl8gV6sD0AvdojBocFQlQ3YbWlpsbNnz9qhw4dCZJecugxK8+YKuAKugCvgCrgCrsBMV8CBd6bvQe+/K+AKuAKugCvgCrgCrsCYCjjwjimPf+gKuAKugCvgCrgCroArMNMVcOCd6XvQ++8KuAKugCvgCrgCroArMKYCDrxjyuMfugKugCvgCrgCroAr4ArMdAUceGf6HvT+uwKugCvgCrgCroAr4AqMqYAD75jy+IeugCvgCrgCroAr4Aq4AjNdAQfemb4Hvf+ugCvgCrgCroAr4Aq4AmMq4MA7pjz+oSvgCrgCroAr4Aq4Aq7ATFfAgXem70HvvyvgCrgCroAr4Aq4Aq7AmAo48I4pj3/oCrgCroAr4Aq4Aq6AKzDTFXDgnel70PvvCrgCroAr4Aq4Aq6AKzCmAg68Y8rjH7oCroAr4Aq4Aq6AK+AKzHQFHHhn+h70/rsCroAr4Aq4Aq6AK+AKjKmAA++Y8viHroAr4Aq4Aq6AK+AKuAIzXQEH3pm+B73/roAr4Aq4Aq6AK+AKuAJjKuDAO6Y8/qEr4Aq4Aq6AK+AKuAKuwExXwIF3pu9B778r4Aq4Aq6AK+AKuAKuwJgKOPCOKY9/6Aq4Aq6AK+AKuAKugCsw0xVw4J3pe9D77wq4Aq6AK+AKuAKugCswpgIOvGPK4x+6Aq6AK+AKuAKugCvgCsx0BRx4Z/oe9P67Aq6AK+AKuAKugCvgCoypgAPvmPL4h66AK+AKuAKugCvgCrgCM10BB96Zvge9/66AK+AKuAKugCvgCrgCYyrgwDumPP6hK+AKuAKugCvgCrgCrsBMV8CBd6bvQe+/K+AKuAKugCvgCrgCrsCYCjjwjimPf+gKuAKugCvgCrgCroArMNMVcOCd6XvQ++8KuAKugCvgCrgCroArMKYCDrxjyuMfugKugCvgCrgCroAr4ArMdAUceGf6HvT+uwKugCvgCrgCroAr4AqMqcD/DyqOWFZ9n7x2AAAAAElFTkSuQmCC;" vertex="1" parent="1">
          <mxGeometry x="580" y="580" width="90" height="29.31" as="geometry" />
        </mxCell>
        <mxCell id="yEMSVHI_-RF4RxutFohv-47" value="" style="shape=image;verticalLabelPosition=bottom;labelBackgroundColor=default;verticalAlign=top;aspect=fixed;imageAspect=0;image=https://upload.wikimedia.org/wikipedia/en/e/e8/Shibboleth_logo.png;clipPath=inset(0% 70.67% 0% 0%);" vertex="1" parent="1">
          <mxGeometry x="548" y="347" width="26.62" height="31.45" as="geometry" />
        </mxCell>
        <mxCell id="yEMSVHI_-RF4RxutFohv-51" value="" style="shape=image;verticalLabelPosition=bottom;labelBackgroundColor=default;verticalAlign=top;aspect=fixed;imageAspect=0;image=https://upload.wikimedia.org/wikipedia/commons/2/29/Keycloak_Logo.png;" vertex="1" parent="1">
          <mxGeometry x="342.5" y="495" width="35" height="35" as="geometry" />
        </mxCell>
      </root>
    </mxGraphModel>
  </diagram>
</mxfile>
